<?xml version="1.0" encoding="utf-8"?>
<!-- Generator: Adobe Illustrator 27.0.0, SVG Export Plug-In . SVG Version: 6.00 Build 0)  -->
<svg version="1.1" id="Layer_1" xmlns="http://www.w3.org/2000/svg" xmlns:xlink="http://www.w3.org/1999/xlink" x="0px" y="0px"
	 viewBox="0 0 790.32 96.15" style="enable-background:new 0 0 790.32 96.15;" xml:space="preserve">
<style type="text/css">
	.st0{fill:none;}
</style>
<path d="M384.59,91.84h15.9c4.66,0,9.12-0.78,13.25-2.33c4.17-1.55,7.85-3.9,10.95-6.98c3.09-3.07,5.56-6.88,7.34-11.34
	c1.77-4.44,2.67-9.63,2.67-15.42c0-5.1-0.85-9.86-2.51-14.14c-1.67-4.29-4.06-8.04-7.08-11.15c-3.03-3.11-6.68-5.56-10.85-7.28
	c-4.17-1.72-8.77-2.59-13.69-2.59h-15.96v71.23H384.59z M374.54,94.32V18.08h24.86c7.98,0,14.93,0.75,20.65,2.23
	c5.61,1.45,10.33,3.79,14.03,6.97c4.27,3.66,7.53,7.91,9.68,12.63S447,49.87,447,55.48c0,5.36-0.98,10.45-2.91,15.15
	c-1.92,4.67-4.77,8.81-8.48,12.29c-3.72,3.49-8.4,6.29-13.9,8.32c-5.53,2.04-11.97,3.08-19.14,3.08H374.54z"/>
<polygon points="78.03,94.32 78.03,18.08 130.03,18.08 130.03,19.89 88.07,19.89 88.07,51.69 116.16,51.69 116.16,53.51 
	88.07,53.51 88.07,92.5 130.03,92.5 130.03,94.32 "/>
<polygon points="226.98,94.32 226.98,18.08 278.97,18.08 278.97,19.89 237.02,19.89 237.02,51.69 265.11,51.69 265.11,53.51 
	237.02,53.51 237.02,92.5 278.97,92.5 278.97,94.32 "/>
<rect x="572.66" y="18.07" width="10.04" height="76.24"/>
<rect x="468.26" y="18.07" width="10.04" height="76.24"/>
<polygon points="353.17,95.25 296.69,30.55 293.78,27.35 293.78,93.39 291.06,93.39 291.06,17.15 296.15,17.15 348.31,75.36 
	351.32,79.05 351.32,17.15 353.86,17.15 353.86,95.25 "/>
<path d="M515.09,55.89l1.13,0.39c1.59,0.54,3.3,1,5.08,1.35c1.81,0.36,3.7,0.54,5.6,0.54c3.08,0,5.84-0.47,8.18-1.41
	c2.37-0.94,4.39-2.27,5.99-3.94s2.81-3.65,3.58-5.89c0.76-2.19,1.14-4.54,1.14-7c0-2.89-0.51-5.56-1.51-7.92
	c-1.01-2.36-2.42-4.42-4.2-6.11s-3.88-3.01-6.25-3.92c-2.36-0.91-4.91-1.37-7.59-1.37h-11.15L515.09,55.89L515.09,55.89z
	 M505.05,94.32V18.08h23.54c3.99,0,7.78,0.48,11.26,1.44c3.43,0.94,6.46,2.34,8.98,4.16c2.48,1.78,4.46,4,5.87,6.58
	c1.4,2.56,2.11,5.55,2.11,8.89c0,3.3-0.69,6.19-2.04,8.61c-1.37,2.45-3.21,4.51-5.46,6.12c-2.29,1.64-4.93,2.88-7.84,3.68
	c-2.96,0.82-6.02,1.23-9.1,1.23c-1.37,0-2.82-0.03-4.32-0.09c-1.49-0.06-2.94-0.15-4.3-0.27c-1.38-0.12-2.67-0.26-3.82-0.41
	s-2.1-0.31-2.82-0.46l-2.02-0.43v37.18h-10.04V94.32z"/>
<path d="M160.52,56.25h9.41c3.16,0,6.13-0.43,8.82-1.28c2.72-0.86,5.12-2.09,7.13-3.67c2.04-1.61,3.66-3.58,4.81-5.88
	c1.15-2.31,1.74-4.92,1.74-7.77c0-2.6-0.46-5.04-1.35-7.23c-0.91-2.21-2.21-4.13-3.88-5.71c-1.65-1.57-3.64-2.8-5.89-3.67
	c-2.24-0.87-4.72-1.31-7.36-1.31h-13.43L160.52,56.25L160.52,56.25z M200.07,94.32L172.4,56.93h-11.88v37.39h-10.04V18.08h25.94
	c4.58,0,8.65,0.49,12.09,1.47c3.38,0.96,6.22,2.31,8.44,4.01c2.18,1.67,3.84,3.68,4.94,5.97c1.1,2.3,1.67,4.86,1.67,7.59
	c0,2.24-0.43,4.35-1.27,6.3c-0.86,1.96-2.08,3.76-3.63,5.35c-1.57,1.61-3.5,3.02-5.73,4.19c-2.27,1.19-4.81,2.14-7.55,2.83
	l-2.45,0.61l28.49,37.93L200.07,94.32L200.07,94.32z"/>
<path d="M769.28,16.23h2.65c0.89,0,1.72-0.12,2.48-0.36c0.77-0.24,1.44-0.59,2.01-1.03c0.57-0.45,1.03-1.01,1.35-1.65
	c0.32-0.65,0.49-1.38,0.49-2.19c0-0.73-0.13-1.42-0.38-2.04c-0.26-0.62-0.62-1.16-1.09-1.6c-0.47-0.44-1.02-0.79-1.66-1.03
	c-0.63-0.25-1.33-0.37-2.07-0.37h-3.78L769.28,16.23L769.28,16.23z M780.4,26.93l-7.78-10.51h-3.34v10.51h-2.82V5.5h7.29
	c1.29,0,2.43,0.14,3.4,0.41c0.95,0.27,1.75,0.65,2.37,1.13c0.61,0.47,1.08,1.03,1.39,1.68c0.31,0.65,0.47,1.37,0.47,2.13
	c0,0.63-0.12,1.22-0.36,1.77s-0.58,1.06-1.02,1.5c-0.44,0.45-0.98,0.85-1.61,1.18c-0.64,0.33-1.35,0.6-2.12,0.79l-0.69,0.17
	l8.01,10.67C783.59,26.93,780.4,26.93,780.4,26.93z"/>
<path d="M26.01,96.15c-3.67,0-6.97-0.4-9.81-1.2c-2.81-0.79-5.32-1.94-7.45-3.42c-2.13-1.48-3.99-3.32-5.51-5.45
	c-1.26-1.77-2.35-3.78-3.25-6l4.02-1.66c0.81,2.08,1.82,4,3.01,5.71c1.51,2.17,3.3,4.05,5.31,5.57c2.02,1.52,4.29,2.71,6.76,3.52
	c2.46,0.81,5.11,1.22,7.88,1.22c2.11,0,4.22-0.29,6.27-0.87c2.09-0.59,4-1.47,5.67-2.64c1.71-1.19,3.1-2.67,4.14-4.42
	c1.07-1.8,1.62-3.89,1.62-6.23c0-2.76-0.73-5.27-2.17-7.44c-1.35-2.04-3.14-3.93-5.32-5.62c-2.11-1.63-4.54-3.19-7.23-4.62
	c-2.6-1.39-5.3-2.81-8.03-4.21c-2.7-1.39-5.36-2.86-7.93-4.37c-2.5-1.47-4.76-3.13-6.7-4.94c-1.9-1.76-3.45-3.76-4.62-5.93
	c-1.12-2.08-1.69-4.53-1.69-7.28c0-2.79,0.53-5.42,1.57-7.79c1.04-2.36,2.57-4.43,4.58-6.16c2.03-1.75,4.57-3.14,7.57-4.15
	c3.03-1.02,6.58-1.53,10.54-1.53c3.6,0,6.84,0.38,9.65,1.14c2.76,0.75,5.21,1.86,7.28,3.3c2.06,1.44,3.84,3.23,5.28,5.33
	c1.22,1.78,2.25,3.82,3.09,6.09l-3.81,1.74c-0.73-1.89-1.6-3.66-2.6-5.29c-1.33-2.17-2.94-4.05-4.79-5.6
	c-1.87-1.57-4.05-2.79-6.5-3.63c-2.43-0.84-5.19-1.26-8.2-1.26c-2.7,0-5.12,0.39-7.18,1.15c-2.07,0.78-3.84,1.81-5.25,3.09
	c-1.43,1.29-2.52,2.78-3.23,4.41c-0.71,1.63-1.07,3.32-1.07,5.02c0,2.44,0.76,4.7,2.25,6.72c1.38,1.88,3.22,3.65,5.47,5.28
	c2.17,1.58,4.67,3.12,7.43,4.59c2.71,1.44,5.46,2.91,8.26,4.38c2.75,1.45,5.5,3,8.18,4.58c2.59,1.54,4.94,3.24,6.97,5.06
	c1.97,1.77,3.57,3.73,4.76,5.82c1.13,2,1.7,4.28,1.7,6.77c0,2.92-0.56,5.69-1.66,8.25c-1.09,2.53-2.76,4.77-4.96,6.66
	c-2.23,1.91-5.05,3.45-8.39,4.58C34.53,95.57,30.53,96.15,26.01,96.15"/>
<polygon points="626.51,94.32 626.51,19.89 597.7,19.89 597.7,18.08 665.37,18.08 665.37,19.89 636.56,19.89 636.56,94.32 "/>
<polygon points="709.74,94.32 709.74,62.34 679.43,18.08 689.06,18.08 717.55,59.7 745.92,18.08 749.14,18.08 719.78,61.08 
	719.78,94.32 "/>
<path d="M774.1,1.07c-8.35,0-15.14,6.79-15.14,15.14s6.79,15.14,15.14,15.14c8.35,0,15.14-6.79,15.14-15.14S782.45,1.07,774.1,1.07
	 M774.1,32.43c-8.94,0-16.22-7.27-16.22-16.22C757.89,7.27,765.16,0,774.1,0s16.21,7.27,16.21,16.21
	C790.32,25.16,783.04,32.43,774.1,32.43"/>
<rect x="398.53" y="18.08" class="st0" width="0.87" height="2.85"/>
</svg>
