<?xml version="1.0" encoding="utf-8"?>
<!-- Generator: Adobe Illustrator 27.0.0, SVG Export Plug-In . SVG Version: 6.00 Build 0)  -->
<svg version="1.1" id="Layer_1" xmlns="http://www.w3.org/2000/svg" xmlns:xlink="http://www.w3.org/1999/xlink" x="0px" y="0px"
	 viewBox="0 0 427.23 427.14" style="enable-background:new 0 0 427.23 427.14;" xml:space="preserve">
<style type="text/css">
	.st0{fill:#CB1A1D;}
</style>
<g>
	<path class="st0" d="M216.64,10.62c0.02,0.13,0.05,0.31,0.1,0.53s0.12,0.45,0.22,0.7c0.1,0.25,0.22,0.51,0.37,0.78
		c0.15,0.26,0.34,0.51,0.57,0.74c0.25,0.26,0.49,0.46,0.72,0.6c0.23,0.14,0.46,0.24,0.67,0.31c0.21,0.07,0.42,0.11,0.61,0.12
		s0.37,0.02,0.54,0.02c0.59,0.02,1.07-0.06,1.45-0.23c0.38-0.17,0.68-0.38,0.91-0.64c0.22-0.26,0.38-0.53,0.48-0.82
		c0.1-0.29,0.15-0.55,0.16-0.77c0.01-0.41-0.07-0.75-0.26-1.02c-0.19-0.27-0.44-0.5-0.75-0.69s-0.68-0.35-1.08-0.48
		c-0.41-0.13-0.82-0.27-1.25-0.41c-0.43-0.14-0.84-0.3-1.25-0.49c-0.4-0.18-0.76-0.42-1.07-0.7s-0.56-0.62-0.74-1.03
		c-0.18-0.4-0.26-0.9-0.24-1.5c0.01-0.44,0.13-0.86,0.34-1.27c0.21-0.4,0.5-0.76,0.86-1.06s0.79-0.54,1.29-0.72s1.03-0.26,1.61-0.24
		c0.36,0.01,0.68,0.05,0.96,0.13c0.27,0.08,0.52,0.15,0.72,0.23c0.21,0.08,0.39,0.15,0.55,0.23c0.16,0.07,0.3,0.11,0.44,0.11
		c0.15,0,0.26-0.02,0.31-0.06c0.05-0.05,0.11-0.14,0.17-0.27l0.27,0.01l-0.1,3.15l-0.22-0.01c-0.12-0.39-0.25-0.78-0.39-1.16
		c-0.14-0.38-0.32-0.73-0.54-1.04c-0.22-0.31-0.51-0.57-0.86-0.77c-0.35-0.2-0.79-0.31-1.33-0.32c-0.44-0.01-0.83,0.03-1.17,0.15
		c-0.34,0.11-0.63,0.26-0.87,0.45c-0.24,0.19-0.42,0.41-0.55,0.65c-0.13,0.24-0.2,0.49-0.21,0.74c-0.01,0.39,0.08,0.71,0.28,0.97
		c0.2,0.26,0.46,0.49,0.78,0.68c0.33,0.19,0.7,0.36,1.12,0.51c0.42,0.15,0.85,0.3,1.3,0.46c0.44,0.16,0.87,0.33,1.29,0.51
		c0.42,0.19,0.79,0.42,1.12,0.69s0.58,0.61,0.77,0.99c0.19,0.38,0.28,0.85,0.26,1.4c-0.02,0.54-0.14,1.05-0.38,1.53
		s-0.56,0.9-0.98,1.25c-0.41,0.35-0.9,0.63-1.47,0.82c-0.57,0.2-1.19,0.29-1.88,0.26c-0.34-0.01-0.68-0.05-1.02-0.13
		c-0.34-0.08-0.65-0.16-0.94-0.24c-0.29-0.08-0.55-0.16-0.77-0.23c-0.23-0.07-0.39-0.11-0.5-0.12c-0.16,0-0.27,0.02-0.33,0.06
		c-0.07,0.05-0.13,0.15-0.19,0.3l-0.27-0.01l0.12-3.68L216.64,10.62z"/>
</g>
<g>
	<path class="st0" d="M237.98,3.85l-0.27,2.82l-0.21-0.02c-0.04-0.19-0.11-0.44-0.21-0.75s-0.26-0.61-0.47-0.9
		c-0.21-0.3-0.49-0.57-0.85-0.81c-0.36-0.24-0.8-0.38-1.34-0.44L232,3.51l-0.49,5.1l0.92,0.09c0.41,0.04,0.76,0.01,1.05-0.08
		c0.29-0.09,0.54-0.23,0.75-0.43c0.21-0.2,0.39-0.44,0.54-0.73c0.15-0.29,0.28-0.62,0.39-0.99l0.21,0.02l-0.49,5.14l-0.21-0.02
		c-0.05-0.33-0.11-0.64-0.18-0.95c-0.08-0.31-0.19-0.58-0.35-0.82c-0.16-0.24-0.36-0.44-0.6-0.6c-0.25-0.16-0.56-0.25-0.95-0.29
		l-1.11-0.11l-0.57,5.96l2.71,0.26c0.51,0.05,0.97,0.01,1.4-0.13c0.42-0.13,0.81-0.34,1.15-0.62c0.34-0.28,0.64-0.61,0.89-1.01
		c0.25-0.39,0.45-0.82,0.61-1.28l0.21,0.02l-0.34,3.62l-10.55-1l0.02-0.23l1.52,0.14l1.08-11.3l-1.52-0.14l0.02-0.23L237.98,3.85z"
		/>
</g>
<g>
	<path class="st0" d="M241.09,4.42l0.04-0.23l2.47,0.39c0.46,0.07,0.91,0.14,1.36,0.19c0.45,0.06,0.9,0.12,1.36,0.19
		c0.43,0.07,0.87,0.18,1.33,0.35c0.46,0.16,0.87,0.38,1.23,0.66c0.36,0.28,0.64,0.61,0.84,1.02c0.2,0.4,0.25,0.88,0.17,1.42
		c-0.07,0.44-0.23,0.8-0.47,1.08s-0.54,0.49-0.88,0.64c-0.34,0.15-0.71,0.24-1.11,0.28c-0.4,0.04-0.79,0.05-1.16,0.02l-0.01,0.08
		c0.52,0.18,0.98,0.36,1.39,0.52s0.75,0.37,1.02,0.62s0.47,0.56,0.6,0.94c0.12,0.38,0.16,0.87,0.11,1.46
		c-0.06,0.7-0.1,1.26-0.13,1.68c-0.03,0.42-0.04,0.75-0.01,0.99c0.02,0.24,0.08,0.41,0.17,0.5s0.24,0.16,0.43,0.19
		c0.22,0.03,0.41,0,0.57-0.1c0.16-0.1,0.31-0.2,0.43-0.29l0.14,0.17c-0.13,0.09-0.25,0.18-0.37,0.25c-0.12,0.08-0.25,0.14-0.4,0.18
		c-0.15,0.04-0.32,0.07-0.52,0.08c-0.2,0.01-0.45-0.01-0.75-0.06c-0.6-0.1-1.05-0.27-1.36-0.51c-0.31-0.25-0.52-0.52-0.64-0.83
		c-0.12-0.31-0.17-0.63-0.16-0.97c0.01-0.34,0.04-0.66,0.08-0.95c0.05-0.45,0.09-0.89,0.12-1.32c0.03-0.43,0-0.82-0.09-1.17
		s-0.26-0.65-0.51-0.89c-0.25-0.24-0.64-0.4-1.15-0.49l-1.08-0.17l-0.94,5.91l1.51,0.24l-0.04,0.23l-5.39-0.86l0.04-0.23l1.51,0.24
		l1.78-11.21L241.09,4.42z M244.84,10.21c0.49,0.08,0.89,0.07,1.19-0.01c0.3-0.09,0.55-0.23,0.72-0.43c0.18-0.2,0.31-0.44,0.39-0.72
		c0.08-0.28,0.15-0.56,0.19-0.86c0.08-0.48,0.11-0.9,0.1-1.25c-0.01-0.35-0.08-0.66-0.19-0.9c-0.12-0.25-0.3-0.45-0.55-0.6
		c-0.25-0.15-0.58-0.26-1-0.33c-0.12-0.02-0.24-0.03-0.36-0.04c-0.12-0.01-0.24-0.02-0.37-0.02l-0.81,5.06L244.84,10.21z"/>
</g>
<g>
	<path class="st0" d="M263.79,8.47l-0.62,2.77l-0.21-0.05c-0.01-0.2-0.05-0.45-0.12-0.77c-0.06-0.32-0.18-0.63-0.35-0.96
		c-0.17-0.32-0.42-0.62-0.74-0.91c-0.32-0.28-0.75-0.48-1.28-0.6l-2.57-0.58l-1.12,5l0.91,0.2c0.4,0.09,0.75,0.11,1.05,0.06
		c0.3-0.05,0.57-0.16,0.8-0.33c0.23-0.17,0.44-0.39,0.62-0.66c0.19-0.27,0.36-0.58,0.52-0.93l0.21,0.05l-1.13,5.04l-0.21-0.05
		c-0.01-0.33-0.03-0.65-0.06-0.97c-0.04-0.31-0.12-0.6-0.24-0.86c-0.12-0.26-0.3-0.48-0.52-0.67c-0.22-0.19-0.53-0.32-0.9-0.41
		l-1.08-0.24l-1.31,5.84l2.66,0.59c0.5,0.11,0.96,0.13,1.4,0.05c0.44-0.08,0.84-0.23,1.22-0.47c0.38-0.23,0.71-0.53,1.01-0.89
		c0.3-0.36,0.55-0.76,0.76-1.2l0.21,0.05l-0.8,3.54l-10.34-2.32l0.05-0.23l1.49,0.33l2.48-11.07l-1.49-0.33l0.05-0.23L263.79,8.47z"
		/>
</g>
<g>
	<path class="st0" d="M270.61,10.27l3.1,9.13l0.03,0.01l2.14-7.36l-1.47-0.43l0.06-0.22l3.19,0.93l-0.06,0.22l-1.47-0.43
		l-3.23,11.12l-0.43-0.13l-4.2-12.3l-0.03-0.01l-2.9,9.99l1.47,0.43l-0.06,0.22l-3.19-0.93l0.06-0.22l1.47,0.43l3.17-10.9
		l-1.47-0.43l0.06-0.22L270.61,10.27z"/>
</g>
<g>
	<path class="st0" d="M279.61,13.19l0.08-0.22l1.44,0.52c0.53,0.19,1.07,0.37,1.6,0.55s1.07,0.36,1.6,0.55
		c0.47,0.17,0.95,0.38,1.45,0.63c0.5,0.25,0.97,0.55,1.43,0.89c0.45,0.34,0.86,0.73,1.22,1.17c0.36,0.44,0.64,0.92,0.85,1.47
		c0.21,0.54,0.31,1.14,0.31,1.79c0,0.65-0.13,1.36-0.41,2.13c-0.27,0.76-0.62,1.39-1.03,1.89c-0.41,0.5-0.87,0.89-1.37,1.18
		c-0.5,0.29-1.02,0.49-1.56,0.6s-1.09,0.16-1.63,0.15s-1.06-0.07-1.56-0.18s-0.95-0.23-1.35-0.38c-0.59-0.21-1.18-0.43-1.77-0.65
		c-0.58-0.22-1.17-0.44-1.77-0.65l-1.44-0.52l0.08-0.22l1.44,0.52l3.84-10.68L279.61,13.19z M280.28,25.54
		c0.68,0.24,1.28,0.37,1.82,0.38c0.54,0.01,1.02-0.06,1.45-0.22c0.43-0.16,0.8-0.38,1.12-0.66c0.32-0.28,0.6-0.6,0.84-0.96
		c0.24-0.35,0.44-0.72,0.62-1.1c0.17-0.38,0.32-0.74,0.44-1.08c0.3-0.84,0.53-1.62,0.67-2.34s0.14-1.38,0.01-1.97
		c-0.13-0.59-0.43-1.12-0.9-1.58s-1.15-0.85-2.05-1.18c-0.21-0.07-0.4-0.14-0.56-0.19c-0.17-0.05-0.31-0.09-0.42-0.11l-3.84,10.68
		C279.76,25.34,280.03,25.45,280.28,25.54z"/>
</g>
<g>
	<path class="st0" d="M298.53,20.27l-0.09,0.21l-1.4-0.6l-4.48,10.42l1.4,0.6l-0.09,0.21l-5.01-2.16l0.09-0.21l1.4,0.6l4.48-10.42
		l-1.4-0.6l0.09-0.21L298.53,20.27z"/>
</g>
<g>
	<path class="st0" d="M300.32,33.85l-0.1,0.21l-4.93-2.34l0.1-0.21l1.38,0.65l4.86-10.25l-1.38-0.65l0.1-0.21l1.38,0.65
		c0.51,0.24,1.02,0.48,1.54,0.7c0.52,0.23,1.03,0.46,1.54,0.7c0.45,0.21,0.92,0.48,1.4,0.8c0.48,0.32,0.9,0.69,1.24,1.1
		c0.34,0.41,0.57,0.87,0.7,1.38c0.12,0.5,0.04,1.05-0.23,1.63c-0.19,0.39-0.45,0.71-0.81,0.97s-0.79,0.42-1.3,0.49
		c-0.51,0.07-1.1,0.04-1.76-0.09c-0.66-0.13-1.39-0.38-2.19-0.76l-0.62-0.29l-2.31,4.87L300.32,33.85z M301.82,28.33
		c0.85,0.4,1.56,0.5,2.12,0.3c0.56-0.21,1.06-0.77,1.5-1.69c0.41-0.87,0.56-1.61,0.45-2.23c-0.11-0.62-0.6-1.13-1.47-1.54
		c-0.11-0.05-0.22-0.1-0.32-0.13c-0.11-0.04-0.2-0.07-0.29-0.1l-2.45,5.17L301.82,28.33z"/>
</g>
<g>
	<path class="st0" d="M315.74,28.78l-0.11,0.21l-1.35-0.72l-5.36,10l1.35,0.72l-0.11,0.2l-4.81-2.58l0.11-0.21l1.35,0.72l5.36-10
		l-1.35-0.72l0.11-0.2L315.74,28.78z"/>
</g>
<g>
	<path class="st0" d="M320.5,31.79c-0.35-0.21-0.69-0.36-1-0.46c-0.32-0.09-0.64-0.12-0.96-0.07c-0.32,0.04-0.66,0.17-1.02,0.38
		c-0.36,0.21-0.75,0.52-1.19,0.91l-0.18-0.11l1.56-2.6l8.92,5.35l-1.56,2.6l-0.18-0.11c0.15-0.57,0.23-1.06,0.25-1.48
		c0.02-0.42-0.03-0.78-0.14-1.08c-0.11-0.31-0.29-0.58-0.52-0.81s-0.52-0.46-0.88-0.67l-0.51-0.31l-5.83,9.73l1.31,0.79l-0.12,0.2
		l-4.68-2.81l0.12-0.2l1.31,0.79l5.83-9.73L320.5,31.79z"/>
</g>
<g>
	<path class="st0" d="M332.3,39.01l-0.13,0.19l-1.08-0.74l-0.48,6.69l5.79-3.05l-1.19-0.81l0.13-0.19l2.62,1.79l-0.13,0.19
		l-1.19-0.82l-6.08,3.22l-2.97,4.34l1.27,0.87l-0.13,0.19l-4.52-3.09l0.13-0.19l1.26,0.86l2.61-3.82l0.62-7.72l-1.07-0.73l0.13-0.19
		L332.3,39.01z"/>
</g>
<g>
	<path class="st0" d="M346.36,60.01c-0.07,0.11-0.16,0.27-0.26,0.47c-0.1,0.2-0.2,0.42-0.29,0.68c-0.09,0.26-0.16,0.53-0.21,0.83
		c-0.05,0.3-0.07,0.61-0.04,0.93c0.02,0.36,0.07,0.67,0.16,0.93c0.09,0.26,0.19,0.48,0.31,0.67c0.12,0.19,0.25,0.35,0.39,0.48
		c0.14,0.13,0.27,0.26,0.4,0.37c0.44,0.39,0.86,0.64,1.26,0.76c0.4,0.12,0.77,0.15,1.11,0.09c0.34-0.05,0.64-0.16,0.9-0.32
		c0.26-0.16,0.47-0.32,0.61-0.49c0.27-0.3,0.43-0.62,0.46-0.95c0.03-0.33-0.01-0.66-0.13-1.01c-0.12-0.35-0.29-0.7-0.52-1.07
		s-0.45-0.74-0.69-1.12c-0.24-0.38-0.45-0.78-0.64-1.18c-0.19-0.4-0.31-0.81-0.37-1.23s-0.03-0.84,0.1-1.26
		c0.12-0.43,0.38-0.86,0.78-1.31c0.29-0.33,0.65-0.58,1.08-0.75c0.42-0.17,0.87-0.26,1.34-0.25c0.47,0,0.96,0.1,1.45,0.28
		c0.5,0.18,0.96,0.47,1.39,0.85c0.27,0.24,0.49,0.48,0.65,0.72c0.16,0.23,0.3,0.45,0.4,0.64s0.2,0.37,0.27,0.53
		c0.08,0.16,0.16,0.28,0.26,0.37c0.12,0.1,0.21,0.15,0.28,0.15s0.17-0.04,0.3-0.1l0.2,0.18l-2.11,2.35l-0.16-0.14
		c0.16-0.38,0.31-0.75,0.45-1.13c0.14-0.38,0.23-0.76,0.26-1.14c0.03-0.38-0.02-0.76-0.16-1.14c-0.14-0.38-0.41-0.75-0.81-1.11
		c-0.33-0.3-0.66-0.51-0.99-0.65c-0.33-0.14-0.65-0.21-0.96-0.21c-0.31-0.01-0.59,0.04-0.84,0.14s-0.46,0.24-0.63,0.43
		c-0.26,0.29-0.4,0.59-0.41,0.92c-0.02,0.33,0.04,0.67,0.16,1.03c0.12,0.36,0.3,0.73,0.53,1.11c0.23,0.38,0.46,0.78,0.7,1.18
		c0.24,0.41,0.46,0.81,0.66,1.23c0.2,0.41,0.34,0.83,0.41,1.25c0.07,0.42,0.05,0.84-0.04,1.25c-0.1,0.42-0.33,0.83-0.7,1.24
		c-0.36,0.4-0.79,0.71-1.28,0.93c-0.49,0.21-1.01,0.32-1.55,0.32c-0.54,0-1.1-0.1-1.66-0.32c-0.56-0.21-1.09-0.55-1.61-1.01
		c-0.25-0.23-0.49-0.48-0.69-0.75c-0.21-0.28-0.4-0.54-0.57-0.79c-0.17-0.25-0.32-0.47-0.44-0.68c-0.12-0.2-0.23-0.34-0.31-0.41
		c-0.12-0.1-0.21-0.16-0.3-0.17s-0.2,0.03-0.34,0.11l-0.2-0.18l2.46-2.74L346.36,60.01z"/>
</g>
<g>
	<path class="st0" d="M367.03,68.52l-2.02,1.99l-0.15-0.15c0.09-0.17,0.2-0.41,0.31-0.71s0.19-0.63,0.22-1
		c0.03-0.36-0.02-0.75-0.13-1.16c-0.12-0.41-0.37-0.81-0.75-1.2l-1.85-1.88l-3.65,3.6l0.65,0.66c0.29,0.29,0.57,0.5,0.85,0.62
		s0.56,0.17,0.85,0.15c0.29-0.02,0.58-0.09,0.88-0.22s0.61-0.3,0.94-0.5l0.15,0.15l-3.67,3.63l-0.15-0.15
		c0.17-0.28,0.33-0.56,0.47-0.85c0.14-0.29,0.23-0.57,0.26-0.85c0.04-0.29,0.01-0.57-0.08-0.85c-0.09-0.28-0.27-0.55-0.54-0.83
		l-0.78-0.79l-4.26,4.21l1.91,1.94c0.36,0.36,0.74,0.63,1.15,0.8c0.41,0.17,0.83,0.26,1.28,0.26c0.44,0.01,0.88-0.06,1.33-0.2
		c0.44-0.14,0.87-0.34,1.29-0.6l0.15,0.15l-2.58,2.55l-7.45-7.54l0.17-0.16l1.07,1.08l8.07-7.98l-1.07-1.08l0.17-0.16L367.03,68.52z
		"/>
</g>
<g>
	<path class="st0" d="M368.98,70.95l0.17-0.15l1.65,1.88c0.31,0.35,0.62,0.69,0.93,1.02s0.62,0.67,0.93,1.02
		c0.28,0.33,0.55,0.7,0.8,1.12c0.25,0.42,0.43,0.85,0.53,1.29c0.1,0.44,0.1,0.88,0,1.32c-0.1,0.44-0.36,0.84-0.78,1.2
		c-0.33,0.29-0.68,0.47-1.05,0.53c-0.37,0.06-0.73,0.03-1.09-0.07c-0.36-0.11-0.7-0.27-1.04-0.49c-0.33-0.22-0.64-0.46-0.91-0.72
		l-0.06,0.05c0.28,0.47,0.53,0.9,0.73,1.29c0.21,0.39,0.34,0.76,0.39,1.12c0.05,0.36,0.01,0.73-0.14,1.1
		c-0.15,0.37-0.43,0.77-0.85,1.2c-0.49,0.5-0.88,0.9-1.17,1.2c-0.29,0.3-0.51,0.55-0.64,0.75c-0.13,0.2-0.2,0.36-0.19,0.49
		c0.01,0.13,0.08,0.27,0.21,0.42c0.15,0.17,0.31,0.26,0.5,0.29c0.19,0.02,0.36,0.04,0.52,0.05l0,0.22c-0.16-0.01-0.3-0.02-0.44-0.04
		c-0.14-0.02-0.28-0.06-0.42-0.12c-0.14-0.06-0.29-0.15-0.45-0.28c-0.16-0.12-0.34-0.3-0.54-0.52c-0.4-0.46-0.64-0.88-0.72-1.26
		c-0.08-0.39-0.07-0.74,0.04-1.05c0.11-0.31,0.27-0.6,0.5-0.85c0.23-0.25,0.45-0.48,0.67-0.69c0.33-0.32,0.64-0.63,0.93-0.94
		c0.29-0.31,0.52-0.63,0.67-0.96c0.16-0.33,0.21-0.66,0.17-1.01c-0.04-0.35-0.23-0.72-0.57-1.11l-0.72-0.82l-4.5,3.95l1.01,1.15
		l-0.17,0.15l-3.6-4.1l0.17-0.15l1.01,1.15l8.53-7.48L368.98,70.95z M368.17,77.8c0.33,0.37,0.64,0.62,0.93,0.75
		c0.29,0.13,0.57,0.17,0.83,0.13c0.26-0.04,0.52-0.14,0.76-0.3c0.24-0.16,0.47-0.34,0.7-0.54c0.37-0.32,0.66-0.62,0.88-0.9
		s0.36-0.55,0.43-0.82c0.07-0.27,0.06-0.54-0.04-0.81c-0.1-0.28-0.28-0.57-0.56-0.89c-0.08-0.09-0.17-0.18-0.25-0.26
		c-0.09-0.08-0.18-0.17-0.27-0.25l-3.85,3.38L368.17,77.8z"/>
</g>
<g>
	<path class="st0" d="M383.79,88.57l-2.24,1.74l-0.13-0.17c0.11-0.16,0.25-0.38,0.4-0.67c0.15-0.28,0.26-0.61,0.33-0.96
		s0.07-0.75,0.01-1.17c-0.07-0.42-0.27-0.85-0.6-1.28l-1.62-2.08l-4.05,3.14l0.57,0.73c0.25,0.32,0.51,0.56,0.77,0.71
		c0.26,0.15,0.54,0.23,0.83,0.25c0.29,0.02,0.59-0.02,0.9-0.11c0.31-0.09,0.64-0.22,0.99-0.39l0.13,0.17L376,91.65l-0.13-0.17
		c0.21-0.26,0.39-0.52,0.57-0.79c0.17-0.27,0.29-0.54,0.36-0.82c0.07-0.28,0.08-0.56,0.02-0.85c-0.05-0.29-0.2-0.58-0.44-0.89
		l-0.68-0.88l-4.73,3.67l1.67,2.15c0.31,0.4,0.66,0.71,1.05,0.93c0.39,0.22,0.8,0.36,1.24,0.42c0.44,0.06,0.89,0.04,1.34-0.04
		c0.46-0.09,0.91-0.23,1.35-0.44l0.13,0.17l-2.87,2.23l-6.5-8.38l0.18-0.14l0.94,1.21l8.96-6.96l-0.94-1.21l0.18-0.14L383.79,88.57z
		"/>
</g>
<g>
	<path class="st0" d="M387.91,94.46l-3.5,8.98l0.02,0.03l6.38-4.25l-0.85-1.27l0.19-0.13l1.84,2.76l-0.19,0.13l-0.85-1.27
		l-9.63,6.42l-0.25-0.37l4.71-12.11l-0.02-0.03l-8.65,5.77l0.85,1.27l-0.19,0.13l-1.84-2.76l0.19-0.13l0.85,1.27l9.44-6.3
		l-0.85-1.27l0.19-0.13L387.91,94.46z"/>
</g>
<g>
	<path class="st0" d="M392.93,102.46l0.2-0.12l0.77,1.32c0.28,0.49,0.58,0.97,0.87,1.45c0.3,0.48,0.59,0.96,0.87,1.45
		c0.25,0.43,0.49,0.9,0.71,1.41c0.22,0.51,0.39,1.04,0.52,1.6c0.12,0.55,0.19,1.11,0.18,1.68c0,0.57-0.1,1.12-0.29,1.67
		c-0.19,0.55-0.5,1.07-0.91,1.57c-0.41,0.5-0.98,0.95-1.68,1.37c-0.7,0.41-1.36,0.67-2,0.78c-0.64,0.12-1.24,0.12-1.81,0.03
		c-0.57-0.1-1.1-0.28-1.58-0.54c-0.49-0.27-0.94-0.58-1.34-0.94s-0.77-0.74-1.08-1.14s-0.58-0.79-0.79-1.16
		c-0.32-0.54-0.63-1.09-0.93-1.63c-0.31-0.55-0.62-1.09-0.93-1.64l-0.77-1.32l0.2-0.12l0.77,1.32l9.8-5.72L392.93,102.46z
		 M385.51,112.35c0.36,0.62,0.75,1.11,1.15,1.46s0.82,0.61,1.25,0.76c0.43,0.15,0.86,0.22,1.28,0.21c0.43-0.01,0.85-0.08,1.26-0.2
		c0.41-0.12,0.8-0.27,1.18-0.45c0.38-0.18,0.72-0.36,1.04-0.55c0.77-0.45,1.45-0.91,2.02-1.37c0.57-0.46,1-0.96,1.28-1.5
		s0.39-1.14,0.33-1.79c-0.06-0.65-0.33-1.39-0.82-2.22c-0.11-0.19-0.21-0.36-0.31-0.51c-0.09-0.15-0.18-0.27-0.25-0.35l-9.8,5.72
		C385.24,111.86,385.37,112.12,385.51,112.35z"/>
</g>
<g>
	<path class="st0" d="M402.88,120.03l-0.21,0.1l-0.69-1.36l-10.13,5.11l0.69,1.36l-0.21,0.1l-2.46-4.87l0.21-0.1l0.69,1.36
		l10.13-5.11l-0.69-1.36l0.21-0.1L402.88,120.03z"/>
</g>
<g>
	<path class="st0" d="M395.54,131.58l-0.21,0.1l-2.28-4.96l0.21-0.1l0.64,1.39l10.31-4.74l-0.64-1.39l0.21-0.1l0.64,1.39
		c0.24,0.51,0.48,1.02,0.73,1.53c0.25,0.51,0.49,1.02,0.73,1.53c0.21,0.45,0.39,0.96,0.56,1.51c0.16,0.56,0.25,1.1,0.24,1.64
		c0,0.54-0.12,1.04-0.35,1.5c-0.23,0.47-0.64,0.83-1.22,1.1c-0.39,0.18-0.81,0.25-1.24,0.22c-0.43-0.03-0.87-0.18-1.31-0.46
		c-0.44-0.27-0.87-0.67-1.29-1.2c-0.42-0.52-0.82-1.19-1.19-1.99l-0.28-0.62l-4.9,2.25L395.54,131.58z M400.23,128.31
		c0.39,0.85,0.87,1.38,1.43,1.59c0.56,0.2,1.31,0.09,2.23-0.33c0.87-0.4,1.47-0.88,1.78-1.42c0.31-0.54,0.26-1.25-0.14-2.13
		c-0.05-0.11-0.1-0.21-0.16-0.31c-0.06-0.1-0.11-0.18-0.16-0.26l-5.2,2.39L400.23,128.31z"/>
</g>
<g>
	<path class="st0" d="M410.62,137.6l-0.22,0.09l-0.57-1.42l-10.53,4.23l0.57,1.42l-0.22,0.09l-2.03-5.07l0.22-0.09l0.57,1.42
		l10.53-4.23l-0.57-1.42l0.22-0.09L410.62,137.6z"/>
</g>
<g>
	<path class="st0" d="M412.35,142.97c-0.13-0.39-0.29-0.72-0.48-0.99c-0.18-0.28-0.41-0.5-0.69-0.67c-0.28-0.17-0.62-0.29-1.03-0.36
		s-0.91-0.09-1.5-0.06l-0.07-0.2l2.87-0.99l3.4,9.83l-2.87,0.99l-0.07-0.2c0.48-0.34,0.86-0.67,1.14-0.97
		c0.28-0.31,0.47-0.62,0.59-0.92c0.11-0.31,0.15-0.63,0.13-0.96c-0.03-0.33-0.11-0.69-0.24-1.08l-0.19-0.56l-10.73,3.7l0.5,1.44
		l-0.22,0.08l-1.78-5.16l0.22-0.08l0.5,1.44l10.73-3.7L412.35,142.97z"/>
</g>
<g>
	<path class="st0" d="M416.77,156.11l-0.22,0.06l-0.35-1.26l-4.68,4.81l6.4,1.39l-0.39-1.39l0.22-0.06l0.85,3.05l-0.22,0.06
		l-0.39-1.39l-6.72-1.46l-5.07,1.41l0.41,1.49l-0.22,0.06l-1.46-5.28l0.22-0.06l0.41,1.47l4.46-1.24l5.45-5.5l-0.35-1.25l0.22-0.06
		L416.77,156.11z"/>
</g>
<g>
	<path class="st0" d="M414.07,181.25c-0.13,0.04-0.3,0.1-0.5,0.18c-0.21,0.08-0.43,0.19-0.66,0.33c-0.23,0.14-0.47,0.3-0.7,0.5
		c-0.24,0.19-0.45,0.42-0.64,0.68c-0.22,0.29-0.38,0.55-0.48,0.81c-0.1,0.25-0.17,0.49-0.2,0.71c-0.03,0.22-0.04,0.43-0.02,0.62
		s0.04,0.37,0.06,0.54c0.08,0.58,0.23,1.05,0.46,1.39c0.23,0.35,0.49,0.61,0.78,0.79c0.29,0.18,0.59,0.29,0.89,0.34
		c0.3,0.05,0.56,0.06,0.78,0.03c0.41-0.05,0.73-0.19,0.96-0.42c0.24-0.23,0.42-0.51,0.56-0.85c0.13-0.34,0.23-0.72,0.3-1.14
		s0.13-0.85,0.2-1.3c0.07-0.45,0.16-0.88,0.28-1.31c0.12-0.43,0.29-0.82,0.51-1.17c0.23-0.35,0.52-0.65,0.89-0.9
		c0.37-0.25,0.85-0.41,1.44-0.49c0.44-0.06,0.87-0.02,1.31,0.13c0.43,0.14,0.83,0.37,1.19,0.68c0.36,0.31,0.67,0.69,0.92,1.16
		c0.26,0.46,0.42,0.98,0.5,1.55c0.05,0.36,0.06,0.68,0.03,0.97s-0.07,0.53-0.11,0.75s-0.09,0.41-0.13,0.58
		c-0.04,0.17-0.06,0.32-0.04,0.45c0.02,0.15,0.06,0.25,0.11,0.29c0.06,0.04,0.15,0.08,0.29,0.12l0.04,0.26l-3.12,0.42l-0.03-0.21
		c0.37-0.18,0.73-0.37,1.08-0.57c0.35-0.2,0.66-0.43,0.94-0.7c0.27-0.27,0.48-0.59,0.62-0.97c0.14-0.38,0.17-0.83,0.1-1.37
		c-0.06-0.44-0.17-0.82-0.34-1.14c-0.17-0.32-0.36-0.58-0.59-0.78s-0.47-0.35-0.73-0.44c-0.26-0.09-0.51-0.12-0.76-0.08
		c-0.38,0.05-0.69,0.2-0.91,0.43s-0.41,0.53-0.54,0.88c-0.14,0.35-0.24,0.75-0.32,1.19c-0.08,0.44-0.15,0.89-0.24,1.35
		c-0.08,0.46-0.18,0.92-0.3,1.36s-0.28,0.85-0.5,1.21c-0.22,0.36-0.5,0.67-0.85,0.92c-0.35,0.25-0.79,0.42-1.34,0.49
		c-0.54,0.07-1.06,0.03-1.57-0.12c-0.51-0.16-0.98-0.41-1.39-0.76c-0.42-0.35-0.77-0.79-1.05-1.32c-0.29-0.53-0.48-1.13-0.57-1.81
		c-0.05-0.34-0.06-0.68-0.04-1.02c0.02-0.34,0.05-0.67,0.08-0.97c0.03-0.3,0.07-0.57,0.1-0.8c0.04-0.23,0.05-0.41,0.03-0.51
		c-0.02-0.15-0.06-0.26-0.12-0.32c-0.06-0.06-0.17-0.11-0.33-0.14l-0.04-0.26l3.65-0.49L414.07,181.25z"/>
</g>
<g>
	<path class="st0" d="M424.38,201l-2.83,0.23l-0.02-0.21c0.18-0.07,0.41-0.18,0.7-0.34s0.55-0.36,0.81-0.62
		c0.26-0.26,0.47-0.59,0.64-0.98c0.17-0.39,0.24-0.86,0.19-1.4l-0.22-2.63l-5.11,0.42l0.08,0.93c0.03,0.41,0.12,0.75,0.26,1.02
		c0.14,0.27,0.32,0.49,0.55,0.66c0.23,0.17,0.5,0.3,0.82,0.4c0.31,0.1,0.66,0.17,1.04,0.21l0.02,0.21l-5.14,0.42l-0.02-0.21
		c0.31-0.1,0.61-0.22,0.9-0.35c0.29-0.13,0.54-0.29,0.75-0.49c0.21-0.2,0.37-0.43,0.48-0.7c0.11-0.27,0.15-0.6,0.12-0.98l-0.09-1.11
		l-5.97,0.49l0.22,2.71c0.04,0.51,0.17,0.96,0.37,1.35c0.2,0.39,0.47,0.74,0.81,1.02c0.33,0.29,0.72,0.52,1.15,0.7
		c0.43,0.17,0.89,0.3,1.37,0.37l0.02,0.21l-3.62,0.3l-0.87-10.57l0.23-0.02l0.12,1.52l11.31-0.93l-0.13-1.52l0.23-0.02L424.38,201z"
		/>
</g>
<g>
	<path class="st0" d="M424.32,204.17l0.23,0l0.05,2.5c0.01,0.46,0.03,0.92,0.05,1.38c0.02,0.45,0.04,0.91,0.05,1.38
		c0.01,0.43-0.03,0.89-0.11,1.37c-0.08,0.48-0.22,0.92-0.43,1.33s-0.49,0.74-0.85,1c-0.36,0.27-0.82,0.41-1.37,0.42
		c-0.44,0.01-0.82-0.08-1.14-0.28c-0.32-0.19-0.58-0.45-0.79-0.76s-0.36-0.66-0.48-1.04c-0.11-0.39-0.19-0.77-0.23-1.14l-0.08,0
		c-0.09,0.54-0.18,1.03-0.27,1.46c-0.09,0.43-0.23,0.8-0.43,1.11s-0.46,0.57-0.82,0.75c-0.35,0.19-0.82,0.31-1.42,0.37
		c-0.7,0.07-1.25,0.12-1.67,0.16c-0.42,0.04-0.75,0.09-0.98,0.16s-0.38,0.15-0.46,0.26s-0.11,0.26-0.11,0.46
		c0,0.22,0.07,0.4,0.2,0.54c0.13,0.14,0.25,0.27,0.36,0.38l-0.15,0.17c-0.11-0.11-0.22-0.21-0.31-0.32c-0.1-0.1-0.18-0.22-0.25-0.36
		c-0.07-0.14-0.12-0.3-0.17-0.5c-0.04-0.2-0.07-0.45-0.07-0.75c-0.01-0.61,0.08-1.09,0.26-1.43c0.19-0.35,0.42-0.61,0.71-0.78
		c0.28-0.17,0.59-0.28,0.93-0.32c0.34-0.04,0.65-0.08,0.95-0.09c0.45-0.03,0.89-0.07,1.32-0.12c0.42-0.05,0.8-0.15,1.13-0.3
		c0.33-0.15,0.59-0.37,0.78-0.66c0.19-0.29,0.29-0.7,0.28-1.22l-0.02-1.09l-5.99,0.11l0.03,1.53l-0.23,0l-0.1-5.46l0.23,0l0.03,1.53
		l11.35-0.22L424.32,204.17z M419.28,208.88c0.01,0.5,0.08,0.89,0.22,1.17c0.14,0.28,0.32,0.5,0.55,0.64
		c0.23,0.14,0.49,0.23,0.78,0.26s0.58,0.05,0.88,0.04c0.49-0.01,0.9-0.05,1.25-0.12c0.35-0.07,0.63-0.19,0.86-0.35
		c0.22-0.16,0.39-0.38,0.49-0.65c0.1-0.27,0.15-0.62,0.15-1.04c0-0.12-0.01-0.24-0.02-0.36c-0.01-0.12-0.03-0.24-0.04-0.37
		l-5.13,0.1L419.28,208.88z"/>
</g>
<g>
	<path class="st0" d="M424.29,227.23l-2.83-0.12l0.01-0.22c0.19-0.05,0.43-0.13,0.73-0.25c0.3-0.12,0.59-0.29,0.88-0.52
		c0.29-0.23,0.54-0.52,0.76-0.89c0.22-0.37,0.34-0.82,0.37-1.36l0.12-2.64l-5.12-0.23l-0.04,0.93c-0.02,0.41,0.02,0.76,0.13,1.04
		c0.1,0.29,0.26,0.53,0.47,0.73c0.21,0.2,0.46,0.36,0.76,0.5c0.3,0.13,0.63,0.25,1.01,0.34l-0.01,0.21l-5.15-0.23l0.01-0.21
		c0.32-0.06,0.64-0.14,0.94-0.23c0.3-0.09,0.57-0.22,0.81-0.39c0.23-0.17,0.42-0.38,0.57-0.63c0.14-0.25,0.22-0.57,0.24-0.96
		l0.05-1.11l-5.98-0.27l-0.12,2.72c-0.02,0.51,0.04,0.97,0.2,1.39c0.15,0.42,0.38,0.79,0.67,1.12c0.3,0.33,0.65,0.61,1.05,0.84
		c0.41,0.23,0.84,0.41,1.31,0.54l-0.01,0.21l-3.63-0.16l0.47-10.59l0.23,0.01l-0.07,1.53l11.34,0.5l0.07-1.53l0.23,0.01
		L424.29,227.23z"/>
</g>
<g>
	<path class="st0" d="M423.7,234.27l-8.44,4.65l0,0.03l7.62,0.82l0.16-1.52l0.23,0.02l-0.36,3.3l-0.23-0.02l0.16-1.52l-11.51-1.24
		l0.05-0.45l11.37-6.28l0-0.03l-10.34-1.12l-0.16,1.52l-0.23-0.03l0.36-3.3l0.23,0.02l-0.16,1.52l11.28,1.22l0.16-1.52l0.23,0.02
		L423.7,234.27z"/>
</g>
<g>
	<path class="st0" d="M422.41,243.66l0.23,0.04l-0.26,1.5c-0.1,0.56-0.18,1.11-0.26,1.67c-0.08,0.56-0.17,1.12-0.26,1.67
		c-0.08,0.49-0.21,1-0.37,1.54c-0.16,0.53-0.37,1.05-0.63,1.56c-0.26,0.5-0.57,0.97-0.94,1.4c-0.37,0.43-0.8,0.79-1.3,1.09
		c-0.5,0.3-1.07,0.5-1.71,0.62c-0.64,0.11-1.36,0.1-2.17-0.04c-0.8-0.14-1.47-0.37-2.04-0.69c-0.56-0.32-1.03-0.7-1.4-1.14
		c-0.37-0.44-0.66-0.92-0.86-1.44c-0.2-0.52-0.35-1.04-0.43-1.58c-0.08-0.54-0.11-1.06-0.09-1.56c0.02-0.51,0.07-0.97,0.14-1.4
		c0.11-0.62,0.22-1.24,0.34-1.85s0.23-1.23,0.34-1.85l0.26-1.5l0.23,0.04l-0.26,1.5l11.18,1.93L422.41,243.66z M410.36,246.47
		c-0.12,0.71-0.14,1.33-0.06,1.86c0.08,0.53,0.24,0.99,0.47,1.38c0.23,0.39,0.51,0.72,0.85,0.99s0.7,0.49,1.09,0.66
		c0.39,0.17,0.79,0.31,1.19,0.42c0.4,0.1,0.78,0.19,1.14,0.25c0.88,0.15,1.69,0.23,2.42,0.25c0.73,0.01,1.38-0.1,1.94-0.33
		c0.56-0.23,1.03-0.62,1.4-1.16c0.37-0.54,0.64-1.28,0.8-2.23c0.04-0.22,0.07-0.42,0.09-0.59c0.02-0.18,0.04-0.32,0.03-0.43
		l-11.18-1.92C410.47,245.92,410.41,246.21,410.36,246.47z"/>
</g>
<g>
	<path class="st0" d="M418.81,263.38l-0.23-0.05l0.33-1.49l-11.07-2.48l-0.33,1.49l-0.23-0.05l1.19-5.33l0.23,0.05l-0.33,1.49
		l11.07,2.48l0.33-1.49l0.23,0.05L418.81,263.38z"/>
</g>
<g>
	<path class="st0" d="M405.69,267.65l-0.22-0.06l1.46-5.26l0.22,0.06l-0.41,1.47l10.94,3.03l0.41-1.47l0.22,0.06l-0.41,1.47
		c-0.15,0.54-0.29,1.09-0.43,1.64s-0.28,1.09-0.43,1.64c-0.13,0.48-0.32,0.99-0.55,1.52c-0.23,0.53-0.53,1-0.87,1.41
		c-0.35,0.41-0.76,0.72-1.24,0.92c-0.48,0.21-1.02,0.22-1.64,0.05c-0.42-0.12-0.78-0.33-1.09-0.63c-0.31-0.31-0.55-0.7-0.7-1.19
		c-0.16-0.49-0.23-1.07-0.21-1.75c0.02-0.67,0.14-1.44,0.38-2.29l0.18-0.66l-5.2-1.44L405.69,267.65z M411.38,268.18
		c-0.25,0.91-0.23,1.62,0.07,2.14c0.3,0.52,0.94,0.91,1.92,1.19c0.93,0.26,1.69,0.28,2.27,0.06c0.59-0.22,1.01-0.79,1.27-1.71
		c0.03-0.12,0.06-0.23,0.08-0.34c0.02-0.11,0.04-0.21,0.05-0.3l-5.52-1.53L411.38,268.18z"/>
</g>
<g>
	<path class="st0" d="M413.36,282l-0.22-0.07l0.48-1.45l-10.77-3.57l-0.48,1.45l-0.22-0.07l1.72-5.18l0.22,0.07l-0.48,1.45
		l10.77,3.57l0.48-1.45l0.22,0.07L413.36,282z"/>
</g>
<g>
	<path class="st0" d="M411.25,287.23c0.15-0.38,0.24-0.74,0.28-1.07c0.04-0.33,0.01-0.65-0.09-0.96s-0.28-0.63-0.55-0.94
		c-0.27-0.32-0.64-0.65-1.1-1.01l0.08-0.2l2.83,1.1l-3.76,9.7l-2.83-1.1l0.08-0.2c0.59,0.05,1.08,0.05,1.5-0.01
		c0.41-0.05,0.76-0.16,1.04-0.33c0.28-0.16,0.52-0.38,0.71-0.65c0.19-0.27,0.36-0.59,0.51-0.98l0.22-0.56l-10.58-4.1l-0.55,1.42
		l-0.22-0.08l1.97-5.09l0.22,0.08l-0.55,1.42l10.58,4.1L411.25,287.23z"/>
</g>
<g>
	<path class="st0" d="M406.19,300.13l-0.21-0.1l0.55-1.19l-6.67,0.66l3.99,5.19l0.6-1.31l0.21,0.1l-1.32,2.88l-0.21-0.1l0.6-1.31
		l-4.2-5.45l-4.78-2.2l-0.64,1.4l-0.21-0.1l2.29-4.98l0.21,0.1l-0.64,1.39l4.21,1.93l7.71-0.69l0.54-1.18l0.21,0.1L406.19,300.13z"
		/>
</g>
<g>
	<path class="st0" d="M387.98,317.6c-0.12-0.05-0.29-0.11-0.5-0.18c-0.21-0.07-0.45-0.13-0.72-0.17c-0.27-0.04-0.55-0.07-0.86-0.07
		c-0.31,0-0.61,0.03-0.92,0.11c-0.35,0.08-0.65,0.18-0.89,0.31c-0.24,0.13-0.44,0.27-0.61,0.42c-0.17,0.15-0.3,0.3-0.41,0.46
		c-0.11,0.16-0.21,0.31-0.29,0.45c-0.31,0.5-0.49,0.95-0.54,1.37c-0.05,0.42-0.02,0.79,0.09,1.11c0.11,0.32,0.26,0.6,0.46,0.83
		c0.2,0.23,0.39,0.41,0.58,0.52c0.35,0.22,0.68,0.32,1.01,0.3c0.33-0.02,0.65-0.12,0.97-0.3s0.64-0.41,0.96-0.69
		c0.32-0.28,0.65-0.57,0.99-0.87c0.34-0.3,0.69-0.57,1.05-0.83c0.36-0.25,0.75-0.45,1.15-0.57s0.82-0.16,1.26-0.12
		c0.44,0.05,0.91,0.23,1.42,0.55c0.37,0.24,0.68,0.55,0.92,0.94c0.24,0.39,0.4,0.81,0.48,1.28c0.08,0.47,0.07,0.96-0.03,1.48
		c-0.1,0.52-0.3,1.02-0.61,1.51c-0.2,0.31-0.39,0.56-0.6,0.76c-0.2,0.2-0.39,0.37-0.56,0.51c-0.17,0.14-0.33,0.26-0.47,0.36
		c-0.14,0.1-0.25,0.21-0.32,0.32c-0.08,0.13-0.12,0.23-0.1,0.3c0.02,0.07,0.06,0.16,0.15,0.28l-0.14,0.22l-2.66-1.69l0.12-0.18
		c0.4,0.09,0.8,0.18,1.19,0.25c0.4,0.08,0.79,0.1,1.17,0.06c0.38-0.03,0.75-0.15,1.09-0.35c0.35-0.2,0.67-0.53,0.96-0.98
		c0.24-0.37,0.39-0.74,0.47-1.09c0.08-0.35,0.09-0.68,0.05-0.98c-0.04-0.3-0.14-0.57-0.28-0.8c-0.14-0.23-0.32-0.42-0.53-0.55
		c-0.33-0.21-0.65-0.29-0.98-0.26c-0.32,0.04-0.65,0.15-0.98,0.33c-0.33,0.18-0.67,0.42-1.01,0.71c-0.34,0.29-0.69,0.58-1.05,0.89
		c-0.36,0.3-0.73,0.59-1.1,0.85c-0.37,0.27-0.76,0.47-1.16,0.61c-0.4,0.14-0.82,0.19-1.24,0.17c-0.43-0.03-0.87-0.19-1.34-0.49
		c-0.46-0.29-0.83-0.66-1.13-1.11c-0.29-0.45-0.49-0.94-0.58-1.47c-0.09-0.54-0.08-1.1,0.04-1.69c0.12-0.59,0.36-1.17,0.72-1.75
		c0.18-0.29,0.39-0.56,0.63-0.81c0.24-0.25,0.46-0.48,0.68-0.69c0.22-0.21,0.42-0.39,0.59-0.55c0.18-0.16,0.3-0.28,0.35-0.37
		c0.08-0.13,0.12-0.24,0.11-0.32c-0.01-0.08-0.06-0.19-0.16-0.32l0.14-0.22l3.11,1.97L387.98,317.6z"/>
</g>
<g>
	<path class="st0" d="M383.09,339.45l-2.3-1.66l0.13-0.17c0.19,0.06,0.44,0.13,0.75,0.19c0.32,0.06,0.65,0.08,1.02,0.05
		c0.36-0.03,0.74-0.14,1.12-0.33s0.74-0.5,1.05-0.94l1.54-2.14l-4.16-3l-0.54,0.75c-0.24,0.33-0.39,0.65-0.46,0.94
		c-0.07,0.3-0.07,0.58-0.01,0.86c0.06,0.28,0.19,0.56,0.36,0.83c0.18,0.28,0.39,0.56,0.65,0.84l-0.13,0.17l-4.19-3.02l0.13-0.17
		c0.31,0.12,0.61,0.23,0.91,0.32c0.3,0.09,0.6,0.13,0.89,0.12c0.29-0.01,0.56-0.08,0.82-0.22c0.26-0.13,0.5-0.36,0.73-0.67l0.65-0.9
		l-4.86-3.5l-1.59,2.21c-0.3,0.41-0.5,0.83-0.6,1.27c-0.1,0.43-0.12,0.87-0.05,1.3c0.07,0.44,0.21,0.86,0.42,1.27
		c0.21,0.41,0.48,0.8,0.8,1.17l-0.13,0.17l-2.95-2.12l6.2-8.6l0.19,0.14l-0.89,1.24l9.21,6.63l0.89-1.24l0.19,0.14L383.09,339.45z"
		/>
</g>
<g>
	<path class="st0" d="M381.09,341.83l0.18,0.15l-1.58,1.94c-0.29,0.36-0.58,0.72-0.85,1.08c-0.27,0.36-0.56,0.72-0.85,1.08
		c-0.27,0.33-0.6,0.66-0.97,0.98c-0.37,0.32-0.77,0.56-1.19,0.73c-0.42,0.17-0.85,0.24-1.3,0.21c-0.45-0.03-0.88-0.22-1.31-0.57
		c-0.34-0.28-0.57-0.6-0.69-0.95c-0.12-0.35-0.16-0.72-0.11-1.09c0.04-0.37,0.15-0.74,0.31-1.1c0.16-0.37,0.35-0.71,0.56-1.02
		l-0.06-0.05c-0.42,0.36-0.8,0.67-1.15,0.94c-0.35,0.27-0.69,0.46-1.04,0.57c-0.35,0.11-0.72,0.13-1.11,0.05
		c-0.39-0.08-0.83-0.29-1.32-0.64c-0.57-0.4-1.04-0.72-1.38-0.96c-0.35-0.24-0.63-0.41-0.85-0.51c-0.22-0.1-0.39-0.13-0.52-0.1
		s-0.25,0.13-0.38,0.28c-0.14,0.17-0.21,0.35-0.2,0.55c0.01,0.19,0.02,0.36,0.03,0.52l-0.22,0.03c-0.02-0.16-0.03-0.3-0.03-0.44
		c-0.01-0.14,0.01-0.29,0.04-0.44c0.04-0.15,0.1-0.31,0.2-0.49c0.1-0.18,0.24-0.38,0.43-0.62c0.38-0.47,0.76-0.78,1.13-0.92
		s0.71-0.19,1.04-0.14s0.63,0.17,0.92,0.35c0.29,0.18,0.55,0.36,0.79,0.55c0.37,0.27,0.73,0.52,1.08,0.76
		c0.35,0.24,0.71,0.41,1.05,0.51c0.35,0.1,0.69,0.1,1.03,0c0.34-0.1,0.67-0.35,1-0.75l0.69-0.85l-4.64-3.78l-0.96,1.18l-0.18-0.15
		l3.45-4.23l0.18,0.15l-0.96,1.18l8.8,7.17L381.09,341.83z M374.2,342.17c-0.31,0.39-0.51,0.73-0.59,1.04
		c-0.08,0.31-0.08,0.59,0.01,0.84c0.09,0.25,0.23,0.49,0.43,0.7c0.2,0.21,0.41,0.41,0.64,0.6c0.38,0.31,0.72,0.55,1.03,0.72
		c0.31,0.17,0.6,0.26,0.88,0.29c0.27,0.02,0.54-0.04,0.8-0.18c0.26-0.14,0.52-0.37,0.78-0.7c0.08-0.09,0.15-0.19,0.22-0.29
		c0.07-0.1,0.14-0.2,0.21-0.3l-3.97-3.24L374.2,342.17z"/>
</g>
<g>
	<path class="st0" d="M366.25,359.42l-2.09-1.92l0.15-0.16c0.18,0.09,0.42,0.18,0.72,0.28c0.31,0.1,0.64,0.16,1.01,0.17
		c0.36,0.01,0.75-0.05,1.15-0.19s0.79-0.41,1.16-0.81l1.79-1.94l-3.77-3.47l-0.63,0.68c-0.28,0.3-0.47,0.6-0.57,0.88
		c-0.11,0.29-0.14,0.57-0.11,0.86c0.03,0.28,0.12,0.57,0.26,0.87c0.14,0.29,0.32,0.6,0.55,0.91l-0.15,0.16l-3.8-3.49l0.15-0.16
		c0.29,0.16,0.58,0.3,0.87,0.43c0.29,0.12,0.58,0.2,0.87,0.22c0.29,0.02,0.57-0.02,0.84-0.12s0.54-0.29,0.8-0.58l0.75-0.82
		l-4.41-4.05l-1.84,2c-0.34,0.37-0.59,0.77-0.74,1.19c-0.15,0.42-0.22,0.85-0.21,1.29c0.01,0.44,0.1,0.88,0.27,1.32
		c0.16,0.44,0.38,0.86,0.66,1.26l-0.15,0.16l-2.67-2.46l7.18-7.8l0.17,0.16l-1.03,1.12l8.35,7.68l1.03-1.12l0.17,0.16L366.25,359.42
		z"/>
</g>
<g>
	<path class="st0" d="M361.29,364.39l-9.46-1.85l-0.02,0.02l5.32,5.52l1.1-1.06l0.16,0.17l-2.39,2.3l-0.16-0.17l1.1-1.06l-8.04-8.33
		l0.32-0.31l12.76,2.47l0.02-0.02l-7.22-7.49l-1.1,1.06l-0.16-0.17l2.39-2.3l0.16,0.17l-1.1,1.06l7.88,8.17l1.1-1.06l0.16,0.17
		L361.29,364.39z"/>
</g>
<g>
	<path class="st0" d="M354.2,370.86l0.15,0.18l-1.17,0.98c-0.43,0.36-0.86,0.73-1.28,1.1c-0.42,0.38-0.85,0.74-1.28,1.1
		c-0.38,0.32-0.81,0.63-1.27,0.93c-0.47,0.3-0.96,0.56-1.49,0.78c-0.53,0.22-1.07,0.37-1.62,0.46c-0.56,0.09-1.12,0.09-1.7-0.01
		s-1.14-0.31-1.7-0.63c-0.56-0.33-1.1-0.8-1.63-1.43c-0.52-0.62-0.89-1.23-1.11-1.84c-0.22-0.61-0.33-1.2-0.33-1.78
		c0-0.58,0.09-1.13,0.27-1.65c0.18-0.53,0.41-1.02,0.7-1.48c0.29-0.46,0.6-0.88,0.94-1.25c0.34-0.37,0.68-0.7,1.01-0.98
		c0.48-0.4,0.97-0.8,1.46-1.19c0.49-0.39,0.97-0.79,1.46-1.19l1.17-0.98l0.15,0.18l-1.17,0.98l7.28,8.71L354.2,370.86z M343.2,365.2
		c-0.55,0.46-0.97,0.92-1.25,1.38s-0.46,0.91-0.54,1.36c-0.08,0.45-0.08,0.88,0.01,1.3c0.08,0.42,0.22,0.82,0.4,1.21
		c0.19,0.39,0.4,0.75,0.64,1.09c0.24,0.34,0.48,0.65,0.71,0.93c0.57,0.69,1.14,1.27,1.69,1.76s1.11,0.82,1.69,1.01
		c0.58,0.19,1.19,0.19,1.82,0.03c0.63-0.17,1.32-0.56,2.06-1.18c0.17-0.14,0.32-0.27,0.45-0.39c0.13-0.12,0.23-0.22,0.3-0.31
		l-7.28-8.71C343.64,364.85,343.41,365.03,343.2,365.2z"/>
</g>
<g>
	<path class="st0" d="M338.75,383.59l-0.14-0.19l1.22-0.92l-6.85-9.05l-1.22,0.92l-0.14-0.19l4.35-3.29l0.14,0.19l-1.22,0.92
		l6.85,9.05l1.22-0.92l0.14,0.19L338.75,383.59z"/>
</g>
<g>
	<path class="st0" d="M326.01,378.41l-0.13-0.19l4.5-3.08l0.13,0.19l-1.26,0.86l6.41,9.37l1.26-0.86l0.13,0.19l-1.26,0.86
		c-0.47,0.32-0.93,0.64-1.38,0.98c-0.46,0.33-0.92,0.66-1.38,0.98c-0.41,0.28-0.88,0.55-1.4,0.81s-1.05,0.43-1.58,0.52
		c-0.53,0.09-1.04,0.06-1.54-0.09c-0.5-0.15-0.93-0.49-1.29-1.02c-0.24-0.36-0.39-0.75-0.43-1.19c-0.04-0.43,0.04-0.89,0.23-1.36
		c0.2-0.48,0.52-0.97,0.96-1.47c0.45-0.5,1.03-1.01,1.76-1.51l0.56-0.38l-3.05-4.45L326.01,378.41z M330.02,382.48
		c-0.78,0.53-1.22,1.09-1.32,1.68c-0.11,0.59,0.13,1.3,0.7,2.14c0.54,0.79,1.11,1.3,1.7,1.51c0.59,0.21,1.28,0.05,2.07-0.5
		c0.1-0.07,0.19-0.14,0.28-0.21c0.09-0.07,0.16-0.14,0.23-0.2l-3.23-4.72L330.02,382.48z"/>
</g>
<g>
	<path class="st0" d="M322.66,394.34l-0.12-0.2l1.3-0.8l-5.95-9.66l-1.3,0.8l-0.12-0.2l4.65-2.86l0.12,0.2l-1.3,0.8l5.95,9.66
		l1.3-0.8l0.12,0.2L322.66,394.34z"/>
</g>
<g>
	<path class="st0" d="M317.7,396.99c0.36-0.2,0.66-0.41,0.9-0.64c0.24-0.23,0.42-0.49,0.55-0.79c0.12-0.3,0.18-0.66,0.18-1.08
		c0-0.42-0.07-0.91-0.19-1.48l0.19-0.1l1.46,2.66l-9.11,5.02l-1.47-2.66l0.19-0.1c0.42,0.41,0.8,0.73,1.15,0.96
		c0.35,0.22,0.69,0.36,1.01,0.42c0.32,0.06,0.64,0.04,0.96-0.04c0.32-0.08,0.66-0.22,1.02-0.42l0.52-0.29l-5.48-9.94l-1.34,0.74
		l-0.11-0.2l4.78-2.63l0.11,0.2l-1.34,0.74l5.48,9.94L317.7,396.99z"/>
</g>
<g>
	<path class="st0" d="M305.55,403.63l-0.1-0.21l1.18-0.56l-5.54-3.78l-0.28,6.54l1.3-0.62l0.1,0.21l-2.86,1.36l-0.1-0.21l1.3-0.62
		l0.28-6.87l-2.25-4.75l-1.39,0.66l-0.1-0.21l4.95-2.35l0.1,0.21l-1.38,0.65l1.98,4.18l6.36,4.42l1.17-0.55l0.1,0.21L305.55,403.63z
		"/>
</g>
<g>
	<path class="st0" d="M280.42,405.28c-0.06-0.12-0.15-0.27-0.27-0.46c-0.12-0.19-0.27-0.38-0.45-0.59c-0.18-0.2-0.38-0.4-0.62-0.6
		s-0.5-0.36-0.79-0.5c-0.32-0.16-0.62-0.27-0.88-0.32c-0.27-0.05-0.51-0.07-0.74-0.06c-0.22,0.01-0.43,0.04-0.61,0.1
		c-0.19,0.06-0.36,0.11-0.51,0.16c-0.56,0.18-0.98,0.42-1.28,0.71c-0.3,0.29-0.51,0.6-0.63,0.92s-0.18,0.63-0.17,0.94
		c0.01,0.31,0.05,0.56,0.12,0.77c0.13,0.39,0.33,0.68,0.59,0.87c0.27,0.19,0.58,0.32,0.94,0.39c0.36,0.07,0.75,0.09,1.18,0.08
		s0.86-0.03,1.31-0.04c0.45-0.01,0.9-0.01,1.34,0.03c0.44,0.03,0.86,0.13,1.25,0.29c0.39,0.16,0.74,0.39,1.05,0.71
		c0.31,0.32,0.56,0.76,0.75,1.33c0.14,0.42,0.18,0.86,0.12,1.31c-0.06,0.45-0.21,0.88-0.44,1.29c-0.24,0.41-0.56,0.78-0.96,1.12
		c-0.41,0.34-0.88,0.6-1.43,0.78c-0.35,0.12-0.66,0.18-0.95,0.21c-0.28,0.02-0.54,0.03-0.76,0.03c-0.22,0-0.42-0.01-0.59-0.02
		c-0.17-0.01-0.32,0-0.45,0.04c-0.15,0.05-0.24,0.1-0.27,0.17c-0.03,0.06-0.05,0.17-0.06,0.31l-0.25,0.08l-0.99-2.99l0.21-0.07
		c0.25,0.33,0.5,0.64,0.76,0.95c0.26,0.31,0.55,0.57,0.86,0.79c0.32,0.22,0.67,0.36,1.07,0.42c0.4,0.07,0.85,0.02,1.37-0.16
		c0.42-0.14,0.77-0.32,1.05-0.54c0.28-0.22,0.5-0.46,0.66-0.73c0.16-0.26,0.26-0.53,0.3-0.8c0.04-0.27,0.02-0.52-0.06-0.77
		c-0.12-0.37-0.32-0.64-0.59-0.82c-0.27-0.18-0.6-0.3-0.97-0.37c-0.37-0.07-0.78-0.1-1.23-0.09s-0.9,0.01-1.37,0.02
		c-0.47,0-0.94-0.01-1.39-0.04c-0.46-0.03-0.89-0.12-1.28-0.26c-0.4-0.15-0.75-0.37-1.07-0.66c-0.31-0.29-0.56-0.7-0.73-1.23
		c-0.17-0.51-0.23-1.04-0.17-1.57s0.22-1.03,0.49-1.51c0.27-0.47,0.63-0.9,1.1-1.28s1.02-0.68,1.67-0.89c0.33-0.11,0.66-0.18,1-0.23
		c0.34-0.04,0.66-0.08,0.96-0.1c0.3-0.02,0.57-0.04,0.81-0.05s0.41-0.03,0.51-0.06c0.15-0.05,0.24-0.11,0.29-0.17
		c0.05-0.07,0.07-0.19,0.08-0.35l0.25-0.08l1.16,3.5L280.42,405.28z"/>
</g>
<g>
	<path class="st0" d="M262.73,418.96l-0.72-2.74l0.21-0.05c0.1,0.17,0.25,0.38,0.46,0.63c0.2,0.25,0.46,0.48,0.76,0.68
		s0.66,0.36,1.07,0.46c0.42,0.1,0.89,0.08,1.41-0.05l2.55-0.67l-1.31-4.96l-0.9,0.24c-0.4,0.1-0.71,0.25-0.96,0.43
		s-0.43,0.4-0.56,0.66c-0.13,0.26-0.21,0.55-0.25,0.87s-0.05,0.68-0.03,1.06l-0.21,0.06l-1.32-4.99l0.21-0.06
		c0.16,0.29,0.32,0.57,0.5,0.83c0.18,0.26,0.38,0.48,0.61,0.65c0.23,0.17,0.49,0.29,0.77,0.35c0.29,0.06,0.62,0.04,0.99-0.05
		l1.08-0.28l-1.53-5.79l-2.63,0.69c-0.49,0.13-0.91,0.33-1.27,0.6c-0.35,0.27-0.64,0.6-0.87,0.98c-0.23,0.38-0.39,0.8-0.49,1.25
		c-0.1,0.45-0.14,0.93-0.12,1.41l-0.21,0.06l-0.93-3.51l10.25-2.71l0.06,0.23l-1.48,0.39l2.9,10.97l1.48-0.39l0.06,0.22
		L262.73,418.96z"/>
</g>
<g>
	<path class="st0" d="M259.61,419.44l0.04,0.23l-2.46,0.49c-0.46,0.09-0.9,0.19-1.35,0.29s-0.89,0.2-1.35,0.29
		c-0.42,0.08-0.88,0.13-1.37,0.14c-0.49,0.01-0.95-0.06-1.38-0.19c-0.43-0.13-0.81-0.35-1.14-0.66c-0.33-0.31-0.54-0.73-0.65-1.27
		c-0.09-0.43-0.06-0.83,0.07-1.17c0.13-0.35,0.34-0.65,0.61-0.91c0.27-0.26,0.58-0.47,0.94-0.65c0.36-0.18,0.72-0.32,1.08-0.43
		l-0.02-0.08c-0.55,0.01-1.04,0-1.48-0.01c-0.44-0.02-0.83-0.09-1.17-0.22c-0.34-0.14-0.64-0.36-0.89-0.67
		c-0.25-0.31-0.45-0.76-0.61-1.33c-0.19-0.67-0.34-1.21-0.46-1.62c-0.11-0.41-0.22-0.72-0.33-0.93c-0.1-0.22-0.22-0.35-0.33-0.41
		c-0.12-0.06-0.28-0.06-0.47-0.02c-0.22,0.04-0.38,0.14-0.5,0.29c-0.12,0.15-0.22,0.29-0.3,0.42l-0.19-0.12
		c0.09-0.13,0.17-0.25,0.26-0.36c0.08-0.11,0.19-0.21,0.31-0.31c0.12-0.09,0.28-0.18,0.47-0.25s0.43-0.14,0.72-0.2
		c0.6-0.12,1.08-0.12,1.46,0.01c0.37,0.12,0.67,0.31,0.89,0.56c0.22,0.25,0.38,0.54,0.48,0.86c0.1,0.32,0.19,0.63,0.26,0.92
		c0.11,0.44,0.22,0.87,0.35,1.28c0.12,0.41,0.28,0.76,0.49,1.06c0.21,0.3,0.47,0.52,0.79,0.66c0.32,0.14,0.74,0.16,1.25,0.06
		l1.07-0.21l-1.16-5.88l-1.5,0.3l-0.04-0.23l5.35-1.06l0.04,0.23l-1.5,0.3l2.21,11.13L259.61,419.44z M254.08,415.3
		c-0.49,0.1-0.86,0.24-1.12,0.42c-0.26,0.19-0.43,0.4-0.53,0.66c-0.1,0.25-0.14,0.52-0.12,0.81c0.02,0.29,0.06,0.58,0.11,0.87
		c0.09,0.48,0.21,0.88,0.34,1.21c0.13,0.33,0.3,0.59,0.49,0.78c0.2,0.19,0.44,0.32,0.72,0.37c0.29,0.06,0.64,0.04,1.05-0.04
		c0.12-0.02,0.24-0.05,0.35-0.09c0.12-0.03,0.24-0.07,0.35-0.1l-1-5.03L254.08,415.3z"/>
</g>
<g>
	<path class="st0" d="M236.9,423.43l-0.38-2.81l0.21-0.03c0.08,0.18,0.21,0.41,0.38,0.68c0.17,0.27,0.39,0.53,0.66,0.77
		c0.27,0.24,0.61,0.44,1.01,0.59c0.4,0.15,0.87,0.19,1.41,0.12l2.61-0.35l-0.68-5.08l-0.92,0.12c-0.41,0.05-0.74,0.16-1,0.31
		c-0.26,0.15-0.47,0.35-0.63,0.59c-0.16,0.24-0.28,0.52-0.36,0.83s-0.13,0.67-0.16,1.05l-0.21,0.03l-0.68-5.11l0.21-0.03
		c0.12,0.31,0.25,0.6,0.39,0.88c0.14,0.28,0.32,0.52,0.52,0.73c0.21,0.2,0.45,0.35,0.72,0.45c0.27,0.1,0.6,0.12,0.99,0.07l1.1-0.15
		l-0.79-5.94l-2.7,0.36c-0.5,0.07-0.95,0.21-1.33,0.44c-0.38,0.22-0.71,0.51-0.98,0.86c-0.27,0.35-0.48,0.74-0.64,1.18
		c-0.15,0.44-0.25,0.9-0.3,1.39l-0.21,0.03l-0.48-3.6l10.51-1.4l0.03,0.23l-1.51,0.2l1.5,11.25l1.51-0.2l0.03,0.23L236.9,423.43z"/>
</g>
<g>
	<path class="st0" d="M229.86,424.03l-6.06-7.49l-0.03,0l0.53,7.65l1.52-0.11l0.02,0.23l-3.31,0.23l-0.02-0.23l1.52-0.11
		l-0.81-11.55l0.45-0.03l8.19,10.09l0.03,0l-0.72-10.38l-1.52,0.11l-0.02-0.23l3.31-0.23l0.02,0.23l-1.52,0.11l0.79,11.32l1.52-0.11
		l0.02,0.23L229.86,424.03z"/>
</g>
<g>
	<path class="st0" d="M220.38,424.37l0,0.23l-1.53,0.01c-0.56,0-1.13,0.02-1.69,0.04c-0.56,0.02-1.13,0.03-1.69,0.04
		c-0.5,0-1.02-0.03-1.58-0.09c-0.55-0.06-1.1-0.18-1.64-0.35s-1.06-0.39-1.55-0.68s-0.92-0.65-1.3-1.09
		c-0.38-0.44-0.68-0.96-0.91-1.57c-0.23-0.61-0.34-1.32-0.35-2.14c0-0.81,0.1-1.52,0.32-2.13c0.22-0.61,0.51-1.14,0.88-1.58
		c0.37-0.44,0.79-0.81,1.26-1.1c0.47-0.29,0.97-0.52,1.48-0.7c0.51-0.17,1.02-0.3,1.52-0.37c0.5-0.07,0.97-0.11,1.4-0.11
		c0.63,0,1.26,0,1.88,0c0.63,0.01,1.25,0.01,1.88,0l1.53-0.01l0,0.23l-1.53,0.01l0.07,11.35L220.38,424.37z M215.5,413
		c-0.72,0-1.33,0.09-1.84,0.27c-0.51,0.17-0.93,0.41-1.28,0.71c-0.35,0.29-0.62,0.63-0.82,1.01c-0.2,0.38-0.35,0.77-0.46,1.19
		c-0.1,0.42-0.17,0.83-0.2,1.25c-0.03,0.42-0.04,0.81-0.04,1.17c0.01,0.9,0.07,1.71,0.18,2.43c0.12,0.72,0.34,1.34,0.67,1.85
		c0.33,0.51,0.79,0.9,1.38,1.18c0.59,0.27,1.37,0.41,2.33,0.4c0.22,0,0.42-0.01,0.6-0.01c0.18-0.01,0.32-0.02,0.43-0.04l-0.07-11.35
		C216.06,413.02,215.76,413,215.5,413z"/>
</g>
<g>
	<path class="st0" d="M200.33,424.26l0.01-0.23l1.52,0.07l0.5-11.34l-1.52-0.07l0.01-0.23l5.45,0.24l-0.01,0.23l-1.52-0.07
		l-0.5,11.34l1.52,0.07l-0.01,0.23L200.33,424.26z"/>
</g>
<g>
	<path class="st0" d="M193.82,412.09l0.02-0.23l5.43,0.52l-0.02,0.23l-1.52-0.14l-1.08,11.3l1.52,0.15l-0.02,0.23l-1.52-0.15
		c-0.56-0.05-1.12-0.1-1.69-0.14c-0.56-0.04-1.13-0.08-1.69-0.14c-0.5-0.05-1.03-0.14-1.59-0.28c-0.56-0.14-1.08-0.34-1.54-0.61
		c-0.46-0.27-0.84-0.62-1.12-1.06c-0.29-0.43-0.4-0.97-0.34-1.61c0.04-0.43,0.18-0.82,0.43-1.18c0.25-0.36,0.6-0.66,1.05-0.9
		c0.46-0.24,1.02-0.41,1.68-0.52c0.67-0.1,1.44-0.11,2.32-0.03l0.68,0.06l0.51-5.37L193.82,412.09z M194.29,417.79
		c-0.94-0.09-1.63,0.06-2.09,0.44c-0.46,0.38-0.74,1.08-0.83,2.1c-0.09,0.96,0.02,1.71,0.34,2.25c0.31,0.54,0.95,0.86,1.91,0.95
		c0.12,0.01,0.24,0.02,0.35,0.02c0.11,0,0.21,0,0.3,0l0.54-5.7L194.29,417.79z"/>
</g>
<g>
	<path class="st0" d="M181.02,422.15l0.03-0.23l1.51,0.22l1.64-11.23l-1.51-0.22l0.03-0.23l5.4,0.79l-0.03,0.23l-1.51-0.22
		l-1.64,11.23l1.51,0.22l-0.03,0.23L181.02,422.15z"/>
</g>
<g>
	<path class="st0" d="M175.49,420.99c0.4,0.08,0.77,0.11,1.1,0.09c0.33-0.02,0.64-0.1,0.93-0.26c0.29-0.15,0.57-0.39,0.83-0.71
		c0.27-0.32,0.54-0.74,0.81-1.26l0.21,0.04l-0.59,2.98l-10.2-2.02l0.59-2.98l0.21,0.04c0.05,0.59,0.14,1.08,0.27,1.47
		c0.12,0.4,0.29,0.72,0.5,0.97c0.21,0.25,0.46,0.45,0.76,0.59c0.3,0.14,0.65,0.26,1.05,0.33l0.59,0.12l2.21-11.13l-1.5-0.3
		l0.04-0.23l5.35,1.06l-0.04,0.23l-1.5-0.3l-2.21,11.13L175.49,420.99z"/>
</g>
<g>
	<path class="st0" d="M162.06,418.3l0.06-0.23l1.27,0.32l-1.88-6.44l-4.37,4.87l1.4,0.35l-0.06,0.23l-3.07-0.77l0.06-0.23l1.4,0.35
		l4.59-5.13l1.28-5.1l-1.5-0.38l0.06-0.23l5.31,1.33l-0.06,0.23l-1.48-0.37l-1.13,4.49l2.1,7.45l1.26,0.31l-0.06,0.23L162.06,418.3z
		"/>
</g>
<g>
	<path class="st0" d="M141.59,403.4c0.03-0.13,0.06-0.31,0.09-0.53s0.04-0.47,0.04-0.74c0-0.27-0.03-0.56-0.08-0.86
		c-0.05-0.3-0.15-0.6-0.28-0.89c-0.14-0.33-0.3-0.6-0.47-0.81c-0.17-0.21-0.35-0.39-0.52-0.52c-0.18-0.14-0.35-0.24-0.53-0.32
		c-0.18-0.08-0.34-0.15-0.5-0.21c-0.54-0.22-1.02-0.31-1.44-0.28c-0.42,0.03-0.78,0.13-1.07,0.29c-0.3,0.17-0.54,0.37-0.74,0.61
		s-0.33,0.46-0.41,0.67c-0.15,0.38-0.19,0.73-0.11,1.05c0.08,0.32,0.24,0.62,0.47,0.9c0.23,0.28,0.52,0.56,0.85,0.82
		c0.33,0.27,0.68,0.54,1.03,0.82c0.35,0.28,0.69,0.57,1,0.89c0.32,0.31,0.57,0.65,0.77,1.02c0.2,0.37,0.31,0.78,0.34,1.22
		c0.03,0.44-0.06,0.94-0.29,1.49c-0.17,0.41-0.42,0.77-0.75,1.07c-0.34,0.31-0.73,0.54-1.17,0.7c-0.45,0.16-0.93,0.24-1.46,0.24
		s-1.06-0.11-1.59-0.33c-0.34-0.14-0.62-0.29-0.86-0.45c-0.23-0.16-0.43-0.32-0.6-0.46c-0.17-0.15-0.31-0.28-0.44-0.4
		c-0.12-0.12-0.25-0.21-0.37-0.26c-0.14-0.06-0.25-0.07-0.31-0.04c-0.06,0.03-0.15,0.09-0.25,0.2l-0.25-0.1l1.17-2.93l0.2,0.08
		c-0.02,0.41-0.03,0.82-0.03,1.22c0,0.4,0.05,0.79,0.15,1.16s0.28,0.71,0.54,1.01c0.26,0.31,0.64,0.56,1.14,0.76
		c0.41,0.16,0.8,0.25,1.15,0.27c0.36,0.01,0.68-0.03,0.97-0.13c0.29-0.1,0.54-0.24,0.74-0.42c0.2-0.18,0.35-0.39,0.45-0.62
		c0.14-0.36,0.17-0.7,0.07-1.01c-0.1-0.31-0.26-0.62-0.5-0.91c-0.24-0.29-0.53-0.58-0.88-0.86c-0.35-0.28-0.7-0.57-1.06-0.87
		c-0.36-0.3-0.71-0.61-1.04-0.93c-0.33-0.32-0.6-0.66-0.81-1.03s-0.34-0.77-0.39-1.19c-0.05-0.43,0.03-0.89,0.23-1.41
		c0.2-0.5,0.5-0.94,0.88-1.31c0.39-0.37,0.84-0.65,1.35-0.84c0.51-0.19,1.07-0.28,1.66-0.27c0.6,0.01,1.22,0.14,1.85,0.4
		c0.32,0.13,0.62,0.29,0.91,0.47c0.29,0.19,0.56,0.37,0.8,0.54c0.25,0.18,0.46,0.34,0.65,0.48c0.19,0.15,0.33,0.24,0.43,0.28
		c0.14,0.06,0.26,0.08,0.34,0.05s0.18-0.09,0.28-0.22l0.25,0.1l-1.37,3.42L141.59,403.4z"/>
</g>
<g>
	<path class="st0" d="M119.24,402.47l1.22-2.56l0.19,0.09c-0.03,0.19-0.05,0.45-0.05,0.77s0.04,0.66,0.14,1.01
		c0.1,0.35,0.27,0.7,0.52,1.05c0.25,0.35,0.62,0.64,1.11,0.87l2.38,1.13l2.2-4.63l-0.84-0.4c-0.37-0.18-0.71-0.27-1.01-0.29
		c-0.3-0.02-0.59,0.03-0.85,0.15c-0.26,0.11-0.51,0.28-0.75,0.51c-0.24,0.22-0.48,0.49-0.71,0.79l-0.2-0.09l2.21-4.66l0.19,0.09
		c-0.07,0.32-0.12,0.64-0.15,0.96c-0.03,0.32-0.02,0.61,0.04,0.89c0.06,0.28,0.18,0.54,0.36,0.77c0.18,0.23,0.44,0.43,0.79,0.6
		l1,0.48l2.57-5.41l-2.46-1.17c-0.46-0.22-0.91-0.34-1.35-0.36c-0.44-0.02-0.87,0.04-1.29,0.19c-0.42,0.15-0.81,0.36-1.18,0.64
		c-0.37,0.28-0.7,0.62-1.01,1l-0.19-0.09l1.56-3.28l9.58,4.54l-0.1,0.21l-1.38-0.65l-4.86,10.25l1.38,0.65l-0.1,0.21L119.24,402.47z
		"/>
</g>
<g>
	<path class="st0" d="M116.55,400.86l-0.11,0.2l-2.19-1.21c-0.41-0.22-0.81-0.44-1.22-0.64s-0.81-0.42-1.22-0.64
		c-0.38-0.21-0.76-0.47-1.14-0.78c-0.38-0.31-0.69-0.66-0.94-1.04c-0.24-0.38-0.39-0.79-0.44-1.24c-0.05-0.45,0.06-0.91,0.32-1.39
		c0.21-0.39,0.48-0.67,0.81-0.85c0.33-0.18,0.68-0.28,1.05-0.3c0.37-0.02,0.75,0.01,1.14,0.11c0.39,0.09,0.76,0.22,1.1,0.37
		l0.04-0.07c-0.43-0.35-0.8-0.67-1.13-0.96s-0.58-0.6-0.75-0.92c-0.17-0.32-0.26-0.69-0.25-1.08c0.01-0.4,0.14-0.87,0.39-1.41
		c0.29-0.64,0.52-1.15,0.69-1.53c0.17-0.38,0.29-0.69,0.35-0.93c0.06-0.23,0.06-0.41,0.01-0.53c-0.05-0.12-0.17-0.23-0.34-0.32
		c-0.19-0.11-0.38-0.14-0.57-0.1c-0.19,0.04-0.36,0.08-0.51,0.13l-0.07-0.21c0.15-0.04,0.29-0.08,0.43-0.11
		c0.14-0.03,0.28-0.04,0.44-0.04c0.15,0.01,0.33,0.04,0.52,0.11c0.19,0.06,0.42,0.17,0.68,0.31c0.53,0.29,0.9,0.61,1.11,0.94
		c0.21,0.33,0.31,0.67,0.32,1c0.01,0.33-0.06,0.66-0.18,0.97c-0.13,0.31-0.26,0.61-0.39,0.87c-0.2,0.41-0.38,0.81-0.56,1.2
		c-0.17,0.39-0.27,0.77-0.31,1.13c-0.03,0.36,0.03,0.7,0.18,1.01c0.16,0.31,0.46,0.6,0.92,0.85l0.96,0.53l2.89-5.25l-1.34-0.74
		l0.11-0.2l4.78,2.63l-0.11,0.2l-1.34-0.74l-5.48,9.94L116.55,400.86z M114.99,394.14c-0.44-0.24-0.81-0.37-1.13-0.39
		c-0.32-0.02-0.59,0.03-0.83,0.16c-0.23,0.13-0.44,0.31-0.61,0.54c-0.17,0.23-0.33,0.48-0.48,0.74c-0.23,0.43-0.41,0.81-0.52,1.15
		c-0.11,0.34-0.15,0.64-0.13,0.92s0.13,0.52,0.32,0.75s0.46,0.44,0.83,0.65c0.11,0.06,0.22,0.11,0.33,0.16
		c0.11,0.05,0.22,0.1,0.34,0.15l2.47-4.49L114.99,394.14z"/>
</g>
<g>
	<path class="st0" d="M96.61,389.34l1.52-2.4l0.18,0.11c-0.05,0.19-0.1,0.44-0.15,0.76c-0.04,0.32-0.04,0.66,0.01,1.02
		c0.05,0.36,0.18,0.73,0.39,1.1s0.54,0.71,1,1l2.23,1.41l2.74-4.33l-0.79-0.5c-0.35-0.22-0.67-0.35-0.97-0.41
		c-0.3-0.05-0.59-0.04-0.86,0.04c-0.27,0.08-0.54,0.22-0.81,0.41c-0.27,0.19-0.53,0.43-0.8,0.7l-0.18-0.12l2.76-4.36l0.18,0.12
		c-0.11,0.31-0.19,0.62-0.27,0.93c-0.07,0.31-0.09,0.61-0.06,0.89c0.03,0.29,0.12,0.56,0.27,0.81s0.39,0.48,0.71,0.69l0.94,0.59
		l3.2-5.06l-2.3-1.45c-0.43-0.27-0.86-0.44-1.3-0.52c-0.44-0.07-0.87-0.06-1.3,0.03c-0.43,0.09-0.85,0.26-1.25,0.5
		s-0.77,0.53-1.12,0.87l-0.18-0.12l1.94-3.07l8.96,5.67l-0.12,0.2l-1.29-0.82l-6.07,9.59l1.29,0.82l-0.12,0.2L96.61,389.34z"/>
</g>
<g>
	<path class="st0" d="M90.72,385.22l0.25-9.64l-0.03-0.02l-4.55,6.17l1.23,0.91l-0.14,0.19l-2.67-1.97l0.14-0.19l1.23,0.91
		l6.88-9.32l0.36,0.27l-0.31,12.99l0.03,0.02l6.18-8.37l-1.23-0.91l0.14-0.19l2.67,1.97l-0.14,0.19l-1.23-0.91l-6.74,9.13l1.23,0.91
		l-0.14,0.19L90.72,385.22z"/>
</g>
<g>
	<path class="st0" d="M83.28,379.43l-0.15,0.18l-1.17-0.98c-0.43-0.36-0.87-0.72-1.31-1.07c-0.44-0.35-0.88-0.7-1.32-1.07
		c-0.38-0.32-0.76-0.68-1.15-1.09c-0.38-0.41-0.73-0.85-1.03-1.33c-0.31-0.48-0.55-0.98-0.74-1.52c-0.19-0.53-0.29-1.09-0.29-1.67
		s0.1-1.18,0.32-1.78c0.22-0.61,0.59-1.23,1.12-1.86c0.52-0.62,1.06-1.09,1.62-1.42c0.56-0.33,1.12-0.54,1.69-0.64
		c0.57-0.1,1.13-0.11,1.68-0.03c0.55,0.08,1.08,0.22,1.58,0.42c0.5,0.2,0.97,0.43,1.4,0.7c0.43,0.27,0.81,0.55,1.14,0.82
		c0.48,0.4,0.96,0.81,1.43,1.22c0.47,0.41,0.95,0.82,1.43,1.22l1.17,0.98l-0.15,0.18l-1.17-0.98l-7.28,8.71L83.28,379.43z
		 M86.89,367.59c-0.55-0.46-1.08-0.79-1.58-0.98c-0.5-0.19-0.98-0.29-1.43-0.29c-0.46,0-0.88,0.08-1.28,0.24
		c-0.4,0.16-0.77,0.36-1.12,0.61c-0.35,0.25-0.67,0.52-0.96,0.82c-0.29,0.3-0.55,0.59-0.79,0.87c-0.57,0.69-1.05,1.34-1.43,1.97
		s-0.61,1.24-0.69,1.85c-0.08,0.6,0.02,1.2,0.3,1.79c0.28,0.59,0.78,1.2,1.52,1.81c0.17,0.14,0.32,0.27,0.46,0.38
		c0.14,0.11,0.26,0.19,0.36,0.24l7.28-8.71C87.31,367.96,87.1,367.76,86.89,367.59z"/>
</g>
<g>
	<path class="st0" d="M68.04,366.45l0.16-0.17l1.12,1.03l7.68-8.35l-1.12-1.03l0.16-0.17l4.02,3.7l-0.16,0.17l-1.12-1.03l-7.68,8.35
		l1.12,1.03l-0.16,0.17L68.04,366.45z"/>
</g>
<g>
	<path class="st0" d="M70.89,352.96l0.17-0.16l3.84,3.88l-0.17,0.16l-1.07-1.09l-8.07,7.98l1.07,1.09l-0.17,0.16l-1.07-1.09
		c-0.4-0.4-0.8-0.8-1.21-1.19c-0.41-0.39-0.81-0.79-1.21-1.19c-0.35-0.35-0.7-0.76-1.04-1.23c-0.34-0.47-0.61-0.95-0.79-1.46
		c-0.18-0.5-0.24-1.02-0.18-1.53c0.06-0.52,0.32-1,0.77-1.45c0.31-0.3,0.67-0.51,1.09-0.63c0.42-0.12,0.88-0.12,1.39-0.01
		c0.5,0.11,1.04,0.34,1.62,0.68c0.58,0.35,1.18,0.84,1.8,1.47l0.48,0.48l3.84-3.79L70.89,352.96z M67.61,357.63
		c-0.66-0.67-1.29-1-1.89-1c-0.6,0-1.26,0.36-1.98,1.07c-0.68,0.68-1.08,1.32-1.19,1.94c-0.1,0.62,0.18,1.27,0.86,1.95
		c0.09,0.09,0.17,0.17,0.26,0.24c0.09,0.07,0.16,0.13,0.23,0.19l4.07-4.02L67.61,357.63z"/>
</g>
<g>
	<path class="st0" d="M54.66,352.48l0.17-0.16l1.02,1.14l8.44-7.58l-1.02-1.14l0.17-0.16l3.65,4.06l-0.17,0.16l-1.02-1.14
		l-8.44,7.58l1.02,1.14l-0.17,0.16L54.66,352.48z"/>
</g>
<g>
	<path class="st0" d="M51.21,348.04c0.26,0.32,0.52,0.57,0.79,0.77c0.27,0.2,0.56,0.33,0.88,0.4c0.32,0.07,0.68,0.06,1.09-0.01
		c0.41-0.08,0.88-0.23,1.43-0.46l0.14,0.17l-2.35,1.92l-6.57-8.06l2.35-1.92l0.14,0.17c-0.33,0.49-0.58,0.92-0.73,1.3
		c-0.16,0.38-0.23,0.74-0.23,1.07c0,0.33,0.07,0.64,0.21,0.94c0.14,0.3,0.34,0.61,0.6,0.93l0.38,0.46l8.79-7.17l-0.96-1.18
		l0.18-0.15l3.45,4.23l-0.18,0.15l-0.96-1.18l-8.8,7.17L51.21,348.04z"/>
</g>
<g>
	<path class="st0" d="M42.56,337.25l0.19-0.14l0.77,1.06l2.72-6.13l-6.48,0.91l0.84,1.17l-0.19,0.14l-1.85-2.57l0.19-0.14l0.84,1.17
		l6.81-0.96l4.27-3.07l-0.9-1.25l0.19-0.14l3.2,4.44l-0.19,0.14l-0.89-1.24l-3.76,2.71l-3.2,7.05l0.76,1.05l-0.19,0.14L42.56,337.25
		z"/>
</g>
<g>
	<path class="st0" d="M36.46,312.73c0.11-0.08,0.24-0.2,0.41-0.35c0.17-0.15,0.33-0.33,0.5-0.54c0.17-0.21,0.33-0.45,0.48-0.71
		c0.15-0.26,0.27-0.55,0.36-0.86c0.11-0.34,0.16-0.65,0.16-0.92s-0.02-0.52-0.07-0.74c-0.05-0.22-0.12-0.42-0.2-0.59
		c-0.09-0.17-0.17-0.33-0.25-0.48c-0.28-0.52-0.58-0.9-0.92-1.14c-0.34-0.25-0.67-0.4-1.01-0.46c-0.34-0.07-0.65-0.07-0.95-0.01
		c-0.3,0.06-0.55,0.14-0.74,0.25c-0.36,0.19-0.61,0.44-0.76,0.73s-0.22,0.63-0.22,0.99s0.04,0.76,0.12,1.18s0.17,0.85,0.27,1.29
		c0.09,0.44,0.16,0.88,0.2,1.32c0.04,0.44,0.02,0.87-0.07,1.28c-0.09,0.41-0.26,0.79-0.52,1.15c-0.26,0.36-0.65,0.68-1.18,0.96
		c-0.39,0.21-0.81,0.32-1.27,0.34c-0.46,0.02-0.9-0.05-1.35-0.22c-0.44-0.16-0.87-0.42-1.27-0.76c-0.4-0.34-0.74-0.77-1.01-1.28
		c-0.17-0.32-0.29-0.62-0.37-0.89s-0.13-0.52-0.16-0.74c-0.04-0.22-0.06-0.42-0.08-0.59c-0.02-0.17-0.06-0.32-0.12-0.44
		c-0.07-0.14-0.14-0.21-0.21-0.23c-0.07-0.02-0.17-0.02-0.32-0.01l-0.13-0.23l2.78-1.49l0.1,0.19c-0.28,0.3-0.55,0.6-0.81,0.91
		s-0.47,0.64-0.63,0.99c-0.16,0.35-0.24,0.72-0.24,1.12c0,0.4,0.13,0.84,0.39,1.32c0.21,0.39,0.45,0.71,0.71,0.95
		c0.27,0.24,0.54,0.42,0.83,0.53c0.28,0.11,0.56,0.16,0.84,0.15c0.27-0.01,0.52-0.07,0.74-0.19c0.34-0.18,0.58-0.42,0.7-0.72
		s0.19-0.64,0.2-1.02c0-0.38-0.04-0.79-0.12-1.23c-0.08-0.44-0.17-0.89-0.25-1.35c-0.08-0.46-0.15-0.92-0.2-1.38
		c-0.05-0.46-0.04-0.89,0.04-1.31c0.08-0.42,0.23-0.81,0.47-1.16c0.23-0.36,0.6-0.67,1.08-0.93c0.48-0.26,0.98-0.4,1.52-0.44
		c0.53-0.04,1.06,0.04,1.57,0.22c0.51,0.18,1,0.47,1.45,0.86c0.45,0.39,0.84,0.89,1.17,1.49c0.16,0.3,0.29,0.62,0.39,0.95
		c0.1,0.33,0.19,0.64,0.26,0.93c0.08,0.29,0.14,0.55,0.19,0.79c0.05,0.23,0.1,0.4,0.15,0.49c0.07,0.14,0.15,0.22,0.22,0.26
		s0.19,0.04,0.36,0.02l0.12,0.23l-3.25,1.74L36.46,312.73z"/>
</g>
<g>
	<path class="st0" d="M19.92,297.67l2.58-1.18l0.09,0.2c-0.15,0.13-0.33,0.32-0.54,0.56c-0.21,0.24-0.39,0.53-0.54,0.86
		c-0.15,0.33-0.24,0.71-0.27,1.14c-0.03,0.43,0.07,0.89,0.3,1.38l1.1,2.4l4.66-2.14l-0.39-0.84c-0.17-0.37-0.37-0.66-0.59-0.87
		c-0.22-0.21-0.47-0.35-0.75-0.43c-0.27-0.08-0.58-0.11-0.9-0.1c-0.33,0.02-0.68,0.07-1.05,0.15l-0.09-0.2l4.69-2.15l0.09,0.2
		c-0.26,0.21-0.5,0.42-0.73,0.64c-0.23,0.22-0.41,0.46-0.54,0.71c-0.13,0.26-0.2,0.53-0.22,0.82s0.06,0.61,0.22,0.96l0.46,1.01
		l5.44-2.5l-1.14-2.47c-0.21-0.46-0.48-0.84-0.81-1.14c-0.33-0.3-0.7-0.53-1.11-0.69c-0.41-0.16-0.85-0.24-1.32-0.26
		c-0.46-0.02-0.94,0.02-1.42,0.12l-0.09-0.2l3.3-1.52l4.43,9.63l-0.21,0.1l-0.64-1.39l-10.31,4.74l0.64,1.39l-0.21,0.1L19.92,297.67
		z"/>
</g>
<g>
	<path class="st0" d="M18.88,294.7l-0.22,0.08l-0.9-2.34c-0.17-0.43-0.34-0.86-0.52-1.28c-0.18-0.42-0.35-0.84-0.52-1.27
		c-0.16-0.4-0.28-0.84-0.37-1.32c-0.09-0.48-0.11-0.95-0.05-1.4c0.06-0.45,0.21-0.86,0.46-1.24c0.25-0.37,0.63-0.66,1.14-0.86
		c0.41-0.16,0.8-0.2,1.17-0.13c0.37,0.07,0.7,0.22,1,0.44c0.3,0.22,0.57,0.49,0.81,0.82c0.24,0.32,0.44,0.65,0.61,0.99l0.08-0.03
		c-0.1-0.54-0.18-1.03-0.25-1.46c-0.06-0.43-0.05-0.83,0.02-1.19c0.07-0.36,0.24-0.69,0.51-0.99c0.26-0.3,0.67-0.58,1.21-0.83
		c0.63-0.3,1.14-0.55,1.52-0.73s0.67-0.34,0.86-0.49c0.19-0.14,0.31-0.27,0.34-0.4s0.02-0.28-0.06-0.47
		c-0.08-0.21-0.21-0.35-0.38-0.44c-0.17-0.09-0.33-0.16-0.47-0.23l0.08-0.21c0.14,0.06,0.28,0.13,0.4,0.19
		c0.13,0.06,0.24,0.15,0.36,0.25c0.11,0.11,0.22,0.24,0.33,0.42c0.11,0.17,0.22,0.4,0.32,0.68c0.22,0.57,0.3,1.05,0.24,1.43
		c-0.06,0.39-0.19,0.71-0.4,0.97s-0.46,0.47-0.76,0.62c-0.3,0.16-0.59,0.3-0.86,0.41c-0.42,0.18-0.81,0.37-1.2,0.56
		c-0.38,0.19-0.7,0.41-0.96,0.67c-0.26,0.25-0.43,0.55-0.51,0.89c-0.08,0.34-0.03,0.75,0.16,1.24l0.4,1.02l5.59-2.16l-0.55-1.42
		l0.22-0.08l1.97,5.09l-0.22,0.08l-0.55-1.42l-10.58,4.1L18.88,294.7z M22,288.55c-0.18-0.46-0.38-0.81-0.61-1.03
		c-0.23-0.22-0.47-0.36-0.74-0.41c-0.26-0.05-0.54-0.04-0.82,0.02c-0.28,0.07-0.56,0.16-0.84,0.26c-0.45,0.18-0.83,0.36-1.13,0.54
		c-0.3,0.19-0.53,0.4-0.68,0.62c-0.16,0.23-0.24,0.49-0.24,0.78c0,0.29,0.07,0.64,0.22,1.03c0.04,0.11,0.09,0.22,0.15,0.33
		c0.05,0.11,0.11,0.22,0.16,0.33l4.78-1.85L22,288.55z"/>
</g>
<g>
	<path class="st0" d="M10.99,273.06l2.7-0.86l0.06,0.21c-0.16,0.11-0.36,0.27-0.6,0.49c-0.24,0.22-0.45,0.48-0.65,0.79
		s-0.33,0.67-0.41,1.1c-0.08,0.42-0.04,0.89,0.12,1.41l0.8,2.51l4.89-1.55l-0.28-0.89c-0.12-0.39-0.28-0.7-0.48-0.94
		c-0.2-0.23-0.42-0.41-0.69-0.52c-0.26-0.11-0.56-0.18-0.88-0.21c-0.33-0.02-0.68-0.02-1.06,0.02l-0.07-0.21l4.92-1.56l0.07,0.21
		c-0.28,0.17-0.55,0.35-0.8,0.54c-0.25,0.19-0.46,0.4-0.62,0.64c-0.16,0.24-0.27,0.5-0.31,0.79c-0.05,0.29-0.01,0.62,0.1,0.99
		l0.34,1.06l5.71-1.81l-0.82-2.59c-0.15-0.48-0.38-0.9-0.66-1.23c-0.29-0.34-0.63-0.61-1.02-0.82c-0.39-0.21-0.82-0.35-1.27-0.42
		c-0.46-0.08-0.93-0.09-1.42-0.05l-0.07-0.21l3.46-1.1l3.21,10.1L25.03,279l-0.46-1.45l-10.82,3.44l0.46,1.45L14,282.51
		L10.99,273.06z"/>
</g>
<g>
	<path class="st0" d="M9.17,266.24l6.32-7.28l-0.01-0.03l-7.44,1.86l0.37,1.48l-0.23,0.06l-0.81-3.22l0.23-0.06l0.37,1.48
		l11.23-2.82l0.11,0.43l-8.5,9.83l0.01,0.03l10.09-2.53l-0.37-1.48l0.23-0.06l0.81,3.22l-0.23,0.06l-0.37-1.48l-11.01,2.76
		l0.37,1.48l-0.23,0.06L9.17,266.24z"/>
</g>
<g>
	<path class="st0" d="M7.09,256.82l-0.23,0.04l-0.26-1.5c-0.1-0.56-0.2-1.11-0.31-1.66s-0.22-1.11-0.31-1.66
		c-0.08-0.49-0.14-1.01-0.17-1.57c-0.03-0.56,0-1.12,0.07-1.68s0.22-1.11,0.42-1.64c0.2-0.53,0.49-1.02,0.86-1.46
		s0.84-0.83,1.4-1.15c0.56-0.32,1.25-0.55,2.05-0.69c0.8-0.14,1.51-0.15,2.15-0.03s1.21,0.32,1.7,0.61c0.5,0.29,0.93,0.65,1.29,1.06
		c0.36,0.42,0.67,0.87,0.93,1.35c0.26,0.48,0.46,0.96,0.61,1.44c0.15,0.48,0.26,0.94,0.34,1.37c0.11,0.62,0.21,1.24,0.3,1.86
		c0.09,0.62,0.2,1.24,0.3,1.86l0.26,1.5l-0.23,0.04l-0.26-1.5l-11.18,1.93L7.09,256.82z M17.5,250.15c-0.12-0.71-0.31-1.3-0.57-1.77
		c-0.25-0.47-0.56-0.85-0.9-1.15c-0.35-0.29-0.72-0.51-1.13-0.65c-0.41-0.14-0.82-0.22-1.25-0.26c-0.43-0.03-0.85-0.03-1.26,0.01
		c-0.42,0.04-0.8,0.09-1.16,0.15c-0.88,0.15-1.67,0.34-2.37,0.58c-0.7,0.23-1.27,0.55-1.72,0.96c-0.45,0.41-0.76,0.93-0.94,1.56
		c-0.17,0.63-0.18,1.42-0.01,2.37c0.04,0.22,0.07,0.41,0.11,0.59c0.04,0.17,0.07,0.31,0.11,0.42l11.18-1.93
		C17.58,250.7,17.55,250.41,17.5,250.15z"/>
</g>
<g>
	<path class="st0" d="M3.83,237.04l0.23-0.03l0.18,1.52l11.27-1.36l-0.18-1.52l0.23-0.03l0.65,5.42l-0.23,0.03l-0.18-1.52
		l-11.27,1.36l0.18,1.52l-0.23,0.03L3.83,237.04z"/>
</g>
<g>
	<path class="st0" d="M14.68,228.67l0.23-0.02l0.45,5.44l-0.23,0.02L15,232.58L3.7,233.52l0.12,1.52l-0.23,0.02l-0.12-1.52
		c-0.05-0.56-0.1-1.12-0.16-1.68c-0.06-0.56-0.12-1.12-0.16-1.68c-0.04-0.5-0.04-1.03-0.01-1.61c0.04-0.58,0.15-1.12,0.33-1.63
		c0.19-0.5,0.47-0.93,0.84-1.29c0.38-0.36,0.88-0.56,1.52-0.62c0.43-0.04,0.84,0.04,1.24,0.21c0.4,0.18,0.75,0.47,1.07,0.88
		c0.32,0.41,0.58,0.93,0.8,1.57c0.22,0.64,0.36,1.4,0.44,2.28l0.06,0.68l5.37-0.44L14.68,228.67z M9.16,230.14
		c-0.08-0.94-0.35-1.6-0.8-1.98c-0.46-0.38-1.2-0.53-2.21-0.45c-0.96,0.08-1.68,0.32-2.15,0.73c-0.48,0.41-0.68,1.09-0.6,2.05
		c0.01,0.12,0.03,0.24,0.04,0.35c0.02,0.11,0.04,0.21,0.06,0.29l5.71-0.47L9.16,230.14z"/>
</g>
<g>
	<path class="st0" d="M2.57,217.83l0.23-0.01l0.05,1.53l11.34-0.36l-0.05-1.53l0.23-0.01l0.17,5.46l-0.23,0.01l-0.05-1.53
		l-11.34,0.36l0.05,1.53l-0.23,0.01L2.57,217.83z"/>
</g>
<g>
	<path class="st0" d="M2.76,212.18c-0.01,0.41,0.03,0.77,0.1,1.1c0.08,0.32,0.21,0.61,0.41,0.87c0.2,0.26,0.48,0.49,0.84,0.7
		s0.82,0.4,1.38,0.57l0,0.22l-3.04-0.06l0.2-10.4l3.04,0.06l0,0.22c-0.57,0.16-1.04,0.33-1.4,0.52c-0.37,0.19-0.66,0.41-0.87,0.66
		c-0.21,0.25-0.36,0.54-0.45,0.85c-0.09,0.32-0.14,0.68-0.15,1.09l-0.01,0.6l11.35,0.22l0.03-1.53l0.23,0l-0.1,5.46l-0.23,0
		l0.03-1.53l-11.35-0.22L2.76,212.18z"/>
</g>
<g>
	<path class="st0" d="M3.08,198.48l0.23,0.02l-0.09,1.31l6.01-2.97l-5.56-3.45l-0.1,1.44l-0.23-0.02l0.22-3.16l0.23,0.02l-0.1,1.44
		l5.85,3.62l5.25,0.37l0.11-1.54l0.23,0.02l-0.38,5.46l-0.23-0.02l0.11-1.52L10,199.16l-6.97,3.37l-0.09,1.29l-0.23-0.02
		L3.08,198.48z"/>
</g>
<g>
	<path class="st0" d="M14.16,175.7c0.13,0.01,0.31,0,0.54-0.01c0.22-0.01,0.47-0.04,0.73-0.09c0.27-0.05,0.54-0.13,0.83-0.23
		c0.29-0.1,0.56-0.25,0.83-0.43c0.3-0.2,0.54-0.4,0.72-0.6c0.18-0.2,0.32-0.41,0.42-0.61c0.1-0.2,0.18-0.39,0.22-0.58
		c0.05-0.19,0.09-0.36,0.12-0.53c0.12-0.57,0.13-1.06,0.03-1.47s-0.26-0.74-0.47-1.01c-0.21-0.27-0.46-0.47-0.73-0.62
		s-0.51-0.24-0.73-0.29c-0.4-0.08-0.75-0.06-1.05,0.07c-0.3,0.13-0.57,0.34-0.81,0.62c-0.24,0.28-0.46,0.6-0.66,0.98
		c-0.2,0.38-0.41,0.76-0.63,1.16c-0.21,0.4-0.45,0.78-0.7,1.14c-0.25,0.37-0.54,0.68-0.88,0.93s-0.71,0.44-1.14,0.55
		c-0.43,0.11-0.94,0.1-1.52-0.02c-0.43-0.09-0.83-0.28-1.19-0.56c-0.36-0.28-0.66-0.62-0.89-1.04c-0.24-0.41-0.4-0.88-0.48-1.4
		c-0.09-0.52-0.07-1.06,0.05-1.63c0.08-0.36,0.17-0.66,0.3-0.92s0.24-0.48,0.35-0.67c0.11-0.19,0.22-0.36,0.32-0.5
		s0.16-0.28,0.19-0.41c0.03-0.15,0.03-0.26-0.01-0.32c-0.04-0.06-0.12-0.13-0.23-0.21l0.05-0.26l3.08,0.65l-0.04,0.21
		c-0.41,0.05-0.81,0.11-1.21,0.18s-0.77,0.19-1.12,0.35c-0.35,0.16-0.65,0.4-0.9,0.71c-0.26,0.31-0.44,0.73-0.55,1.26
		c-0.09,0.43-0.11,0.83-0.06,1.18s0.15,0.67,0.29,0.94c0.15,0.27,0.33,0.49,0.54,0.66c0.21,0.17,0.44,0.28,0.69,0.33
		c0.38,0.08,0.71,0.05,1.01-0.1c0.29-0.15,0.56-0.37,0.81-0.65c0.25-0.29,0.48-0.63,0.7-1.01c0.22-0.39,0.44-0.79,0.68-1.2
		c0.23-0.41,0.48-0.8,0.73-1.19c0.26-0.38,0.55-0.71,0.88-0.98c0.33-0.27,0.7-0.47,1.11-0.59c0.41-0.12,0.89-0.13,1.43-0.01
		c0.53,0.11,1.01,0.33,1.44,0.64s0.78,0.71,1.06,1.18c0.27,0.47,0.46,1,0.55,1.59c0.1,0.59,0.07,1.22-0.07,1.89
		c-0.07,0.34-0.17,0.66-0.31,0.98c-0.13,0.32-0.27,0.61-0.4,0.88c-0.13,0.27-0.25,0.51-0.36,0.72s-0.18,0.37-0.2,0.47
		c-0.03,0.15-0.03,0.27,0,0.34c0.03,0.08,0.12,0.16,0.26,0.24l-0.05,0.26l-3.6-0.76L14.16,175.7z"/>
</g>
<g>
	<path class="st0" d="M11.19,153.5l2.73,0.76l-0.06,0.21c-0.2,0-0.45,0.03-0.77,0.08c-0.32,0.05-0.64,0.15-0.97,0.31
		c-0.33,0.16-0.64,0.39-0.94,0.69c-0.3,0.31-0.52,0.72-0.66,1.24l-0.7,2.54l4.94,1.37l0.25-0.9c0.11-0.39,0.15-0.74,0.11-1.05
		c-0.04-0.3-0.13-0.57-0.29-0.81c-0.16-0.24-0.37-0.46-0.63-0.66c-0.26-0.2-0.56-0.39-0.9-0.56l0.06-0.21l4.97,1.38l-0.06,0.21
		c-0.33-0.01-0.65-0.01-0.97,0.02c-0.32,0.02-0.61,0.09-0.87,0.2c-0.27,0.11-0.5,0.27-0.69,0.49c-0.2,0.21-0.35,0.51-0.45,0.88
		l-0.3,1.07l5.77,1.6l0.73-2.62c0.14-0.49,0.18-0.96,0.12-1.4c-0.06-0.44-0.19-0.85-0.41-1.24c-0.21-0.39-0.49-0.74-0.84-1.05
		c-0.34-0.31-0.73-0.59-1.16-0.82l0.06-0.21l3.5,0.97l-2.83,10.22l-0.22-0.06l0.41-1.47l-10.94-3.03l-0.41,1.47l-0.22-0.06
		L11.19,153.5z"/>
</g>
<g>
	<path class="st0" d="M12.27,150.54l-0.22-0.08l0.82-2.37c0.15-0.44,0.29-0.88,0.43-1.31c0.13-0.43,0.27-0.87,0.43-1.31
		c0.14-0.41,0.33-0.83,0.57-1.25s0.53-0.79,0.86-1.1s0.72-0.52,1.15-0.65c0.43-0.13,0.91-0.1,1.43,0.08
		c0.42,0.14,0.74,0.36,0.98,0.65c0.23,0.29,0.39,0.62,0.48,0.98c0.09,0.36,0.11,0.74,0.09,1.14c-0.03,0.4-0.09,0.78-0.18,1.15
		l0.08,0.03c0.27-0.48,0.52-0.9,0.76-1.27c0.23-0.37,0.49-0.67,0.78-0.9c0.29-0.23,0.63-0.37,1.03-0.43
		c0.39-0.06,0.88-0.01,1.46,0.14c0.68,0.18,1.22,0.32,1.63,0.42c0.41,0.11,0.73,0.17,0.97,0.19c0.24,0.02,0.41-0.01,0.52-0.08
		c0.11-0.07,0.19-0.21,0.26-0.39c0.07-0.21,0.07-0.4,0-0.58c-0.07-0.18-0.14-0.34-0.21-0.48l0.19-0.11
		c0.07,0.14,0.13,0.28,0.18,0.41s0.09,0.27,0.11,0.42c0.02,0.15,0.01,0.33-0.02,0.53c-0.03,0.2-0.09,0.44-0.19,0.72
		c-0.2,0.58-0.45,0.99-0.74,1.25c-0.29,0.26-0.6,0.42-0.93,0.49s-0.65,0.06-0.99-0.02c-0.33-0.07-0.64-0.15-0.93-0.24
		c-0.44-0.13-0.86-0.24-1.28-0.34c-0.41-0.1-0.8-0.14-1.16-0.11s-0.68,0.15-0.96,0.35c-0.28,0.21-0.51,0.56-0.68,1.05l-0.36,1.04
		l5.66,1.95l0.5-1.44l0.22,0.08l-1.78,5.16l-0.22-0.08l0.5-1.44l-10.73-3.7L12.27,150.54z M18.62,147.86
		c0.16-0.47,0.23-0.86,0.2-1.18c-0.03-0.31-0.13-0.58-0.3-0.79c-0.17-0.21-0.38-0.38-0.64-0.51c-0.26-0.13-0.53-0.24-0.81-0.34
		c-0.46-0.16-0.87-0.26-1.22-0.31c-0.35-0.05-0.66-0.04-0.92,0.03c-0.26,0.07-0.49,0.22-0.69,0.44c-0.19,0.22-0.36,0.53-0.5,0.93
		c-0.04,0.11-0.07,0.23-0.1,0.35c-0.03,0.12-0.06,0.24-0.09,0.36l4.85,1.67L18.62,147.86z"/>
</g>
<g>
	<path class="st0" d="M20.17,128.9l2.62,1.09l-0.08,0.2c-0.2-0.02-0.45-0.03-0.78-0.02c-0.32,0.01-0.66,0.07-1,0.19
		c-0.35,0.11-0.69,0.3-1.02,0.57c-0.33,0.27-0.6,0.65-0.81,1.15l-1.01,2.44l4.73,1.97l0.36-0.86c0.16-0.38,0.24-0.72,0.24-1.02
		c0-0.3-0.06-0.58-0.19-0.84c-0.13-0.26-0.31-0.5-0.54-0.73c-0.23-0.23-0.51-0.45-0.83-0.67l0.08-0.2l4.76,1.98l-0.08,0.2
		c-0.33-0.05-0.65-0.09-0.96-0.1c-0.32-0.02-0.61,0.01-0.89,0.09c-0.28,0.08-0.53,0.21-0.75,0.4c-0.22,0.19-0.41,0.46-0.56,0.82
		l-0.43,1.03l5.53,2.3l1.04-2.51c0.2-0.47,0.29-0.93,0.29-1.37c0-0.44-0.08-0.87-0.25-1.28c-0.17-0.41-0.4-0.79-0.7-1.15
		c-0.3-0.35-0.65-0.67-1.05-0.96l0.08-0.2l3.36,1.39l-4.07,9.79l-0.21-0.09l0.59-1.41l-10.48-4.36l-0.59,1.41l-0.21-0.09
		L20.17,128.9z"/>
</g>
<g>
	<path class="st0" d="M23.13,122.52l9.52-1.49l0.01-0.03l-6.88-3.37L25.12,119l-0.21-0.1l1.46-2.98l0.21,0.1l-0.67,1.37l10.4,5.09
		l-0.2,0.4l-12.83,2.03l-0.01,0.03l9.34,4.57l0.67-1.37l0.21,0.1l-1.46,2.98l-0.21-0.1l0.67-1.37l-10.19-4.99l-0.67,1.37l-0.21-0.1
		L23.13,122.52z"/>
</g>
<g>
	<path class="st0" d="M27.58,113.99l-0.2-0.12l0.77-1.32c0.28-0.49,0.56-0.98,0.83-1.47c0.27-0.5,0.55-0.99,0.83-1.48
		c0.25-0.43,0.54-0.87,0.88-1.31c0.34-0.44,0.71-0.86,1.14-1.24c0.42-0.38,0.88-0.71,1.37-0.99s1.03-0.46,1.6-0.57
		c0.57-0.1,1.18-0.09,1.81,0.02c0.64,0.12,1.31,0.38,2.02,0.79c0.7,0.41,1.25,0.86,1.67,1.36c0.41,0.5,0.72,1.02,0.92,1.56
		c0.2,0.54,0.3,1.09,0.31,1.65c0.01,0.56-0.04,1.1-0.15,1.63c-0.11,0.53-0.27,1.03-0.46,1.5c-0.2,0.47-0.4,0.89-0.62,1.26
		c-0.32,0.54-0.64,1.08-0.96,1.62c-0.32,0.53-0.65,1.07-0.96,1.62l-0.77,1.32l-0.2-0.12l0.77-1.32l-9.8-5.72L27.58,113.99z
		 M39.85,115.58c0.36-0.62,0.6-1.19,0.71-1.72c0.11-0.52,0.12-1.01,0.05-1.46c-0.08-0.45-0.23-0.86-0.45-1.22
		c-0.22-0.37-0.49-0.7-0.79-1c-0.31-0.3-0.63-0.57-0.97-0.81c-0.34-0.24-0.67-0.45-0.99-0.63c-0.77-0.45-1.5-0.81-2.18-1.08
		c-0.68-0.27-1.33-0.39-1.94-0.37c-0.61,0.02-1.18,0.22-1.72,0.59c-0.54,0.37-1.05,0.97-1.53,1.8c-0.11,0.19-0.21,0.36-0.29,0.52
		c-0.08,0.16-0.14,0.29-0.18,0.39l9.8,5.72C39.55,116.05,39.71,115.81,39.85,115.58z"/>
</g>
<g>
	<path class="st0" d="M37.77,96.76l0.2,0.13l-0.83,1.28l9.52,6.18l0.83-1.28l0.19,0.13l-2.97,4.58l-0.19-0.13l0.83-1.28l-9.52-6.18
		l-0.83,1.28l-0.2-0.13L37.77,96.76z"/>
</g>
<g>
	<path class="st0" d="M51.5,97.29l0.19,0.14l-3.19,4.43l-0.19-0.14l0.89-1.24l-9.21-6.63l-0.89,1.24l-0.19-0.14l0.89-1.24
		c0.33-0.46,0.65-0.92,0.97-1.39c0.32-0.47,0.64-0.93,0.97-1.39c0.29-0.4,0.64-0.82,1.04-1.23c0.4-0.42,0.84-0.76,1.31-1.02
		c0.47-0.26,0.96-0.41,1.48-0.44c0.52-0.03,1.04,0.14,1.56,0.52c0.35,0.25,0.62,0.58,0.81,0.97c0.19,0.39,0.27,0.85,0.25,1.36
		c-0.02,0.51-0.16,1.09-0.4,1.71c-0.25,0.63-0.63,1.3-1.15,2.02l-0.4,0.55l4.38,3.15L51.5,97.29z M46.35,94.82
		c0.55-0.76,0.77-1.44,0.67-2.03c-0.1-0.59-0.56-1.18-1.39-1.78c-0.78-0.56-1.48-0.84-2.11-0.85c-0.63,0-1.22,0.39-1.78,1.17
		c-0.07,0.1-0.13,0.2-0.19,0.29c-0.06,0.1-0.1,0.18-0.15,0.26l4.64,3.35L46.35,94.82z"/>
</g>
<g>
	<path class="st0" d="M49.1,81.28l0.18,0.14l-0.94,1.21l8.96,6.96l0.94-1.21l0.18,0.14l-3.35,4.31l-0.18-0.14l0.94-1.21l-8.96-6.96
		l-0.94,1.21l-0.18-0.14L49.1,81.28z"/>
</g>
<g>
	<path class="st0" d="M52.88,77.12c-0.27,0.31-0.47,0.62-0.62,0.91c-0.15,0.3-0.22,0.61-0.23,0.94c-0.01,0.33,0.06,0.68,0.21,1.07
		c0.15,0.39,0.38,0.83,0.7,1.32l-0.14,0.16l-2.31-1.97l6.76-7.9l2.31,1.97l-0.14,0.16c-0.54-0.24-1.01-0.4-1.42-0.49
		c-0.41-0.09-0.77-0.1-1.09-0.04c-0.32,0.06-0.62,0.19-0.89,0.38c-0.27,0.19-0.54,0.44-0.81,0.75l-0.39,0.45l8.62,7.38l0.99-1.16
		l0.18,0.15l-3.55,4.15L60.9,85.2l0.99-1.16l-8.62-7.38L52.88,77.12z"/>
</g>
<g>
	<path class="st0" d="M62.11,66.6l0.17,0.16l-0.92,0.93l6.5,1.66l-1.97-6.24l-1.01,1.03l-0.17-0.16l2.23-2.25l0.17,0.16l-1.01,1.03
		l2.08,6.56l3.74,3.7l1.08-1.1l0.17,0.16l-3.85,3.89l-0.17-0.16l1.07-1.09l-3.29-3.25l-7.48-1.98l-0.91,0.92l-0.17-0.16L62.11,66.6z
		"/>
</g>
<g>
	<path class="st0" d="M85.15,56.37c0.1,0.09,0.24,0.2,0.41,0.34c0.18,0.14,0.38,0.27,0.62,0.4c0.24,0.13,0.5,0.25,0.78,0.36
		s0.59,0.18,0.91,0.21c0.36,0.05,0.67,0.05,0.94,0.01c0.27-0.04,0.51-0.1,0.72-0.19c0.21-0.08,0.39-0.18,0.55-0.3
		s0.3-0.22,0.43-0.32c0.46-0.36,0.79-0.73,0.97-1.1c0.18-0.38,0.28-0.73,0.29-1.08c0.01-0.34-0.04-0.66-0.15-0.94
		c-0.11-0.29-0.23-0.52-0.37-0.69c-0.25-0.32-0.53-0.53-0.85-0.62c-0.32-0.09-0.65-0.11-1.02-0.05s-0.74,0.16-1.14,0.32
		c-0.4,0.15-0.81,0.31-1.22,0.48c-0.42,0.16-0.84,0.3-1.27,0.42c-0.43,0.12-0.85,0.16-1.27,0.15s-0.83-0.12-1.22-0.32
		c-0.4-0.2-0.78-0.53-1.15-1c-0.27-0.35-0.45-0.75-0.55-1.19s-0.1-0.9-0.01-1.37c0.09-0.47,0.26-0.93,0.53-1.38
		c0.27-0.45,0.63-0.86,1.09-1.21c0.29-0.22,0.56-0.39,0.82-0.51c0.26-0.12,0.49-0.21,0.7-0.28c0.21-0.07,0.4-0.13,0.57-0.18
		s0.3-0.11,0.41-0.19c0.12-0.09,0.19-0.18,0.2-0.25c0.01-0.07-0.01-0.17-0.04-0.31l0.21-0.16l1.93,2.49l-0.17,0.13
		c-0.34-0.22-0.69-0.44-1.04-0.65c-0.35-0.21-0.71-0.36-1.08-0.45c-0.37-0.1-0.75-0.11-1.15-0.04c-0.39,0.07-0.81,0.27-1.23,0.6
		c-0.35,0.27-0.62,0.56-0.81,0.86c-0.19,0.3-0.32,0.6-0.38,0.9c-0.06,0.3-0.07,0.58-0.01,0.85c0.05,0.27,0.16,0.5,0.31,0.7
		c0.24,0.31,0.51,0.5,0.83,0.57c0.32,0.08,0.66,0.08,1.04,0.02c0.38-0.06,0.77-0.17,1.19-0.32c0.42-0.16,0.85-0.31,1.29-0.48
		c0.44-0.16,0.88-0.3,1.32-0.43c0.44-0.13,0.88-0.19,1.3-0.18c0.42,0.01,0.83,0.1,1.22,0.27c0.39,0.17,0.76,0.48,1.1,0.91
		c0.33,0.43,0.56,0.9,0.68,1.42c0.12,0.52,0.14,1.05,0.04,1.58c-0.09,0.54-0.3,1.06-0.61,1.57c-0.31,0.51-0.73,0.98-1.28,1.4
		c-0.27,0.21-0.56,0.39-0.87,0.55c-0.31,0.15-0.6,0.29-0.87,0.42s-0.52,0.23-0.74,0.31s-0.37,0.16-0.46,0.23
		c-0.12,0.1-0.19,0.18-0.22,0.26c-0.02,0.08-0.01,0.2,0.04,0.35l-0.21,0.16l-2.26-2.91L85.15,56.37z"/>
</g>
<g>
	<path class="st0" d="M96.99,37.53l1.63,2.32l-0.18,0.12c-0.15-0.12-0.37-0.27-0.65-0.43c-0.28-0.16-0.59-0.29-0.95-0.38
		c-0.35-0.09-0.74-0.11-1.17-0.06c-0.43,0.05-0.86,0.23-1.3,0.54l-2.16,1.52l2.95,4.2l0.76-0.53c0.33-0.23,0.58-0.48,0.75-0.74
		c0.17-0.26,0.26-0.53,0.29-0.81c0.03-0.28,0.01-0.59-0.07-0.91c-0.08-0.32-0.19-0.65-0.34-1.01l0.18-0.12l2.96,4.22l-0.18,0.12
		c-0.25-0.22-0.5-0.42-0.76-0.6c-0.26-0.18-0.52-0.32-0.8-0.4s-0.56-0.11-0.85-0.06s-0.59,0.17-0.91,0.4l-0.91,0.64l3.44,4.9
		l2.23-1.56c0.42-0.29,0.74-0.63,0.98-1c0.24-0.38,0.4-0.78,0.47-1.22c0.08-0.43,0.09-0.88,0.02-1.34s-0.19-0.92-0.37-1.37
		l0.18-0.12l2.09,2.97l-8.68,6.09l-0.13-0.19l1.25-0.88l-6.52-9.29L89,43.42l-0.13-0.19L96.99,37.53z"/>
</g>
<g>
	<path class="st0" d="M99.86,35.91l-0.12-0.2l2.15-1.29c0.4-0.24,0.79-0.48,1.17-0.73c0.38-0.25,0.77-0.49,1.17-0.73
		c0.37-0.22,0.78-0.42,1.24-0.59c0.46-0.17,0.91-0.27,1.37-0.29c0.45-0.02,0.88,0.06,1.29,0.24c0.41,0.18,0.76,0.51,1.04,0.98
		c0.23,0.38,0.34,0.76,0.33,1.13c-0.01,0.37-0.1,0.73-0.26,1.06c-0.17,0.33-0.39,0.64-0.67,0.93c-0.28,0.29-0.57,0.54-0.88,0.77
		l0.04,0.07c0.52-0.19,0.98-0.36,1.4-0.49c0.42-0.13,0.81-0.2,1.18-0.18s0.72,0.12,1.06,0.33c0.34,0.21,0.68,0.56,1.03,1.05
		c0.41,0.57,0.73,1.03,0.97,1.37c0.25,0.34,0.45,0.6,0.62,0.77c0.17,0.17,0.32,0.26,0.45,0.27c0.13,0.01,0.28-0.03,0.45-0.13
		c0.19-0.11,0.31-0.26,0.37-0.45c0.06-0.18,0.11-0.35,0.14-0.5l0.22,0.04c-0.04,0.15-0.08,0.3-0.12,0.43
		c-0.04,0.13-0.1,0.27-0.19,0.39c-0.09,0.13-0.2,0.26-0.35,0.4c-0.15,0.14-0.35,0.28-0.61,0.43c-0.52,0.31-0.98,0.47-1.37,0.48
		c-0.39,0.01-0.74-0.07-1.03-0.23c-0.29-0.16-0.54-0.38-0.75-0.65c-0.21-0.27-0.39-0.53-0.55-0.78c-0.25-0.38-0.5-0.74-0.76-1.08
		c-0.25-0.34-0.53-0.62-0.82-0.83s-0.62-0.33-0.96-0.35c-0.35-0.02-0.75,0.1-1.19,0.37l-0.94,0.56l3.08,5.14l1.31-0.78l0.12,0.2
		l-4.68,2.81l-0.12-0.2l1.31-0.78l-5.83-9.73L99.86,35.91z M106.45,37.93c0.43-0.26,0.73-0.51,0.91-0.78
		c0.18-0.26,0.27-0.53,0.28-0.79c0.01-0.27-0.05-0.54-0.16-0.8c-0.12-0.27-0.25-0.53-0.4-0.78c-0.25-0.42-0.49-0.76-0.73-1.02
		s-0.48-0.45-0.73-0.57c-0.25-0.11-0.52-0.15-0.81-0.11c-0.29,0.04-0.61,0.17-0.97,0.39c-0.1,0.06-0.21,0.13-0.3,0.2
		s-0.2,0.14-0.3,0.22l2.64,4.4L106.45,37.93z"/>
</g>
<g>
	<path class="st0" d="M119.81,24.4l1.31,2.52l-0.19,0.1c-0.14-0.14-0.33-0.31-0.58-0.51s-0.55-0.37-0.89-0.5
		c-0.34-0.14-0.72-0.21-1.15-0.22c-0.43-0.01-0.88,0.11-1.36,0.36l-2.34,1.22l2.37,4.55l0.82-0.43c0.36-0.19,0.64-0.4,0.84-0.63
		c0.2-0.23,0.33-0.49,0.4-0.77c0.07-0.28,0.08-0.58,0.05-0.91c-0.03-0.33-0.1-0.67-0.21-1.04l0.19-0.1l2.38,4.58l-0.19,0.1
		c-0.22-0.25-0.44-0.48-0.67-0.7c-0.23-0.22-0.48-0.38-0.74-0.5c-0.26-0.12-0.54-0.18-0.83-0.18s-0.61,0.09-0.95,0.27l-0.99,0.51
		l2.76,5.31l2.41-1.25c0.45-0.23,0.82-0.52,1.1-0.86c0.28-0.34,0.49-0.72,0.63-1.14c0.14-0.42,0.2-0.86,0.2-1.33
		s-0.07-0.93-0.19-1.41l0.19-0.1l1.68,3.22l-9.41,4.89l-0.11-0.21l1.35-0.7l-5.24-10.07l-1.35,0.7L111,28.98L119.81,24.4z"/>
</g>
<g>
	<path class="st0" d="M126.17,21.4l8.26,4.97l0.03-0.01l-3.12-7l-1.39,0.62l-0.09-0.21l3.03-1.35l0.09,0.21l-1.39,0.62l4.71,10.58
		l-0.41,0.18l-11.14-6.68l-0.03,0.01l4.23,9.5l1.39-0.62l0.09,0.21l-3.03,1.35l-0.09-0.21l1.39-0.62l-4.61-10.37l-1.39,0.62
		L122.59,23L126.17,21.4z"/>
</g>
<g>
	<path class="st0" d="M134.92,17.84l-0.08-0.22l1.43-0.53c0.53-0.2,1.05-0.4,1.58-0.61c0.52-0.21,1.05-0.42,1.58-0.62
		c0.47-0.17,0.97-0.33,1.51-0.46c0.54-0.13,1.1-0.21,1.66-0.24c0.57-0.03,1.13,0.01,1.69,0.11c0.56,0.1,1.09,0.29,1.59,0.57
		c0.51,0.28,0.97,0.67,1.39,1.16c0.42,0.49,0.77,1.12,1.06,1.89c0.28,0.76,0.43,1.46,0.43,2.11c0,0.65-0.09,1.24-0.28,1.79
		s-0.46,1.03-0.81,1.47c-0.34,0.44-0.73,0.82-1.15,1.16c-0.42,0.34-0.86,0.63-1.3,0.87s-0.88,0.43-1.28,0.58
		c-0.59,0.22-1.18,0.44-1.77,0.64c-0.59,0.21-1.18,0.42-1.77,0.64l-1.43,0.53l-0.08-0.22l1.43-0.53l-3.97-10.63L134.92,17.84z
		 M143.42,26.84c0.67-0.25,1.22-0.55,1.64-0.88s0.74-0.71,0.96-1.1c0.22-0.4,0.37-0.81,0.43-1.23s0.07-0.85,0.02-1.27
		c-0.05-0.43-0.13-0.84-0.24-1.24c-0.11-0.4-0.23-0.77-0.36-1.11c-0.31-0.84-0.65-1.58-1-2.22c-0.36-0.64-0.78-1.14-1.26-1.51
		s-1.05-0.58-1.71-0.63c-0.65-0.05-1.43,0.09-2.33,0.43c-0.21,0.08-0.39,0.15-0.56,0.22c-0.16,0.07-0.29,0.13-0.39,0.19l3.97,10.63
		C142.89,27.02,143.17,26.93,143.42,26.84z"/>
</g>
<g>
	<path class="st0" d="M153.96,11.04l0.07,0.22l-1.46,0.44l3.3,10.86l1.46-0.44l0.07,0.22l-5.22,1.59l-0.07-0.22l1.46-0.44
		l-3.3-10.86l-1.46,0.44l-0.07-0.22L153.96,11.04z"/>
</g>
<g>
	<path class="st0" d="M164.09,20.27l0.06,0.22l-5.28,1.39l-0.06-0.22l1.48-0.39l-2.9-10.97l-1.48,0.39l-0.06-0.22l1.48-0.39
		c0.55-0.14,1.09-0.3,1.63-0.46c0.54-0.16,1.08-0.31,1.63-0.46c0.48-0.13,1.01-0.22,1.59-0.29s1.13-0.05,1.66,0.04
		c0.53,0.1,1,0.3,1.42,0.6c0.42,0.31,0.71,0.77,0.87,1.39c0.11,0.42,0.11,0.84,0.01,1.26c-0.11,0.42-0.33,0.83-0.68,1.21
		c-0.34,0.38-0.81,0.74-1.4,1.06c-0.59,0.33-1.31,0.6-2.17,0.83l-0.66,0.17l1.38,5.21L164.09,20.27z M161.68,15.09
		c0.91-0.24,1.51-0.62,1.81-1.14c0.3-0.52,0.32-1.27,0.06-2.25c-0.25-0.93-0.61-1.59-1.09-1.99c-0.48-0.4-1.19-0.48-2.12-0.23
		c-0.12,0.03-0.23,0.07-0.33,0.1c-0.1,0.04-0.2,0.08-0.28,0.11l1.46,5.53L161.68,15.09z"/>
</g>
<g>
	<path class="st0" d="M172.63,6.46l0.05,0.23L171.18,7l2.34,11.1l1.49-0.32l0.05,0.23l-5.34,1.13l-0.05-0.23l1.49-0.32l-2.34-11.1
		l-1.49,0.32l-0.05-0.23L172.63,6.46z"/>
</g>
<g>
	<path class="st0" d="M178.23,5.68c-0.4,0.06-0.76,0.16-1.06,0.29c-0.3,0.13-0.56,0.32-0.78,0.56c-0.22,0.24-0.4,0.56-0.54,0.95
		c-0.14,0.39-0.25,0.88-0.32,1.46l-0.21,0.03l-0.48-3l10.27-1.64l0.48,3l-0.21,0.03c-0.25-0.53-0.51-0.96-0.76-1.29
		c-0.25-0.33-0.52-0.57-0.81-0.74c-0.28-0.16-0.59-0.26-0.92-0.29c-0.33-0.03-0.7-0.02-1.1,0.05l-0.59,0.09l1.78,11.21l1.51-0.24
		l0.04,0.23l-5.39,0.86l-0.04-0.23l1.51-0.24l-1.78-11.21L178.23,5.68z"/>
</g>
<g>
	<path class="st0" d="M191.95,3.59l0.02,0.23l-1.3,0.12l3.92,5.44l2.49-6.05l-1.44,0.14l-0.02-0.23l3.15-0.3l0.02,0.23l-1.44,0.14
		l-2.61,6.36l0.5,5.24l1.54-0.15L196.8,15l-5.45,0.52l-0.02-0.23l1.52-0.15l-0.44-4.61l-4.47-6.32l-1.29,0.12l-0.02-0.23
		L191.95,3.59z"/>
</g>
</svg>
