<?xml version="1.0" encoding="utf-8"?>
<!-- Generator: Adobe Illustrator 27.0.0, SVG Export Plug-In . SVG Version: 6.00 Build 0)  -->
<svg version="1.1" id="Layer_1" xmlns="http://www.w3.org/2000/svg" xmlns:xlink="http://www.w3.org/1999/xlink" x="0px" y="0px"
	 viewBox="0 0 28 28" style="enable-background:new 0 0 28 28;" xml:space="preserve">
<style type="text/css">
	.st0{fill:#CB1A1D;}
	.st1{display:none;}
	.st2{display:inline;fill:#CB1A1D;}
	.st3{display:inline;fill:none;stroke:#FFFFFF;stroke-width:1.417;stroke-linecap:round;stroke-linejoin:round;}
</style>
<path class="st0" d="M13.96,15.16c2.57,0.05,4.73-2.07,4.78-4.69c0.05-2.61-2.05-4.77-4.7-4.82C11.46,5.6,9.3,7.7,9.24,10.32
	C9.19,12.95,11.29,15.1,13.96,15.16 M14.5,0.95c0.26,0.03,0.52,0.06,0.78,0.1c3.49,0.56,5.98,2.47,7.41,5.68
	c0.91,2.05,0.97,4.19,0.35,6.35c-0.53,1.87-1.37,3.61-2.33,5.29c-1.69,2.94-3.72,5.65-5.94,8.22c-0.52,0.61-1.03,0.61-1.55,0
	c-2.51-2.92-4.8-6-6.6-9.43c-0.82-1.57-1.54-3.18-1.87-4.93C4.11,8.8,5.09,5.86,7.61,3.46c1.49-1.42,3.3-2.2,5.34-2.45
	c0.18-0.02,0.35-0.04,0.53-0.06H14.5z"/>
<g class="st1">
	<path class="st2" d="M27.04,12.27c-0.6-2.81-1.93-5.28-3.87-7.15c-1.96-1.96-4.49-3.3-7.15-3.8c-0.24-0.07-0.5-0.02-0.71,0.13
		c-0.21,0.15-0.34,0.39-0.34,0.66v0.11l0.05,0.1c0.09,0.19,0.31,0.52,0.68,0.64l0.06,0.01c2.33,0.45,4.48,1.61,6.22,3.35
		c1.75,1.75,2.87,3.86,3.34,6.29l0.02,0.06c0.14,0.41,0.45,0.66,0.85,0.66h0.14l0.07-0.02C26.82,13.16,27.17,12.73,27.04,12.27"/>
	<path class="st2" d="M20.88,7.62c-1.42-1.42-3.22-2.4-5.2-2.82c-0.24-0.07-0.51-0.02-0.72,0.13c-0.19,0.13-0.3,0.34-0.33,0.57
		c-0.04,0.14-0.03,0.29,0.03,0.44c0.1,0.23,0.3,0.42,0.55,0.5l0.04,0.01c1.71,0.41,3.22,1.23,4.36,2.38
		c1.15,1.15,1.97,2.66,2.39,4.4c0.14,0.41,0.45,0.66,0.85,0.66H23l0.07-0.02c0.39-0.13,0.66-0.5,0.66-0.92l-0.01-0.09
		C23.3,10.92,22.35,9.17,20.88,7.62"/>
	<path class="st2" d="M18.25,10.19c-0.77-0.77-1.84-1.38-3.09-1.77c-0.44-0.15-0.98,0.12-1.13,0.56c-0.08,0.22-0.05,0.47,0.08,0.67
		c0.11,0.18,0.28,0.32,0.49,0.39l0.02,0c0.94,0.27,1.76,0.73,2.37,1.34c0.61,0.61,1.07,1.43,1.35,2.39
		c0.14,0.41,0.45,0.66,0.85,0.66h0.21l0.07-0.02c0.45-0.15,0.7-0.61,0.57-1.11C19.66,12.05,19.06,11,18.25,10.19"/>
	<path class="st2" d="M8.94,11.38c0.59-0.55,1.1-0.96,1.19-1.05C10.77,9.5,10.5,8.36,10,7.63L9.9,7.49C9.26,6.53,7.48,3.92,6.7,3.37
		C6.38,3.19,6.02,3.05,5.6,3.05c-0.41,0-0.82,0.09-1.19,0.32C4.32,3.42,4.09,3.6,3.87,3.88l5.08,7.41V11.38z"/>
	<path class="st2" d="M15.99,19.15c-0.41,0.5-0.92,1.05-1.28,1.46c-0.09,0.09-0.18,0.14-0.27,0.09c-1.33-0.32-3.02-1.42-4.53-2.93
		c-1.51-1.51-2.61-3.2-2.93-4.53c-0.05-0.09,0-0.23,0.09-0.28c0.41-0.36,0.96-0.82,1.46-1.28c-0.05,0-0.09-0.05-0.14-0.09L3.36,4.24
		C2.68,4.93,1.85,5.75,1.72,5.93C1.67,5.98,1.62,6.02,1.62,6.07C1.58,6.16,1.53,6.21,1.49,6.26c-1.23,2.42-0.18,7.32,0.96,9.97
		c1.42,3.34,5.63,7.55,8.97,8.97c1.69,0.73,4.67,1.51,7.09,1.51c1.19,0,2.15-0.18,2.88-0.55c0.09-0.05,0.14-0.09,0.23-0.14
		c0.05-0.05,0.09-0.05,0.14-0.09c0.18-0.14,1.01-0.96,1.69-1.65L15.99,19.15z"/>
	<path class="st2" d="M24.36,21.03c-0.46-0.73-2.61-2.15-3.75-2.93c-0.18-0.14-0.37-0.27-0.5-0.37c-0.46-0.32-1.05-0.5-1.56-0.5
		c-0.46,0-0.82,0.14-1.14,0.37c-0.09,0.09-0.5,0.55-1.01,1.14l7.5,5.17c0.23-0.28,0.41-0.46,0.5-0.55
		C24.77,22.59,24.77,21.63,24.36,21.03"/>
</g>
<g class="st1">
	<path class="st2" d="M14,26.36c6.82,0,12.36-5.53,12.36-12.36c0-6.83-5.53-12.36-12.36-12.36C7.18,1.64,1.64,7.17,1.64,14
		C1.64,20.83,7.18,26.36,14,26.36"/>
	<polyline class="st3" points="14.19,5.25 14.19,15.59 8.16,12.25 	"/>
</g>
</svg>
