<?xml version="1.0" encoding="utf-8"?>
<!-- Generator: Adobe Illustrator 27.0.0, SVG Export Plug-In . SVG Version: 6.00 Build 0)  -->
<svg version="1.1" id="Layer_1" xmlns="http://www.w3.org/2000/svg" xmlns:xlink="http://www.w3.org/1999/xlink" x="0px" y="0px"
	 viewBox="0 0 1960 165.59" style="enable-background:new 0 0 1960 165.59;" xml:space="preserve">
<style type="text/css">
	.st0{display:none;fill:#EFEFEF;}
	.st1{fill:#CB1A1D;}
</style>
<path class="st0" d="M966.52,113.28c-14.8,0-26.79,11.99-26.79,26.79c0,13.37,9.8,24.45,22.6,26.46v-18.72h-6.8v-7.74h6.8v-5.9
	c0-6.71,4-10.42,10.12-10.42c2.93,0,6,0.52,6,0.52v6.59h-3.38c-3.33,0-4.36,2.07-4.36,4.18v5.02h7.43l-1.19,7.74h-6.24v18.72
	c12.81-2.01,22.6-13.09,22.6-26.46C993.31,125.27,981.31,113.28,966.52,113.28"/>
<path class="st0" d="M984.91,132.74c0,0.28-0.23,0.51-0.51,0.51h-5.11v1.97h5.11c0.28,0,0.51,0.23,0.51,0.51v1.9
	c0,0.28-0.23,0.51-0.51,0.51h-5.11v1.97h5.11c0.28,0,0.51,0.23,0.51,0.51v1.9c0,0.28-0.23,0.51-0.51,0.51h-7.52h-0.01
	c-0.28,0-0.51-0.23-0.51-0.51v-0.01v0v-11.67v-0.01c0-0.28,0.23-0.51,0.51-0.51h0.01h7.52c0.28,0,0.51,0.23,0.51,0.51V132.74z
	 M974.53,142.53c0,0.28-0.23,0.51-0.51,0.51h-1.89c-0.05,0-0.09-0.01-0.13-0.02c0,0,0,0-0.01,0c-0.01,0-0.02-0.01-0.03-0.01
	c-0.01,0-0.01,0-0.02-0.01c-0.01,0-0.02-0.01-0.03-0.01c-0.01,0-0.02-0.01-0.02-0.01c-0.01,0-0.01,0-0.02-0.01
	c-0.01-0.01-0.02-0.01-0.03-0.02c0,0,0,0-0.01-0.01c-0.05-0.03-0.09-0.08-0.13-0.13l-5.36-7.23v6.94c0,0.28-0.23,0.51-0.51,0.51
	h-1.9c-0.28,0-0.51-0.23-0.51-0.51v-11.69c0-0.28,0.23-0.51,0.51-0.51h1.89c0.01,0,0.01,0,0.02,0c0.01,0,0.02,0,0.03,0
	c0.01,0,0.02,0,0.03,0c0.01,0,0.02,0,0.02,0c0.01,0,0.02,0,0.03,0.01c0.01,0,0.01,0,0.02,0c0.01,0,0.02,0.01,0.03,0.01
	c0.01,0,0.01,0,0.02,0.01c0.01,0,0.02,0.01,0.03,0.01c0.01,0,0.01,0,0.02,0.01c0.01,0,0.02,0.01,0.03,0.02
	c0.01,0,0.01,0.01,0.02,0.01c0.01,0.01,0.02,0.01,0.03,0.02c0.01,0,0.01,0.01,0.01,0.01c0.01,0.01,0.02,0.01,0.03,0.02
	c0,0,0.01,0.01,0.01,0.01c0.01,0.01,0.02,0.02,0.03,0.03c0,0,0,0,0,0c0.02,0.02,0.03,0.04,0.04,0.05l5.35,7.22v-6.94
	c0-0.28,0.23-0.51,0.51-0.51h1.9c0.28,0,0.51,0.23,0.51,0.51V142.53z M961.6,142.53c0,0.28-0.23,0.51-0.51,0.51h-1.9
	c-0.28,0-0.51-0.23-0.51-0.51v-11.69c0-0.28,0.23-0.51,0.51-0.51h1.9c0.28,0,0.51,0.23,0.51,0.51V142.53z M957.07,142.53
	c0,0.28-0.23,0.51-0.51,0.51h-7.52h-0.01c-0.28,0-0.51-0.23-0.51-0.51v-0.01v0v-11.68c0-0.28,0.23-0.51,0.51-0.51h1.9
	c0.28,0,0.51,0.23,0.51,0.51v9.28h5.11c0.28,0,0.51,0.23,0.51,0.51V142.53z M993.31,136.12c0-11.99-12.02-21.74-26.79-21.74
	c-14.77,0-26.79,9.75-26.79,21.74c0,10.75,9.53,19.75,22.4,21.45c0.87,0.19,2.06,0.58,2.36,1.32c0.27,0.68,0.18,1.74,0.09,2.42
	c0,0-0.32,1.89-0.38,2.29c-0.12,0.68-0.54,2.65,2.32,1.44c2.86-1.21,15.43-9.08,21.05-15.55h0
	C991.45,145.23,993.31,140.91,993.31,136.12"/>
<path class="st1" d="M980,139.87C614.5,139.87,276.18,88.04,0,0v165.59h1960V0C1683.82,88.04,1345.5,139.87,980,139.87"/>
</svg>
