<?xml version="1.0" encoding="utf-8"?>
<!-- Generator: Adobe Illustrator 27.0.0, SVG Export Plug-In . SVG Version: 6.00 Build 0)  -->
<svg version="1.1" id="Layer_1" xmlns="http://www.w3.org/2000/svg" xmlns:xlink="http://www.w3.org/1999/xlink" x="0px" y="0px"
	 viewBox="0 0 50 50" style="enable-background:new 0 0 50 50;" xml:space="preserve">
<style type="text/css">
	.st0{fill:#CB1A1D;}
</style>
<path class="st0" d="M42.2,12.7h-6.6L34,8.3c-0.1-0.3-0.3-0.6-0.6-0.8c-0.3-0.2-0.6-0.3-0.9-0.3h-15c-0.7,0-1.2,0.4-1.5,1l-1.6,4.4
	H7.8c-2.2,0-3.9,1.7-3.9,3.9v22.3c0,2.2,1.7,3.9,3.9,3.9h34.4c2.2,0,3.9-1.7,3.9-3.9V16.6C46.1,14.4,44.3,12.7,42.2,12.7z M25,35
	c-4.3,0-7.8-3.5-7.8-7.8s3.5-7.8,7.8-7.8s7.8,3.5,7.8,7.8S29.3,35,25,35z M20.3,27.1c0,1.2,0.5,2.4,1.4,3.3c0.9,0.9,2.1,1.4,3.3,1.4
	s2.4-0.5,3.3-1.4c0.9-0.9,1.4-2.1,1.4-3.3s-0.5-2.4-1.4-3.3c-0.9-0.9-2.1-1.4-3.3-1.4s-2.4,0.5-3.3,1.4
	C20.8,24.7,20.3,25.9,20.3,27.1z"/>
</svg>
