<svg width="100" height="101" viewBox="0 0 100 101" fill="none" xmlns="http://www.w3.org/2000/svg">
<path d="M84.375 26.1812H71.0938L67.9297 17.314C67.7111 16.7072 67.3105 16.1827 66.7826 15.8122C66.2548 15.4416 65.6254 15.2431 64.9805 15.2437H35.0195C33.7012 15.2437 32.5195 16.0737 32.0801 17.314L28.9062 26.1812H15.625C11.3086 26.1812 7.8125 29.6772 7.8125 33.9937V78.5249C7.8125 82.8413 11.3086 86.3374 15.625 86.3374H84.375C88.6914 86.3374 92.1875 82.8413 92.1875 78.5249V33.9937C92.1875 29.6772 88.6914 26.1812 84.375 26.1812ZM50 70.7124C41.3672 70.7124 34.375 63.7202 34.375 55.0874C34.375 46.4546 41.3672 39.4624 50 39.4624C58.6328 39.4624 65.625 46.4546 65.625 55.0874C65.625 63.7202 58.6328 70.7124 50 70.7124ZM40.625 55.0874C40.625 57.5738 41.6127 59.9584 43.3709 61.7165C45.129 63.4747 47.5136 64.4624 50 64.4624C52.4864 64.4624 54.871 63.4747 56.6291 61.7165C58.3873 59.9584 59.375 57.5738 59.375 55.0874C59.375 52.601 58.3873 50.2164 56.6291 48.4583C54.871 46.7001 52.4864 45.7124 50 45.7124C47.5136 45.7124 45.129 46.7001 43.3709 48.4583C41.6127 50.2164 40.625 52.601 40.625 55.0874Z" fill="white"/>
</svg>
