<?xml version="1.0" encoding="UTF-8"?>
<svg id="Layer_2" data-name="Layer 2" xmlns="http://www.w3.org/2000/svg" viewBox="0 0 38.92 29.24">
  <defs>
    <style>
      .cls-1 {
        fill: #cb1a1d;
      }
    </style>
  </defs>
  <g id="_圖層_1" data-name="圖層 1">
    <path class="cls-1" d="M36.38,0c-8.9,3.52-14.47,10.86-14.47,19.17,0,5.96,3.62,10.07,8.8,10.07,4.69,0,8.21-3.33,8.21-7.73,0-3.42-1.96-6.06-5.28-6.94q-2.45-.68-2.84-1.07c-.39-.39-.69-1.17-.69-1.86,0-3.32,3.03-6.55,8.41-9.09l-2.15-2.54ZM14.47,0C5.58,3.52,0,10.86,0,19.17c0,5.96,3.52,10.07,8.8,10.07,4.69,0,8.22-3.33,8.22-7.73,0-3.42-1.96-6.06-5.28-6.94q-2.45-.68-2.84-1.07c-.39-.39-.68-1.17-.68-1.86,0-3.23,2.93-6.45,8.41-9.09L14.47,0Z"/>
  </g>
</svg>