<?xml version="1.0" encoding="utf-8"?>
<!-- Generator: Adobe Illustrator 27.0.0, SVG Export Plug-In . SVG Version: 6.00 Build 0)  -->
<svg version="1.1" id="Layer_1" xmlns="http://www.w3.org/2000/svg" xmlns:xlink="http://www.w3.org/1999/xlink" x="0px" y="0px"
	 viewBox="0 0 140 140" style="enable-background:new 0 0 140 140;" xml:space="preserve">
<style type="text/css">
	.st0{display:none;fill:#CB1A1D;}
	.st1{fill:#CB1A1D;}
</style>
<path class="st0" d="M109.64,54.55c0,0.61-0.49,1.1-1.1,1.1H97.51v4.25h11.03c0.61,0,1.1,0.5,1.1,1.1v4.1c0,0.61-0.49,1.1-1.1,1.1
	H97.51v4.25h11.03c0.61,0,1.1,0.5,1.1,1.1v4.09c0,0.61-0.49,1.1-1.1,1.1h-16.2h-0.02c-0.61,0-1.1-0.49-1.1-1.1v-0.02v0V50.48v0
	v-0.03c0-0.61,0.49-1.1,1.1-1.1h0.02h16.2c0.61,0,1.1,0.5,1.1,1.1V54.55z M87.27,75.66c0,0.61-0.49,1.1-1.1,1.1H82.1
	c-0.1,0-0.2-0.02-0.29-0.04c-0.01,0-0.01,0-0.02,0c-0.03-0.01-0.05-0.02-0.08-0.03c-0.01,0-0.02-0.01-0.03-0.01
	c-0.02-0.01-0.04-0.02-0.05-0.02c-0.02-0.01-0.04-0.02-0.05-0.02c-0.01-0.01-0.02-0.01-0.03-0.02c-0.02-0.01-0.05-0.03-0.07-0.04
	c0,0-0.01,0-0.01-0.01c-0.11-0.07-0.2-0.17-0.28-0.28L69.63,60.69v14.96c0,0.61-0.49,1.1-1.1,1.1h-4.1c-0.61,0-1.1-0.49-1.1-1.1
	v-25.2c0-0.61,0.49-1.1,1.1-1.1h4.07c0.01,0,0.02,0,0.04,0c0.02,0,0.04,0,0.06,0s0.04,0,0.06,0.01c0.02,0,0.03,0,0.05,0.01
	c0.02,0,0.04,0.01,0.07,0.02c0.01,0,0.03,0.01,0.04,0.01c0.02,0.01,0.04,0.01,0.07,0.02c0.01,0,0.02,0.01,0.04,0.01
	c0.02,0.01,0.04,0.02,0.06,0.03c0.01,0,0.02,0.01,0.04,0.02c0.02,0.01,0.04,0.02,0.06,0.03c0.01,0.01,0.02,0.01,0.03,0.02
	c0.02,0.01,0.04,0.03,0.06,0.04c0.01,0.01,0.02,0.01,0.03,0.02c0.02,0.02,0.04,0.03,0.06,0.05c0.01,0.01,0.01,0.01,0.02,0.02
	c0.02,0.02,0.05,0.04,0.07,0.07c0,0,0.01,0,0.01,0.01c0.03,0.04,0.06,0.08,0.09,0.12l11.53,15.57V50.45c0-0.61,0.49-1.1,1.1-1.1h4.1
	c0.61,0,1.1,0.49,1.1,1.1V75.66z M59.39,75.66c0,0.61-0.49,1.1-1.1,1.1h-4.1c-0.61,0-1.1-0.49-1.1-1.1v-25.2
	c0-0.61,0.49-1.1,1.1-1.1h4.1c0.61,0,1.1,0.49,1.1,1.1V75.66z M49.62,75.66c0,0.61-0.49,1.1-1.1,1.1h-16.2H32.3
	c-0.61,0-1.1-0.49-1.1-1.1v-0.02v0V50.45c0-0.61,0.49-1.1,1.1-1.1h4.1c0.61,0,1.1,0.5,1.1,1.1v20.01h11.03c0.61,0,1.1,0.5,1.1,1.1
	V75.66z M127.75,61.84c0-25.84-25.91-46.86-57.75-46.86c-31.84,0-57.75,21.02-57.75,46.86c0,23.17,20.54,42.57,48.3,46.24
	c1.88,0.41,4.44,1.24,5.09,2.85c0.58,1.46,0.38,3.75,0.19,5.22c0,0-0.68,4.08-0.82,4.94c-0.25,1.46-1.16,5.71,5,3.11
	c6.16-2.6,33.26-19.58,45.37-33.53h0C123.74,81.49,127.75,72.18,127.75,61.84"/>
<path class="st0" d="M48.76,131.29v-3.97c-0.14-0.06-0.22-0.12-0.29-0.12c-1.19-0.01-2.38-0.01-3.56-0.03
	c-1.67-0.02-2.41-0.75-2.43-2.41c-0.01-1.3,0-2.6,0-3.88h-4.11C37.21,128.9,40.62,132.32,48.76,131.29 M84.82,8.65
	c0,0.77,0.02,1.39,0,2c-0.05,1.35-0.81,2.16-2.14,2.16c-8.47,0.02-16.93,0.02-25.4,0c-1.27,0-2.03-0.82-2.09-2.08
	c-0.03-0.69-0.01-1.38-0.01-2.04H51c-0.66,5.38,2.6,8.57,7.78,8.43c7.84-0.21,15.7-0.04,23.55-0.06c4.62-0.02,7.61-3.89,6.54-8.41
	H84.82z M61.53,57.29c-4.16,0-8.17-0.01-12.18,0c-3.03,0.01-4.76,1.73-4.76,4.77c-0.01,8.12-0.01,16.23,0,24.35
	c0,3.01,1.75,4.76,4.77,4.77c13.76,0.01,27.53,0.01,41.29,0c3.02,0,4.76-1.74,4.76-4.78c0.01-8.12,0.01-16.23,0-24.35
	c0-3-1.77-4.75-4.78-4.75c-3.57-0.01-7.15,0-10.72,0h-1.44c0-1.48,0.03-2.76-0.01-4.04c-0.07-2.61-1.83-4.38-4.44-4.42
	c-2.69-0.04-5.38-0.04-8.07,0c-2.62,0.04-4.36,1.81-4.42,4.44C61.5,54.54,61.53,55.82,61.53,57.29 M101.23,137.76H38.76
	c-0.32-0.12-0.64-0.25-0.97-0.36c-3.51-1.16-5.9-4.32-5.9-7.94c-0.01-39.65-0.01-79.31,0-118.96c0-4.51,3.75-8.25,8.27-8.26
	c19.89-0.01,39.79-0.01,59.68,0c4.52,0,8.26,3.74,8.27,8.26c0.01,39.65,0.01,79.31,0,118.96c0,2.79-1.2,5.06-3.46,6.65
	C103.62,136.83,102.38,137.22,101.23,137.76"/>
<path class="st0" d="M69.95,84.35c-5.86-0.01-10.54-4.72-10.53-10.6c0-5.93,4.72-10.58,10.7-10.56c5.84,0.02,10.48,4.75,10.47,10.67
	C80.57,79.7,75.85,84.36,69.95,84.35"/>
<g>
	<path class="st1" d="M108.6,92.04c3.1,0.03,5.53-2.35,5.54-5.42c0.01-3.05-2.33-5.46-5.32-5.51c-3.13-0.05-5.67,2.42-5.65,5.48
		C103.18,89.56,105.62,92.01,108.6,92.04 M97.57,86.59c-0.01-3.1-2.39-5.48-5.49-5.48c-3.03,0-5.53,2.51-5.49,5.51
		c0.04,3.03,2.53,5.43,5.6,5.42C95.19,92.02,97.58,89.6,97.57,86.59 M80.99,86.67c0.04-3.09-2.34-5.53-5.41-5.56
		c-3.05-0.02-5.55,2.41-5.57,5.43c-0.02,2.96,2.42,5.45,5.39,5.49C78.51,92.09,80.96,89.74,80.99,86.67 M123.87,136.3
		c-4.45-1.93-8.89-3.88-13.34-5.8c-4.03-1.74-8.07-3.46-12.12-5.16c-0.49-0.2-1.08-0.3-1.6-0.26c-10.37,0.8-20.19-1.01-29.2-6.34
		c-9.57-5.66-16.37-13.59-18.82-24.64c-2.75-12.42,0.81-23.21,9.45-32.32c7.13-7.52,16.05-11.79,26.25-13.28
		c13.34-1.94,25.65,0.72,36.53,8.86c8.05,6.02,13.21,13.96,14.91,23.98c0.11,0.62,0.25,1.24,0.37,1.87v6.73
		c-0.13,0.67-0.28,1.33-0.39,2c-1.17,7.13-4.31,13.28-9.09,18.66c-0.35,0.39-0.54,1.17-0.42,1.67c1.3,5.48,2.71,10.93,4.02,16.4
		c0.23,0.98,0.38,2.05,0.24,3.04c-0.33,2.44-2.02,3.78-4.21,4.58H123.87z"/>
	<path class="st1" d="M64.57,47.83c3-0.05,5.43-2.49,5.42-5.45c0-3.02-2.66-5.61-5.67-5.52c-2.97,0.09-5.36,2.6-5.31,5.57
		C59.07,45.54,61.48,47.89,64.57,47.83 M42.45,42.32c-0.03,3.08,2.34,5.49,5.44,5.53c2.96,0.03,5.47-2.39,5.54-5.35
		c0.07-2.96-2.43-5.56-5.42-5.63C45.02,36.8,42.48,39.29,42.45,42.32 M31.41,47.85c2.96-0.02,5.45-2.5,5.44-5.44
		c0-2.98-2.55-5.53-5.52-5.54c-3.01,0-5.48,2.52-5.46,5.55C25.9,45.5,28.31,47.87,31.41,47.85 M92.07,42.33
		c-2.24,0.16-4.39,0.24-6.52,0.48c-18.6,2.09-35.67,14.12-41.24,31.82c-0.53,1.68-0.82,3.42-1.28,5.12
		c-0.11,0.39-0.36,0.92-0.69,1.06c-8.17,3.53-16.36,7.02-24.56,10.5c-0.78,0.33-1.62,0.64-2.45,0.73c-3.81,0.41-6.81-2.91-5.94-6.64
		c1.35-5.78,2.85-11.52,4.22-17.3c0.12-0.51-0.05-1.29-0.39-1.68C6.63,58.99,3.2,50.39,3.76,40.41c0.5-8.93,4.16-16.55,10.36-22.92
		C21.47,9.92,30.52,5.6,40.92,4.21c13.76-1.83,26.31,1.21,37.21,9.99c7.16,5.77,11.8,13.17,13.46,22.3
		c0.29,1.56,0.33,3.17,0.47,4.75C92.1,41.59,92.07,41.93,92.07,42.33"/>
</g>
</svg>
