<?xml version="1.0" encoding="utf-8"?>
<!-- Generator: Adobe Illustrator 27.0.0, SVG Export Plug-In . SVG Version: 6.00 Build 0)  -->
<svg version="1.1" xmlns="http://www.w3.org/2000/svg" xmlns:xlink="http://www.w3.org/1999/xlink" x="0px" y="0px"
	 viewBox="0 0 544.4 288.7" style="enable-background:new 0 0 544.4 288.7;" xml:space="preserve">
<style type="text/css">
	.st0{display:none;}
	.st1{display:inline;}
	.st2{fill:#FFFFFF;}
	.st3{display:inline;fill:#FFFFFF;}
</style>
<g id="Layer_2" class="st0">
	<rect x="-13" y="-46" class="st1" width="588" height="405"/>
</g>
<g id="Layer_1">
	<path class="st2" d="M2.8,271.7H4v11.9H2.8V271.7z M4.4,268.3c0,0.5-0.4,1-1,1c-0.5,0-0.9-0.5-0.9-1c0-0.5,0.4-1,1-1
		C4,267.3,4.4,267.8,4.4,268.3"/>
	<path class="st2" d="M10.5,274.5c0-1.1,0-1.9-0.1-2.8h1.1l0.1,2.1h0.1c0.6-1.3,2.1-2.4,4.1-2.4c1.1,0,4.1,0.6,4.1,5v7.1h-1.2v-7
		c0-2.2-0.8-4.1-3.3-4.1c-1.7,0-3.1,1.2-3.6,2.7c-0.1,0.3-0.2,0.7-0.2,1.1v7.3h-1.2V274.5z"/>
	<path class="st2" d="M25.6,271.7l2.8,7.4c0.5,1.2,0.8,2.2,1.2,3.2h0c0.3-1,0.8-2,1.2-3.2l2.8-7.4h1.2l-4.8,11.9H29l-4.6-11.9H25.6z
		"/>
	<path class="st2" d="M39.6,271.7h1.2v11.9h-1.2V271.7z M41.2,268.3c0,0.5-0.4,1-1,1c-0.5,0-0.9-0.5-0.9-1c0-0.5,0.4-1,1-1
		C40.8,267.3,41.2,267.8,41.2,268.3"/>
	<path class="st2" d="M46.8,282c0.6,0.4,1.6,0.8,2.7,0.8c1.9,0,2.8-1,2.8-2.3c0-1.3-0.8-2-2.5-2.7c-1.9-0.8-3-1.8-3-3.2
		c0-1.7,1.3-3.2,3.7-3.2c1.1,0,2,0.3,2.6,0.8l-0.5,1c-0.4-0.3-1.2-0.7-2.3-0.7c-1.5,0-2.3,1-2.3,2c0,1.2,0.8,1.8,2.5,2.4
		c1.9,0.8,3,1.7,3,3.5c0,2-1.6,3.4-4,3.4c-1.1,0-2.2-0.3-3-0.8L46.8,282z"/>
	<path class="st2" d="M59,271.7h1.2v11.9H59V271.7z M60.5,268.3c0,0.5-0.4,1-1,1c-0.5,0-0.9-0.5-0.9-1c0-0.5,0.4-1,1-1
		C60.1,267.3,60.5,267.8,60.5,268.3"/>
	<path class="st2" d="M67.8,279c0,0.3,0,0.6,0.1,0.9c0.5,1.8,2.1,3,3.9,3c2.7,0,4.3-2.2,4.3-5.3c0-2.7-1.5-5.1-4.2-5.1
		c-1.7,0-3.4,1.2-4,3.2c-0.1,0.3-0.2,0.6-0.2,1L67.8,279L67.8,279z M66.5,283.6c0.1-0.8,0.1-1.9,0.1-2.8V266h1.2v7.9h0.1
		c0.8-1.5,2.3-2.5,4.3-2.5c3,0,5.1,2.5,5.1,6.1c0,4.2-2.7,6.3-5.3,6.3c-1.9,0-3.3-0.8-4.2-2.4h-0.1l-0.1,2.1H66.5z"/>
	<rect x="82.7" y="266" class="st2" width="1.2" height="17.6"/>
	<path class="st2" d="M98.2,276.6c0-1.7-0.7-4.2-3.6-4.2c-2.6,0-3.7,2.4-4,4.2H98.2z M90.6,277.5c0,3.8,2.1,5.3,4.5,5.3
		c1.7,0,2.6-0.4,3.3-0.7l0.3,0.9c-0.5,0.2-1.7,0.8-3.8,0.8c-3.4,0-5.5-2.5-5.5-6c0-4,2.3-6.4,5.3-6.4c3.9,0,4.6,3.6,4.6,5.4
		c0,0.3,0,0.5,0,0.7L90.6,277.5L90.6,277.5z"/>
	<path class="st2" d="M119,277.2c-2.6-0.1-6,0.3-6,3.2c0,1.7,1.1,2.5,2.4,2.5c2,0,3.1-1.2,3.5-2.4c0.1-0.2,0.1-0.5,0.1-0.7
		L119,277.2L119,277.2z M119.3,283.6l-0.2-1.7H119c-0.6,0.9-1.9,2-3.8,2c-2.4,0-3.5-1.7-3.5-3.3c0-2.7,2.4-4.4,7.2-4.3v-0.3
		c0-1.2-0.2-3.5-3-3.5c-1,0-2.1,0.3-3,0.9l-0.4-0.9c1.1-0.7,2.4-1,3.5-1c3.4,0,4.1,2.6,4.1,4.7v4.6c0,0.9,0,1.9,0.2,2.8L119.3,283.6
		L119.3,283.6z"/>
	<rect x="126.5" y="266" class="st2" width="1.2" height="17.6"/>
	<path class="st2" d="M134.2,271.7h1.2v11.9h-1.2V271.7z M135.7,268.3c0,0.5-0.4,1-1,1c-0.5,0-0.9-0.5-0.9-1c0-0.5,0.4-1,1-1
		C135.4,267.3,135.7,267.8,135.7,268.3"/>
	<path class="st2" d="M150.1,276.3c0-0.4,0-0.8-0.1-1.1c-0.5-1.4-1.7-2.7-3.7-2.7c-2.5,0-4.2,2.1-4.2,5.2c0,2.7,1.4,5,4.2,5
		c1.6,0,3.1-1,3.7-2.7c0.1-0.4,0.2-0.8,0.2-1.3L150.1,276.3L150.1,276.3z M151.4,271.7c-0.1,0.9-0.1,1.8-0.1,3.1v7.1
		c0,3-0.6,4.5-1.6,5.5c-1.1,1-2.7,1.4-4,1.4c-1.4,0-2.9-0.4-3.8-1l0.4-1c0.8,0.5,2,1,3.5,1c2.5,0,4.3-1.3,4.3-4.8v-1.7h-0.1
		c-0.6,1.2-2,2.3-4.1,2.3c-3,0-5.1-2.6-5.1-5.8c0-4.1,2.7-6.3,5.4-6.3c2.3,0,3.5,1.3,4,2.3h0.1l0.1-2H151.4z"/>
	<path class="st2" d="M157.6,274.5c0-1.1,0-1.9-0.1-2.8h1.1l0.1,2.1h0.1c0.6-1.3,2.1-2.4,4.1-2.4c1.1,0,4.1,0.6,4.1,5v7.1h-1.2v-7
		c0-2.2-0.8-4.1-3.3-4.1c-1.7,0-3.1,1.2-3.6,2.7c-0.1,0.3-0.2,0.7-0.2,1.1v7.3h-1.2L157.6,274.5L157.6,274.5z"/>
	<path class="st2" d="M181.1,276.6c0-1.7-0.7-4.2-3.6-4.2c-2.6,0-3.7,2.4-4,4.2H181.1z M173.5,277.5c0,3.8,2.1,5.3,4.5,5.3
		c1.7,0,2.6-0.4,3.3-0.7l0.3,0.9c-0.5,0.2-1.7,0.8-3.8,0.8c-3.4,0-5.5-2.5-5.5-6c0-4,2.3-6.4,5.3-6.4c3.9,0,4.6,3.6,4.6,5.4
		c0,0.3,0,0.5,0,0.7L173.5,277.5L173.5,277.5z"/>
	<path class="st2" d="M187.8,275.3c0-1.2,0-2.4-0.1-3.6h1.1l0.1,2.4h0.1c0.5-1.5,1.7-2.7,3.4-2.7c0.2,0,0.3,0,0.5,0.1v1.1
		c-0.2,0-0.4,0-0.6,0c-1.6,0-2.8,1.4-3.1,3.3c-0.1,0.4-0.1,0.7-0.1,1.1v6.5h-1.2L187.8,275.3L187.8,275.3z"/>
	<path class="st2" d="M213.8,239.8h8.7c2.6,0,5-0.4,7.3-1.3c2.3-0.9,4.3-2.1,6-3.8s3.1-3.8,4-6.2c1-2.4,1.5-5.3,1.5-8.5
		c0-2.8-0.5-5.4-1.4-7.8c-0.9-2.4-2.2-4.4-3.9-6.1s-3.7-3.1-6-4c-2.3-0.9-4.8-1.4-7.5-1.4h-8.8L213.8,239.8L213.8,239.8z
		 M208.3,241.1v-41.9h13.7c4.4,0,8.2,0.4,11.4,1.2c3.1,0.8,5.7,2.1,7.7,3.8c2.4,2,4.1,4.4,5.3,6.9c1.2,2.6,1.8,5.5,1.8,8.6
		c0,2.9-0.5,5.7-1.6,8.3c-1.1,2.6-2.6,4.8-4.7,6.8c-2,1.9-4.6,3.5-7.6,4.6c-3,1.1-6.6,1.7-10.5,1.7L208.3,241.1L208.3,241.1z"/>
	<polygon class="st2" points="45.3,241.1 45.3,199.3 73.9,199.3 73.9,200.3 50.9,200.3 50.9,217.7 66.3,217.7 66.3,218.7 
		50.9,218.7 50.9,240.1 73.9,240.1 73.9,241.1 	"/>
	<polygon class="st2" points="127.2,241.1 127.2,199.3 155.8,199.3 155.8,200.3 132.7,200.3 132.7,217.7 148.1,217.7 148.1,218.7 
		132.7,218.7 132.7,240.1 155.8,240.1 155.8,241.1 	"/>
	<rect x="317.1" y="199.3" class="st2" width="5.5" height="41.9"/>
	<rect x="259.8" y="199.3" class="st2" width="5.5" height="41.9"/>
	<polygon class="st2" points="196.5,241.7 165.5,206.1 163.9,204.4 163.9,240.6 162.4,240.6 162.4,198.8 165.2,198.8 193.9,230.7 
		195.5,232.8 195.5,198.8 196.9,198.8 196.9,241.7 	"/>
	<path class="st2" d="M285.5,220l0.6,0.2c0.9,0.3,1.8,0.6,2.8,0.7c1,0.2,2,0.3,3.1,0.3c1.7,0,3.2-0.3,4.5-0.8
		c1.3-0.5,2.4-1.2,3.3-2.2c0.9-0.9,1.5-2,2-3.2c0.4-1.2,0.6-2.5,0.6-3.9c0-1.6-0.3-3.1-0.8-4.4s-1.3-2.4-2.3-3.4
		c-1-0.9-2.1-1.6-3.4-2.1c-1.3-0.5-2.7-0.8-4.2-0.8h-6.1V220z M280,241.1v-41.9h12.9c2.2,0,4.3,0.3,6.2,0.8c1.9,0.5,3.5,1.3,4.9,2.3
		c1.4,1,2.5,2.2,3.2,3.6c0.8,1.4,1.2,3.1,1.2,4.9c0,1.8-0.4,3.4-1.1,4.7c-0.8,1.4-1.8,2.5-3,3.4c-1.3,0.9-2.7,1.6-4.3,2
		c-1.6,0.4-3.3,0.7-5,0.7c-0.8,0-1.5,0-2.4-0.1s-1.6-0.1-2.4-0.1c-0.8-0.1-1.5-0.1-2.1-0.2c-0.6-0.1-1.1-0.2-1.5-0.2l-1.1-0.2v20.4
		L280,241.1L280,241.1z"/>
	<path class="st2" d="M90.7,220.2h5.2c1.7,0,3.4-0.2,4.8-0.7c1.5-0.5,2.8-1.1,3.9-2c1.1-0.9,2-2,2.6-3.2c0.6-1.3,0.9-2.7,0.9-4.3
		c0-1.4-0.2-2.8-0.7-4c-0.5-1.2-1.2-2.3-2.1-3.1c-0.9-0.9-2-1.5-3.2-2c-1.2-0.5-2.6-0.7-4-0.7h-7.4V220.2z M112.4,241.1l-15.2-20.6
		h-6.5v20.6h-5.5v-41.9h14.2c2.5,0,4.8,0.3,6.6,0.8c1.9,0.5,3.4,1.3,4.6,2.2c1.2,0.9,2.1,2,2.7,3.3s0.9,2.7,0.9,4.2
		c0,1.2-0.2,2.4-0.7,3.5c-0.5,1.1-1.1,2.1-2,2.9c-0.9,0.9-1.9,1.7-3.2,2.3c-1.2,0.7-2.6,1.2-4.2,1.6l-1.3,0.3l15.7,20.8L112.4,241.1
		L112.4,241.1z"/>
	<path class="st2" d="M425.1,198.2h1.5c0.5,0,1-0.1,1.4-0.2c0.4-0.1,0.8-0.3,1.1-0.6c0.3-0.2,0.6-0.6,0.7-0.9
		c0.2-0.4,0.3-0.8,0.3-1.2c0-0.4-0.1-0.8-0.2-1.1c-0.1-0.3-0.3-0.6-0.6-0.9s-0.6-0.4-0.9-0.6s-0.7-0.2-1.1-0.2h-2.1L425.1,198.2
		L425.1,198.2z M431.3,204.1l-4.3-5.8h-1.8v5.8h-1.5v-11.8h4c0.7,0,1.3,0.1,1.9,0.2c0.5,0.1,1,0.4,1.3,0.6s0.6,0.6,0.8,0.9
		c0.2,0.4,0.3,0.8,0.3,1.2c0,0.4-0.1,0.7-0.2,1s-0.3,0.6-0.6,0.8s-0.5,0.5-0.9,0.6c-0.4,0.2-0.7,0.3-1.2,0.4l-0.4,0.1l4.4,5.9
		L431.3,204.1L431.3,204.1z"/>
	<path class="st2" d="M16.8,242.2c-2,0-3.8-0.2-5.4-0.7c-1.5-0.4-2.9-1.1-4.1-1.9c-1.2-0.8-2.2-1.8-3-3c-0.7-1-1.3-2.1-1.8-3.3
		l2.2-0.9c0.4,1.1,1,2.2,1.7,3.1c0.8,1.2,1.8,2.2,2.9,3.1s2.4,1.5,3.7,1.9s2.8,0.7,4.3,0.7c1.2,0,2.3-0.2,3.5-0.5
		c1.1-0.3,2.2-0.8,3.1-1.4c0.9-0.6,1.7-1.5,2.3-2.4c0.6-1,0.9-2.1,0.9-3.4c0-1.5-0.4-2.9-1.2-4.1c-0.7-1.1-1.7-2.2-2.9-3.1
		c-1.2-0.9-2.5-1.8-4-2.5c-1.4-0.8-2.9-1.5-4.4-2.3c-1.5-0.8-2.9-1.6-4.4-2.4c-1.4-0.8-2.6-1.7-3.7-2.7c-1-1-1.9-2.1-2.5-3.3
		c-0.6-1.1-0.9-2.5-0.9-4c0-1.5,0.3-3,0.9-4.3c0.6-1.3,1.4-2.4,2.5-3.4c1.1-1,2.5-1.7,4.2-2.3c1.7-0.6,3.6-0.8,5.8-0.8
		c2,0,3.8,0.2,5.3,0.6c1.5,0.4,2.9,1,4,1.8c1.1,0.8,2.1,1.8,2.9,2.9c0.7,1,1.2,2.1,1.7,3.3l-2.1,1c-0.4-1-0.9-2-1.4-2.9
		c-0.7-1.2-1.6-2.2-2.6-3.1c-1-0.9-2.2-1.5-3.6-2c-1.3-0.5-2.9-0.7-4.5-0.7c-1.5,0-2.8,0.2-3.9,0.6c-1.1,0.4-2.1,1-2.9,1.7
		c-0.8,0.7-1.4,1.5-1.8,2.4c-0.4,0.9-0.6,1.8-0.6,2.8c0,1.3,0.4,2.6,1.2,3.7c0.8,1,1.8,2,3,2.9c1.2,0.9,2.6,1.7,4.1,2.5
		c1.5,0.8,3,1.6,4.5,2.4c1.5,0.8,3,1.6,4.5,2.5c1.4,0.8,2.7,1.8,3.8,2.8c1.1,1,2,2.1,2.6,3.2c0.6,1.1,0.9,2.4,0.9,3.7
		c0,1.6-0.3,3.1-0.9,4.5c-0.6,1.4-1.5,2.6-2.7,3.7c-1.2,1.1-2.8,1.9-4.6,2.5C21.5,241.8,19.2,242.2,16.8,242.2"/>
	<polygon class="st2" points="346.7,241.1 346.7,200.3 330.9,200.3 330.9,199.3 368.1,199.3 368.1,200.3 352.2,200.3 352.2,241.1 	
		"/>
	<polygon class="st2" points="392.4,241.1 392.4,223.6 375.8,199.3 381.1,199.3 396.7,222.1 412.3,199.3 414.1,199.3 398,222.9 
		398,241.1 	"/>
	<path class="st2" d="M427.8,189.9c-4.6,0-8.3,3.7-8.3,8.3s3.7,8.3,8.3,8.3s8.3-3.7,8.3-8.3S432.4,189.9,427.8,189.9 M427.8,207.1
		c-4.9,0-8.9-4-8.9-8.9s4-8.9,8.9-8.9s8.9,4,8.9,8.9S432.7,207.1,427.8,207.1"/>
	<g class="st0">
		<rect x="500.2" y="201.5" class="st3" width="40.2" height="0.5"/>
		<path class="st3" d="M488.7,197l0-0.5c-12.8,2.4-26.6,3.6-38.2,3l0.1,1.5C463.8,201.2,475.7,199.8,488.7,197"/>
		<rect x="504.1" y="240" class="st3" width="34.4" height="0.5"/>
		<rect x="499.7" y="201.5" class="st3" width="2.9" height="9.5"/>
		<path class="st3" d="M454.8,202.9c1.8,3.1,1.9,5.8,2,7.6l-0.4,0.1c-0.9-2.5-1.2-4-3.5-6.7L454.8,202.9z"/>
		<path class="st3" d="M468.5,202.3c1.8,3.1,1.9,5.8,2,7.6l-0.4,0.1c-0.9-2.5-1.2-4-3.5-6.7L468.5,202.3z"/>
		<path class="st3" d="M522.7,199.8c-1.6-2.1-2.7-2.9-4.7-4l-0.3,0.3c1.8,1.9,2,2.6,3.2,4.9L522.7,199.8z"/>
		<path class="st3" d="M524.1,211.1c-2.5-2.5-7.9-4.7-9.6-5.2l-0.2,0.3c2.2,1.5,6.3,3.6,8.3,6.5L524.1,211.1z"/>
		<path class="st3" d="M486,200.8c-3.4,3.1-6.2,7.8-7.1,10l0.4,0.3c2.1-2.8,4.7-5.8,8.6-8.2L486,200.8z"/>
		<path class="st3" d="M544.4,222.1c-2.8-3.6-7.8-7.5-10-8.6l-0.4,0.4c2.6,2.3,6,5.9,8.1,10L544.4,222.1z"/>
		<path class="st3" d="M501.3,220c3.4-3.1,6.8-8.4,7.6-10.7l-0.4-0.3c-2,2.8-5.3,6.5-9.2,9L501.3,220z"/>
		<rect x="519.9" y="230.2" class="st3" width="2.9" height="9.9"/>
		<rect x="504.1" y="230.2" class="st3" width="2.9" height="9.9"/>
		<rect x="535.7" y="229.6" class="st3" width="2.9" height="10.5"/>
		<rect x="539.6" y="201.5" class="st3" width="2.9" height="9.5"/>
		<rect x="454.9" y="211.8" class="st3" width="28.3" height="0.5"/>
		<rect x="454.9" y="230.8" class="st3" width="28.3" height="0.5"/>
		<rect x="454.9" y="224.5" class="st3" width="28.3" height="0.5"/>
		<rect x="454.9" y="218.1" class="st3" width="28.3" height="0.5"/>
		<rect x="454.4" y="211.8" class="st3" width="2.9" height="19.6"/>
		<rect x="482.4" y="211.8" class="st3" width="2.9" height="19.6"/>
		<path class="st3" d="M485.3,242.5h-10.8c-1.7,0-3.1-1.4-3.1-3.1v-8.2h2.9v8.4c0,1.2,1,2.4,2.4,2.4h7.8c1.1,0,2.2-1,2.6-1.9
			c0.7-1.8,1.7-7,1.7-7l2.3,1.7l-2.1,5.3C488.1,241.7,486.9,242.5,485.3,242.5"/>
		<path class="st3" d="M529.1,225.8h-14.8c-1.7,0-3.1-1.4-3.1-3.1V210h2.9v12.9c0,1.2,1,2.4,2.4,2.4h11.8c1.1,0,2.4-0.8,2.9-1.9
			c1.3-2.9,1.7-5.7,1.7-5.7l2.2,1.9l-2.1,3.9C532,225.3,530.7,225.8,529.1,225.8"/>
		<path class="st3" d="M448,243.4l0.2-0.6c12.8-0.6,14.2-11.8,14.2-11.9l2.9,0.3C465.3,231.3,463.1,242.8,448,243.4"/>
		<path class="st3" d="M534.5,208.6l-2.2-2.9c-8.2,9.8-20,17.6-34.3,20.8l0.3,0.6C506.6,225.4,521.5,221.9,534.5,208.6"/>
	</g>
	<path class="st2" d="M65.4,1.8c-9.8,0-23.9,1.9-35.4,11.1C13.6,25.9,8.9,47.3,5.2,70c-2.2,13-4.4,26.5-2.9,40
		c1.7,15.2,8.3,28.1,18.2,35.5c8.5,6.4,19.7,9.4,35,9.4c5.6,0,11.2-0.4,16-0.8c15.8-1.2,29.9-2.6,43.4-7.1
		c11.1-3.7,26.3-11.1,35.6-25.8c7.6-12.1,9.5-26.7,10.2-38c1.6-24.1-2.9-41.3-13.5-52.7c-9.2-9.8-22.5-14.3-34.2-18.3
		C99.5,7.8,85.7,3.1,71.3,2C69.3,1.9,67.3,1.8,65.4,1.8 M55.5,156.6c-15.7,0-27.2-3.1-36-9.7c-10.3-7.7-17.2-21.1-18.9-36.8
		C-1,96.4,1.2,82.8,3.4,69.7c3.8-23,8.6-44.8,25.5-58.2C40.8,2,55.3,0,65.4,0c2,0,4,0.1,6.1,0.2c14.6,1.1,28.6,5.8,42,10.4
		c11.9,4,25.4,8.6,34.9,18.8c11,11.7,15.6,29.4,14,54c-0.8,11.6-2.6,26.4-10.5,38.9c-9.5,15.1-25.1,22.7-36.5,26.5
		c-13.7,4.5-27.9,5.9-43.8,7.1C66.8,156.3,61.1,156.6,55.5,156.6"/>
	<path class="st2" d="M96.8,118.8c-3.8,3.9-9.2,5.8-16.1,5.8c-6.8,0-13.5-2.1-19.9-6.2v-3c6.6,4.4,13.2,6.7,19.9,6.7
		c6.2,0,11-1.7,14.3-5.1c3.3-3.4,4.9-8.3,4.9-14.6c0-6-1.4-10.8-4.2-14.4c-2.8-3.6-8.1-7.3-15.7-11c-7.1-3.5-12.2-7.2-15.3-11.3
		s-4.6-9.1-4.6-15c0-5.4,1.9-9.9,5.8-13.3c3.9-3.5,8.8-5.2,14.8-5.2c6.7,0,13.1,1.3,19.3,4v2.7c-6.6-2.8-13-4.2-19.3-4.2
		c-5.4,0-9.7,1.5-13,4.4s-5,6.8-5,11.6c0,5.4,1.4,10,4.3,13.7s7.6,7.2,14.3,10.5c8.1,3.9,13.6,7.9,16.6,11.9s4.6,9.2,4.6,15.7
		C102.6,109.5,100.7,114.9,96.8,118.8"/>
	<g>
		<path class="st2" d="M486.8,241c2.4,0,2.8-0.8,3-7.2c0.5,0.3,1,0.6,1.5,0.7c-0.3,6.6-0.8,8-4.4,8h-10c-3.7,0-4.8-0.4-4.8-2.9v-7.9
			h-9.4c-1.8,6.7-6.7,10-17.2,11.6c-0.2-0.4-0.6-1-0.9-1.4c10.3-1.5,14.8-4.5,16.5-10.3h-8.6v-20.7h24.7c2.1-2.7,4.9-7.2,6.4-10.2
			l1.6,0.7c-1.8,3.1-4.1,6.9-6.1,9.6h4.6v20.7h-10.1v7.9c0,1.1,0.5,1.4,3.2,1.4H486.8z M487.3,197.9c-9.3,1.9-25.4,3.1-38.7,3.7
			c0-0.4-0.2-0.9-0.5-1.4c13.1-0.6,29.4-1.8,37.4-3.6L487.3,197.9z M453.9,210.5c-0.6-2-2.1-4.9-3.7-7.1l1.5-0.6
			c1.8,2.1,3.3,5,3.9,7L453.9,210.5z M454,217.4h28.2v-4.8H454V217.4z M454,223.8h28.2v-4.9H454V223.8z M454,230.3h28.2v-4.9H454
			V230.3z M467.7,210.1c-0.3-2.2-1.6-5.5-3-7.9l1.6-0.5c1.4,2.4,2.7,5.7,3.1,7.8L467.7,210.1z"/>
		<path class="st2" d="M511.5,225.4c-0.8-1.7-3.1-5.8-4.7-8.4v26.4h-1.5v-26.2c-2.1,6-5,12.5-7.8,16.1c-0.3-0.4-0.8-1.1-1.2-1.4
			c3.2-4.1,6.9-12,8.8-18.9h-7.9v-1.5h8.1V201c-2.1,0.5-4.3,1-6.3,1.4c-0.1-0.4-0.3-0.9-0.6-1.4c4.7-0.9,10.5-2.4,13.4-4l1.4,1.2
			c-1.7,0.9-4,1.7-6.4,2.3v11h6.6v1.5h-6.6v1.4c1.3,1.9,5.2,8,6.1,9.6L511.5,225.4z M517.9,214.7c-0.7,5.3-2.1,12.2-4.7,16.3
			l-1.3-0.7c2.7-4,4-10.8,4.7-15.9L517.9,214.7z M534.3,241.7c2,0,2.3-1.5,2.5-8.4c0.4,0.4,1,0.6,1.4,0.7c-0.2,7.1-0.7,9-4,9h-8
			c-3.4,0-4.2-0.7-4.2-3.8v-4.3c-2.5,2.9-5.2,5.5-8.2,7.8c-0.3-0.3-0.9-0.8-1.4-1c3.5-2.6,6.7-5.7,9.6-9.1v-25.8h1.5v23.9
			c6.4-8.5,11.1-19,14.4-31l1.5,0.4c-3.8,13.1-8.8,24.3-15.9,33.1v6.2c0,1.9,0.4,2.3,2.7,2.3H534.3z M531.9,205.4
			c-2.2-2.4-6.7-5.7-10.6-7.9l0.9-1c3.8,2.1,8.4,5.4,10.5,7.7L531.9,205.4z M537.7,214.3c2.8,5,5,11.7,5.7,16l-1.5,0.4
			c-0.7-4.4-3-11-5.6-16.1L537.7,214.3z"/>
	</g>
</g>
</svg>
