<?xml version="1.0" encoding="utf-8"?>
<!-- Generator: Adobe Illustrator 27.0.0, SVG Export Plug-In . SVG Version: 6.00 Build 0)  -->
<svg version="1.1" id="Layer_1" xmlns="http://www.w3.org/2000/svg" xmlns:xlink="http://www.w3.org/1999/xlink" x="0px" y="0px"
	 viewBox="0 0 540.8 53.7" style="enable-background:new 0 0 540.8 53.7;" xml:space="preserve">
<style type="text/css">
	.st0{fill:#CB1A1D;}
</style>
<path class="st0" d="M211.3,50.5h8.7c2.6,0,5-0.4,7.3-1.3c2.3-0.9,4.3-2.1,6-3.8s3.1-3.8,4-6.2c1-2.4,1.5-5.3,1.5-8.5
	c0-2.8-0.5-5.4-1.4-7.8c-0.9-2.4-2.2-4.4-3.9-6.1s-3.7-3.1-6-4s-4.8-1.4-7.5-1.4h-8.8L211.3,50.5L211.3,50.5z M205.8,51.8V9.9h13.7
	c4.4,0,8.2,0.4,11.4,1.2c3.1,0.8,5.7,2.1,7.7,3.8c2.4,2,4.1,4.4,5.3,6.9c1.2,2.6,1.8,5.5,1.8,8.6c0,2.9-0.5,5.7-1.6,8.3
	s-2.6,4.8-4.7,6.8c-2,1.9-4.6,3.5-7.6,4.6s-6.6,1.7-10.5,1.7L205.8,51.8L205.8,51.8z"/>
<polygon class="st0" points="42.8,51.8 42.8,10 71.4,10 71.4,11 48.4,11 48.4,28.4 63.8,28.4 63.8,29.4 48.4,29.4 48.4,50.8 
	71.4,50.8 71.4,51.8 "/>
<polygon class="st0" points="124.7,51.8 124.7,10 153.3,10 153.3,11 130.2,11 130.2,28.4 145.6,28.4 145.6,29.4 130.2,29.4 
	130.2,50.8 153.3,50.8 153.3,51.8 "/>
<rect x="314.6" y="10" class="st0" width="5.5" height="41.9"/>
<rect x="257.3" y="10" class="st0" width="5.5" height="41.9"/>
<polygon class="st0" points="194,52.4 163,16.8 161.4,15.1 161.4,51.3 159.9,51.3 159.9,9.5 162.7,9.5 191.4,41.4 193,43.5 193,9.5 
	194.4,9.5 194.4,52.4 "/>
<path class="st0" d="M283,30.7l0.6,0.2c0.9,0.3,1.8,0.6,2.8,0.7c1,0.2,2,0.3,3.1,0.3c1.7,0,3.2-0.3,4.5-0.8s2.4-1.2,3.3-2.2
	c0.9-0.9,1.5-2,2-3.2c0.4-1.2,0.6-2.5,0.6-3.9c0-1.6-0.3-3.1-0.8-4.4s-1.3-2.4-2.3-3.4c-1-0.9-2.1-1.6-3.4-2.1s-2.7-0.8-4.2-0.8
	h-6.1v19.6H283z M277.5,51.8V9.9h12.9c2.2,0,4.3,0.3,6.2,0.8c1.9,0.5,3.5,1.3,4.9,2.3s2.5,2.2,3.2,3.6c0.8,1.4,1.2,3.1,1.2,4.9
	c0,1.8-0.4,3.4-1.1,4.7c-0.8,1.4-1.8,2.5-3,3.4c-1.3,0.9-2.7,1.6-4.3,2c-1.6,0.4-3.3,0.7-5,0.7c-0.8,0-1.5,0-2.4-0.1
	s-1.6-0.1-2.4-0.1c-0.8-0.1-1.5-0.1-2.1-0.2c-0.6-0.1-1.1-0.2-1.5-0.2l-1.1-0.2v20.4L277.5,51.8L277.5,51.8z"/>
<path class="st0" d="M88.2,30.9h5.2c1.7,0,3.4-0.2,4.8-0.7c1.5-0.5,2.8-1.1,3.9-2s2-2,2.6-3.2c0.6-1.3,0.9-2.7,0.9-4.3
	c0-1.4-0.2-2.8-0.7-4s-1.2-2.3-2.1-3.1c-0.9-0.9-2-1.5-3.2-2s-2.6-0.7-4-0.7h-7.4C88.2,10.9,88.2,30.9,88.2,30.9z M109.9,51.8
	L94.7,31.2h-6.5v20.6h-5.5V9.9h14.2c2.5,0,4.8,0.3,6.6,0.8c1.9,0.5,3.4,1.3,4.6,2.2s2.1,2,2.7,3.3s0.9,2.7,0.9,4.2
	c0,1.2-0.2,2.4-0.7,3.5s-1.1,2.1-2,2.9c-0.9,0.9-1.9,1.7-3.2,2.3c-1.2,0.7-2.6,1.2-4.2,1.6l-1.3,0.3L116,51.8L109.9,51.8L109.9,51.8
	z"/>
<path class="st0" d="M422.6,8.9h1.5c0.5,0,1-0.1,1.4-0.2c0.4-0.1,0.8-0.3,1.1-0.6c0.3-0.2,0.6-0.6,0.7-0.9c0.2-0.4,0.3-0.8,0.3-1.2
	s-0.1-0.8-0.2-1.1s-0.3-0.6-0.6-0.9s-0.6-0.4-0.9-0.6s-0.7-0.2-1.1-0.2h-2.1L422.6,8.9L422.6,8.9z M428.8,14.8L424.5,9h-1.8v5.8
	h-1.5V3h4c0.7,0,1.3,0.1,1.9,0.2c0.5,0.1,1,0.4,1.3,0.6s0.6,0.6,0.8,0.9c0.2,0.4,0.3,0.8,0.3,1.2s-0.1,0.7-0.2,1s-0.3,0.6-0.6,0.8
	s-0.5,0.5-0.9,0.6c-0.4,0.2-0.7,0.3-1.2,0.4l-0.4,0.1l4.4,5.9L428.8,14.8L428.8,14.8z"/>
<path class="st0" d="M14.3,52.9c-2,0-3.8-0.2-5.4-0.7c-1.5-0.4-2.9-1.1-4.1-1.9c-1.2-0.8-2.2-1.8-3-3c-0.7-1-1.3-2.1-1.8-3.3
	l2.2-0.9c0.4,1.1,1,2.2,1.7,3.1c0.8,1.2,1.8,2.2,2.9,3.1s2.4,1.5,3.7,1.9s2.8,0.7,4.3,0.7c1.2,0,2.3-0.2,3.5-0.5
	c1.1-0.3,2.2-0.8,3.1-1.4c0.9-0.6,1.7-1.5,2.3-2.4c0.6-1,0.9-2.1,0.9-3.4c0-1.5-0.4-2.9-1.2-4.1c-0.7-1.1-1.7-2.2-2.9-3.1
	c-1.2-0.9-2.5-1.8-4-2.5c-1.4-0.8-2.9-1.5-4.4-2.3s-2.9-1.6-4.4-2.4C6.3,29,5.1,28.1,4,27.1c-1-1-1.9-2.1-2.5-3.3
	c-0.6-1.1-0.9-2.5-0.9-4s0.3-3,0.9-4.3s1.4-2.4,2.5-3.4s2.5-1.7,4.2-2.3S11.8,9,14,9c2,0,3.8,0.2,5.3,0.6c1.5,0.4,2.9,1,4,1.8
	s2.1,1.8,2.9,2.9c0.7,1,1.2,2.1,1.7,3.3l-2.1,1c-0.4-1-0.9-2-1.4-2.9c-0.7-1.2-1.6-2.2-2.6-3.1c-1-0.9-2.2-1.5-3.6-2
	c-1.3-0.5-2.9-0.7-4.5-0.7c-1.5,0-2.8,0.2-3.9,0.6c-1.1,0.4-2.1,1-2.9,1.7c-0.8,0.7-1.4,1.5-1.8,2.4c-0.4,0.9-0.6,1.8-0.6,2.8
	c0,1.3,0.4,2.6,1.2,3.7c0.8,1,1.8,2,3,2.9s2.6,1.7,4.1,2.5s3,1.6,4.5,2.4c1.5,0.8,3,1.6,4.5,2.5c1.4,0.8,2.7,1.8,3.8,2.8
	c1.1,1,2,2.1,2.6,3.2c0.6,1.1,0.9,2.4,0.9,3.7c0,1.6-0.3,3.1-0.9,4.5s-1.5,2.6-2.7,3.7c-1.2,1.1-2.8,1.9-4.6,2.5
	C19,52.5,16.7,52.9,14.3,52.9"/>
<polygon class="st0" points="344.2,51.8 344.2,11 328.4,11 328.4,10 365.6,10 365.6,11 349.7,11 349.7,51.8 "/>
<polygon class="st0" points="389.9,51.8 389.9,34.3 373.3,10 378.6,10 394.2,32.8 409.8,10 411.6,10 395.5,33.6 395.5,51.8 "/>
<path class="st0" d="M425.3,0.6c-4.6,0-8.3,3.7-8.3,8.3s3.7,8.3,8.3,8.3s8.3-3.7,8.3-8.3S429.9,0.6,425.3,0.6 M425.3,17.8
	c-4.9,0-8.9-4-8.9-8.9s4-8.9,8.9-8.9s8.9,4,8.9,8.9S430.2,17.8,425.3,17.8"/>
<g>
	<path class="st0" d="M483.4,50.5c2.3,0,2.7-0.7,2.9-6.7c0.6,0.4,1.6,0.8,2.3,1c-0.4,6.6-1.1,8-4.9,8h-9.4c-4.2,0-5.4-0.7-5.4-3.7
		v-7h-8.6c-1.8,6.5-6.3,9.8-17.1,11.6c-0.3-0.7-0.9-1.7-1.4-2.1c10.2-1.5,14.4-4.3,15.9-9.5h-8.1v-21h24.5l-0.2-0.1
		c2-2.6,4.7-7,6.2-9.9l2.7,0.9c-1.8,3-4,6.5-5.9,9h4.1v21h-9.7v7c0,1.2,0.5,1.4,3,1.4H483.4z M484.9,8.5c-9.7,2-25.8,3.1-39.2,3.6
		c-0.1-0.6-0.4-1.4-0.8-2c13.2-0.6,29.3-1.8,37.6-3.5L484.9,8.5z M450.9,20.9c-0.5-2-2-4.9-3.7-7l2.4-0.8c1.8,2.1,3.3,4.9,3.9,6.8
		L450.9,20.9z M452,27.4h26.5v-4.3H452V27.4z M452,33.7h26.5v-4.3H452V33.7z M452,40h26.5v-4.4H452V40z M464.5,20.4
		c-0.4-2.1-1.6-5.4-3-7.7L464,12c1.5,2.3,2.8,5.5,3.2,7.6L464.5,20.4z"/>
	<path class="st0" d="M508.6,36.3c-0.7-1.6-2.7-5.3-4.2-7.9v25.2H502V29.3c-2,5.6-4.6,11.3-7.1,14.6c-0.4-0.7-1.1-1.8-1.6-2.3
		c3.1-4,6.7-11.4,8.4-17.8h-7.3v-2.4h7.6v-9.6c-2,0.5-4,0.8-5.9,1.2c-0.2-0.5-0.5-1.4-0.8-2c4.7-0.9,10.4-2.4,13.5-4l1.8,2
		c-1.7,0.8-3.9,1.6-6.2,2.2v10.2h6.3v2.4h-6.3v1.3c1.2,1.7,5.1,7.6,6,9.2L508.6,36.3z M515.7,24.2c-0.6,5.3-1.9,12.2-4.3,16.3
		l-2-0.9c2.4-4,3.7-10.8,4.3-15.9L515.7,24.2z M531.5,51c1.9,0,2.2-1.4,2.4-8.1c0.6,0.5,1.5,0.9,2.2,1c-0.3,7.2-1,9.3-4.5,9.3h-7.5
		c-3.7,0-4.7-0.9-4.7-4.7v-2.8c-2.3,2.6-4.8,4.9-7.6,7.1c-0.5-0.5-1.5-1.3-2.1-1.7c3.6-2.6,6.8-5.7,9.7-9.2V17.1h2.4v21.7
		c5.8-8.1,10-18,13.1-29.2l2.4,0.5c-3.7,12.9-8.6,24-15.5,32.8v5.7c0,2,0.4,2.4,2.5,2.4H531.5z M528.6,16c-2.1-2.3-6.6-5.7-10.2-7.9
		l1.5-1.6c3.6,2.1,8.1,5.4,10.3,7.6L528.6,16z M535.3,24.3c2.5,4.9,4.7,11.5,5.5,15.8l-2.3,0.7c-0.6-4.4-2.8-10.9-5.3-15.8
		L535.3,24.3z"/>
</g>
</svg>
