<?xml version="1.0" encoding="utf-8"?>
<!-- Generator: Adobe Illustrator 27.0.0, SVG Export Plug-In . SVG Version: 6.00 Build 0)  -->
<svg version="1.1" id="Layer_1" xmlns="http://www.w3.org/2000/svg" xmlns:xlink="http://www.w3.org/1999/xlink" x="0px" y="0px"
	 viewBox="0 0 653.03 628.62" style="enable-background:new 0 0 653.03 628.62;" xml:space="preserve">
<style type="text/css">
	.st0{fill:#CB1A1D;}
</style>
<path class="st0" d="M262.41,7.19c-39.34,0-95.94,7.72-142.13,44.51C54.72,103.91,35.8,189.84,20.77,280.74
	C12.12,333.03,3.19,387,9.11,441.16c6.66,60.82,33.32,112.81,73.15,142.64c34.26,25.67,78.85,37.62,140.32,37.62
	c22.34,0,45.05-1.54,64.31-3.04c63.22-4.92,119.95-10.45,174.11-28.34c44.67-14.77,105.68-44.7,142.68-103.37
	c30.6-48.51,37.94-107.03,40.92-152.59c6.34-96.69-11.42-165.8-54.3-211.29c-37.13-39.41-90.3-57.42-137.22-73.32
	C399.39,31.32,344,12.56,286.17,8.12C278.21,7.51,270.21,7.19,262.41,7.19 M222.57,628.62c-63.11,0-109.07-12.41-144.63-39.06
	c-41.41-31.02-69.1-84.83-75.98-147.62c-6.02-55.14,2.98-109.61,11.69-162.29C28.94,187.22,48.24,99.88,115.79,46.08
	C163.62,8,221.92,0,262.41,0c7.99,0,16.17,0.32,24.31,0.95c58.73,4.51,114.56,23.41,168.55,41.69
	c47.83,16.2,101.9,34.53,140.26,75.24c44.32,47.01,62.72,117.9,56.24,216.68c-3.03,46.41-10.55,106.08-42.02,155.95
	c-38.13,60.47-100.72,91.22-146.5,106.36c-54.93,18.14-112.11,23.72-175.81,28.68C268.04,627.07,245.16,628.62,222.57,628.62"/>
<path class="st0" d="M388.64,476.72c-15.3,15.52-36.86,23.27-64.7,23.27c-27.5,0-54.13-8.25-79.91-24.76v-11.88
	c26.46,17.82,53.1,26.74,79.91,26.74c25.08,0,44.25-6.85,57.48-20.55c13.23-13.7,19.85-33.25,19.85-58.68
	c0-24.09-5.67-43.4-17.01-57.94c-11.34-14.52-32.31-29.21-62.9-44.06c-28.54-13.88-48.98-29.04-61.35-45.56
	c-12.38-16.5-18.56-36.64-18.56-60.41c0-21.78,7.73-39.61,23.2-53.48c15.47-13.86,35.23-20.8,59.29-20.8
	c26.81,0,52.59,5.29,77.34,15.85v10.9c-26.47-11.22-52.25-16.84-77.34-16.84c-21.65,0-39.1,5.95-52.33,17.83
	c-13.24,11.88-19.85,27.4-19.85,46.54c0,21.79,5.75,40.11,17.28,54.96c11.51,14.85,30.68,28.89,57.49,42.09
	c32.3,15.84,54.56,31.77,66.76,47.78c12.19,16.01,18.3,37.06,18.3,63.13C411.59,439.26,403.93,461.21,388.64,476.72"/>
</svg>
