<?xml version="1.0" encoding="utf-8"?>
<!-- Generator: Adobe Illustrator 27.0.0, SVG Export Plug-In . SVG Version: 6.00 Build 0)  -->
<svg version="1.1" id="Layer_1" xmlns="http://www.w3.org/2000/svg" xmlns:xlink="http://www.w3.org/1999/xlink" x="0px" y="0px"
	 viewBox="0 0 160 120" style="enable-background:new 0 0 160 120;" xml:space="preserve">
<style type="text/css">
	.st0{display:none;}
	.st1{display:inline;fill:#F7AAA5;}
	.st2{display:inline;fill:#FFFFFF;}
	.st3{display:inline;fill:none;stroke:#C0C1C3;stroke-width:0.852;stroke-miterlimit:10;}
	.st4{display:inline;fill:none;stroke:#C0C1C3;stroke-width:0.849;stroke-miterlimit:10;}
	.st5{fill:#F7AAA5;}
	.st6{fill:#FFFFFF;}
	.st7{fill:none;stroke:#C0C1C3;stroke-width:0.803;stroke-miterlimit:10;}
	.st8{opacity:0.2;}
	.st9{clip-path:url(#SVGID_00000038374251575374252240000015319510733181970311_);}
	.st10{clip-path:url(#SVGID_00000178904458675772809400000016077493296765608068_);fill:#00ADEE;}
	.st11{fill:none;stroke:#00ADEE;stroke-width:0.803;stroke-miterlimit:10;}
	.st12{display:inline;fill:none;stroke:#C0C1C3;stroke-width:0.864;stroke-miterlimit:10;}
</style>
<g id="_x34_" class="st0">
	<path class="st1" d="M5.64,80.72c1.02-3.35,4.93-10.46,6.13-11.31c1.2-0.84,4.81-3.01,7.94-1.92c3.13,1.08,23.33,7.1,31.99,8.3
		c8.66,1.2,28.27-0.12,32.23-0.6c3.97-0.48,30.79-0.24,32.96-0.6c2.17-0.36,23.5-4.77,26.54-5.57c3.05-0.8,7.02-1.04,8.46,2.2
		c1.44,3.25,4.33,8.9,4.69,13.71c0.36,4.81,0.36,9.14-6.01,11.43c-6.38,2.29-19.85,7.58-52.44,7.94c-32.6,0.36-38.01,0-48.47-0.6
		c-10.46-0.6-24.06-2.77-33.32-5.65C7.08,95.15,2.15,92.15,5.64,80.72"/>
	<path class="st2" d="M123.63,56.66c0,0,8.5,1.52,8.9,1.76c1.2,0.72,1.83,1.32,2.09,3.61c0.3,2.71,0.88,6.26,1.04,9.86
		c0.1,2.24,0.4,6.25-1.28,6.25c-1.68,0-6.02-0.68-7.38-3.05C125.39,72.3,123.27,57.32,123.63,56.66"/>
	<path class="st3" d="M123.63,56.66c0,0,8.5,1.52,8.9,1.76c1.2,0.72,1.83,1.32,2.09,3.61c0.3,2.71,0.88,6.26,1.04,9.86
		c0.1,2.24,0.4,6.25-1.28,6.25c-1.68,0-6.02-0.68-7.38-3.05C125.39,72.3,123.27,57.32,123.63,56.66z"/>
	<path class="st2" d="M133.97,55.3c0,0,5.29,0.16,5.69,0.4c1.2,0.72,1.75,1.89,2.01,4.17c0.3,2.71,0.63,3.87,1.04,7.46
		c0.24,2.08,1.28,7.46-0.4,7.7c-1.74,0.25-5.64-1.84-6.58-4.17C135.1,69.25,133.61,55.96,133.97,55.3"/>
	<path class="st3" d="M133.97,55.3c0,0,5.29,0.16,5.69,0.4c1.2,0.72,1.75,1.89,2.01,4.17c0.3,2.71,0.63,3.87,1.04,7.46
		c0.24,2.08,1.28,7.46-0.4,7.7c-1.74,0.25-5.64-1.84-6.58-4.17C135.1,69.25,133.61,55.96,133.97,55.3z"/>
	<path class="st2" d="M141.99,58.03c0,0,4.41-2.73,4.81-2.49c1.2,0.72,2.31,1.08,2.57,3.37c0.3,2.71,0.63,2.99,1.04,6.57
		c0.24,2.09,1.44,7.54-0.4,7.22c-1.73-0.3-5.64-1.36-6.58-3.69C142.8,67.41,141.63,58.69,141.99,58.03"/>
	<path class="st3" d="M141.99,58.03c0,0,4.41-2.73,4.81-2.49c1.2,0.72,2.31,1.08,2.57,3.37c0.3,2.71,0.63,2.99,1.04,6.57
		c0.24,2.09,1.44,7.54-0.4,7.22c-1.73-0.3-5.64-1.36-6.58-3.69C142.8,67.41,141.63,58.69,141.99,58.03z"/>
	<path class="st2" d="M34.54,59.15c0,0-6.89,0.24-7.3,0.48c-1.2,0.72-1.59,1.17-1.84,3.45c-0.3,2.71-0.64,6.5-0.8,10.1
		c-0.1,2.24-0.4,6.25,1.28,6.25c1.68,0,4.81-1.44,6.9-3.53C35.06,73.62,34.9,59.81,34.54,59.15"/>
	<path class="st3" d="M34.54,59.15c0,0-6.89,0.24-7.3,0.48c-1.2,0.72-1.59,1.17-1.84,3.45c-0.3,2.71-0.64,6.5-0.8,10.1
		c-0.1,2.24-0.4,6.25,1.28,6.25c1.68,0,4.81-1.44,6.9-3.53C35.06,73.62,34.9,59.81,34.54,59.15z"/>
	<path class="st2" d="M26.2,59.31c0,0-3.93-3.29-4.33-3.05c-1.2,0.72-1.84,1.85-2.41,4.33c-0.6,2.66-1.2,5.61-1.6,8.02
		c-0.34,2.07-1.28,7.46,0.4,7.7c1.74,0.25,5.56-2.08,6.49-4.41C25.4,70.29,26.56,59.97,26.2,59.31"/>
	<path class="st3" d="M26.2,59.31c0,0-3.93-3.29-4.33-3.05c-1.2,0.72-1.84,1.85-2.41,4.33c-0.6,2.66-1.2,5.61-1.6,8.02
		c-0.34,2.07-1.28,7.46,0.4,7.7c1.74,0.25,5.56-2.08,6.49-4.41C25.4,70.29,26.56,59.97,26.2,59.31z"/>
	<path class="st2" d="M19.63,58.91c0,0-4.57-2.33-4.97-2.08c-1.2,0.72-2.31-0.12-2.57,2.17c-0.3,2.71-0.63,2.99-1.04,6.58
		c-0.24,2.08-1.44,7.54,0.4,7.22c1.73-0.3,5.64-1.36,6.58-3.69C18.67,67.49,19.99,59.57,19.63,58.91"/>
	<path class="st3" d="M19.63,58.91c0,0-4.57-2.33-4.97-2.08c-1.2,0.72-2.31-0.12-2.57,2.17c-0.3,2.71-0.63,2.99-1.04,6.58
		c-0.24,2.08-1.44,7.54,0.4,7.22c1.73-0.3,5.64-1.36,6.58-3.69C18.67,67.49,19.99,59.57,19.63,58.91z"/>
	<path class="st2" d="M79.13,72.38c0.08-1.61,0.4-8.66-2.49-8.74c-3.93-0.11-11.31-0.32-12.19-0.16c-0.88,0.16-2.28,0.3-2.01,4.49
		c0.24,3.69,0.96,14.43,6.42,17c4.45,2.09,7.12-1.41,8.74-4.65C78.16,79.19,78.97,75.51,79.13,72.38"/>
	<path class="st3" d="M79.13,72.38c0.08-1.61,0.4-8.66-2.49-8.74c-3.93-0.11-11.31-0.32-12.19-0.16c-0.88,0.16-2.28,0.3-2.01,4.49
		c0.24,3.69,0.96,14.43,6.42,17c4.45,2.09,7.12-1.41,8.74-4.65C78.16,79.19,78.97,75.51,79.13,72.38z"/>
	<path class="st1" d="M6.16,43.12c-2.86-3.15-3.16-6.09-2.68-10.58c0.48-4.49,4.69-8.6,11.42-10.36c6.74-1.76,22.29-5.94,48.75-6.42
		c26.46-0.48,37.69-0.16,51.96,1.44c14.27,1.6,29.19,4.49,33.84,7.7c4.65,3.21,7.38,8.82,3.37,18.61
		c-4.01,9.78-52.44,3.05-59.66,2.56c-7.22-0.48-60.62,0.32-62.55,0.32C28.69,46.4,10.76,48.18,6.16,43.12"/>
	<path class="st2" d="M150.87,43.85c0,0,2.22-1.68,2.65-1.68c0.42,0,0.84,0.48,0.84,2.29c0,1.8-0.42,6.74-0.42,7.58
		c0,0.84-0.3,1.92-1.5,2.95c-1.2,1.02-1.98,1.2-1.98,1.2L150.87,43.85z"/>
	<path class="st3" d="M150.87,43.85c0,0,2.22-1.68,2.65-1.68c0.42,0,0.84,0.48,0.84,2.29c0,1.8-0.42,6.74-0.42,7.58
		c0,0.84-0.3,1.92-1.5,2.95c-1.2,1.02-1.98,1.2-1.98,1.2L150.87,43.85z"/>
	<path class="st2" d="M145.4,45.24c0,0,3.97-2.83,4.21-3.01c0.24-0.18,1.68-0.72,1.68,1.44c0,2.17-0.54,11.31-0.84,12.51
		c-0.3,1.2-0.9,2.95-2.22,3.37c-1.32,0.42-2.95-1.44-3.13-2.83C144.92,55.34,145.4,45.24,145.4,45.24"/>
	<path class="st3" d="M145.4,45.24c0,0,3.97-2.83,4.21-3.01c0.24-0.18,1.68-0.72,1.68,1.44c0,2.17-0.54,11.31-0.84,12.51
		c-0.3,1.2-0.9,2.95-2.22,3.37c-1.32,0.42-2.95-1.44-3.13-2.83C144.92,55.34,145.4,45.24,145.4,45.24z"/>
	<path class="st2" d="M137.46,44.81c0,0,6.13-3.61,6.49-3.91c0.36-0.3,1.43-1.5,1.68,0.78c0.3,2.71,0.72,10.35,0.42,12.57
		c-0.3,2.23-0.84,6.86-2.53,6.86c-1.68,0-7.28-4.51-7.64-7.22C135.54,51.19,137.1,45.48,137.46,44.81"/>
	<path class="st3" d="M137.46,44.81c0,0,6.13-3.61,6.49-3.91c0.36-0.3,1.43-1.5,1.68,0.78c0.3,2.71,0.72,10.35,0.42,12.57
		c-0.3,2.23-0.84,6.86-2.53,6.86c-1.68,0-7.28-4.51-7.64-7.22C135.54,51.19,137.1,45.48,137.46,44.81z"/>
	<path class="st2" d="M125.43,43.85c1.05-1.21,6.13-7.82,8.18-7.46c2.05,0.36,5.23,5.83,4.45,10.64
		c-0.78,4.81-3.25,12.39-3.67,13.59c-0.42,1.2-1.14,3.61-3.37,2.23c-2.22-1.38-7.58-4.75-8.84-7.28
		C120.92,53.05,120.5,49.51,125.43,43.85"/>
	<path class="st3" d="M125.43,43.85c1.05-1.21,6.13-7.82,8.18-7.46c2.05,0.36,5.23,5.83,4.45,10.64
		c-0.78,4.81-3.25,12.39-3.67,13.59c-0.42,1.2-1.14,3.61-3.37,2.23c-2.22-1.38-7.58-4.75-8.84-7.28
		C120.92,53.05,120.5,49.51,125.43,43.85z"/>
	<path class="st2" d="M111.52,41.35c0.87-0.64,2.32-1.84,4.33-1.52s4.84,2.96,5.61,8.42c0.8,5.69,0.8,9.06,0.88,10.75
		c0.11,2.24-1.8,4.01-3.89,4.41c-2.08,0.4-5.77,0.64-8.66-0.24c-2.89-0.88-3.09-0.64-3.25-3.37
		C106.39,57.06,104.95,46.24,111.52,41.35"/>
	<path class="st3" d="M111.52,41.35c0.87-0.64,2.32-1.84,4.33-1.52s4.84,2.96,5.61,8.42c0.8,5.69,0.8,9.06,0.88,10.75
		c0.11,2.24-1.8,4.01-3.89,4.41c-2.08,0.4-5.77,0.64-8.66-0.24c-2.89-0.88-3.09-0.64-3.25-3.37
		C106.39,57.06,104.95,46.24,111.52,41.35z"/>
	<path class="st2" d="M9,43.96c0,0-3.54-2.49-3.96-2.49s-0.18,0.85-0.18,2.65c0,1.81-0.04,6,0.42,7.58
		c0.24,0.81,1.29,2.91,2.49,3.94c1.2,1.02,1.98,1.2,1.98,1.2L9,43.96z"/>
	<path class="st3" d="M9,43.96c0,0-3.54-2.49-3.96-2.49s-0.18,0.85-0.18,2.65c0,1.81-0.04,6,0.42,7.58
		c0.24,0.81,1.29,2.91,2.49,3.94c1.2,1.02,1.98,1.2,1.98,1.2L9,43.96z"/>
	<path class="st2" d="M14.42,45.06c0,0-3.79-2.95-4.03-3.13c-0.24-0.18-1.68-0.72-1.68,1.44s0.46,12.11,0.76,13.32
		c0.3,1.2,0.9,2.95,2.22,3.37c1.32,0.42,2.95-1.44,3.13-2.83C15,55.85,14.42,45.06,14.42,45.06"/>
	<path class="st3" d="M14.42,45.06c0,0-3.79-2.95-4.03-3.13c-0.24-0.18-1.68-0.72-1.68,1.44s0.46,12.11,0.76,13.32
		c0.3,1.2,0.9,2.95,2.22,3.37c1.32,0.42,2.95-1.44,3.13-2.83C15,55.85,14.42,45.06,14.42,45.06z"/>
	<path class="st2" d="M21.97,42.86c0,0-4.62-2.92-4.98-3.22c-0.36-0.3-2.67-1.12-2.93,1.17c-0.3,2.71-0.74,8.29-0.42,12.57
		c0.16,2.24,0.87,7.18,2.53,6.85c1.85-0.37,6.32-1.69,6.68-4.4C23.21,53.13,22.33,43.52,21.97,42.86"/>
	<path class="st3" d="M21.97,42.86c0,0-4.62-2.92-4.98-3.22c-0.36-0.3-2.67-1.12-2.93,1.17c-0.3,2.71-0.74,8.29-0.42,12.57
		c0.16,2.24,0.87,7.18,2.53,6.85c1.85-0.37,6.32-1.69,6.68-4.4C23.21,53.13,22.33,43.52,21.97,42.86z"/>
	<path class="st2" d="M33.9,43.99c-1.05-1.21-6.13-7.82-8.18-7.46c-2.05,0.36-4.74,5.33-4.63,10.21c0.11,5.06,1.7,11.11,2.12,12.31
		s2.25,3.43,4.84,3c2.64-0.44,7.46-3.92,8.72-6.45C38.03,53.09,38.83,49.65,33.9,43.99"/>
	<path class="st3" d="M33.9,43.99c-1.05-1.21-6.13-7.82-8.18-7.46c-2.05,0.36-4.74,5.33-4.63,10.21c0.11,5.06,1.7,11.11,2.12,12.31
		s2.25,3.43,4.84,3c2.64-0.44,7.46-3.92,8.72-6.45C38.03,53.09,38.83,49.65,33.9,43.99z"/>
	<path class="st2" d="M50.69,42.15c-0.87-0.64-3.46-2.14-5.48-2.33c-2.07-0.19-7.63-0.62-8.51,7.51c-0.4,3.72,0.52,8.83,0.95,10.11
		c0.71,2.13,4.02,4.11,6.11,4.51c2.08,0.4,5.77,0.64,8.66-0.24c2.89-0.88,3.09-0.64,3.25-3.37C55.82,55.62,57.26,47.04,50.69,42.15"
		/>
	<path class="st3" d="M50.69,42.15c-0.87-0.64-3.46-2.14-5.48-2.33c-2.07-0.19-7.63-0.62-8.51,7.51c-0.4,3.72,0.52,8.83,0.95,10.11
		c0.71,2.13,4.02,4.11,6.11,4.51c2.08,0.4,5.77,0.64,8.66-0.24c2.89-0.88,3.09-0.64,3.25-3.37C55.82,55.62,57.26,47.04,50.69,42.15z
		"/>
	<path class="st2" d="M91.15,33.41c1.53-0.21,8.02-1.12,11.87,3.93c3.07,4.03,3.55,6.58,3.79,14.83c0.24,8.26,0.21,9.62-1.71,11.3
		c-2.21,1.93-14.67,1.61-19.08,0.88c-4.41-0.72-5.21-1.2-5.21-4.97c0-3.77-0.48-13.63,1.28-17.8
		C83.86,37.42,86.58,34.05,91.15,33.41"/>
	<path class="st3" d="M91.15,33.41c1.53-0.21,8.02-1.12,11.87,3.93c3.07,4.03,3.55,6.58,3.79,14.83c0.24,8.26,0.21,9.62-1.71,11.3
		c-2.21,1.93-14.67,1.61-19.08,0.88c-4.41-0.72-5.21-1.2-5.21-4.97c0-3.77-0.48-13.63,1.28-17.8
		C83.86,37.42,86.58,34.05,91.15,33.41z"/>
	<path class="st2" d="M112.48,70.29c0.07-1.37,0.16-5.21,1.44-6.33c2.18-1.9,4.89-2.81,6.01-3.05c0.88-0.19,5.13-0.78,6.18,3.29
		c0.64,2.49,1.84,15.88-1.52,19.08c-3.56,3.39-6.81-0.68-9.22-2.81C112.64,78.07,112.24,75.11,112.48,70.29"/>
	<path class="st3" d="M112.48,70.29c0.07-1.37,0.16-5.21,1.44-6.33c2.18-1.9,4.89-2.81,6.01-3.05c0.88-0.19,5.13-0.78,6.18,3.29
		c0.64,2.49,1.84,15.88-1.52,19.08c-3.56,3.39-6.81-0.68-9.22-2.81C112.64,78.07,112.24,75.11,112.48,70.29z"/>
	<path class="st2" d="M78.82,67.25c-0.04-1.61,0.83-5.71,3.51-5.8c3.93-0.12,12.59,0.42,13.47,0.58c0.88,0.16,2.76-0.1,2.49,4.09
		c-0.24,3.69-0.72,14.92-6.17,17.48c-4.45,2.09-8.39-0.49-10.87-3.14C78.55,77.57,78.96,72.91,78.82,67.25"/>
	<path class="st3" d="M78.82,67.25c-0.04-1.61,0.83-5.71,3.51-5.8c3.93-0.12,12.59,0.42,13.47,0.58c0.88,0.16,2.76-0.1,2.49,4.09
		c-0.24,3.69-0.72,14.92-6.17,17.48c-4.45,2.09-8.39-0.49-10.87-3.14C78.55,77.57,78.96,72.91,78.82,67.25z"/>
	<path class="st2" d="M98.45,66.85c0.11-1.37-0.4-5.21,3.53-5.13s8.18,0.16,9.06,0.32c0.88,0.16,2.76-0.1,2.49,4.09
		c-0.24,3.69,0,13.47-5.45,16.04c-4.45,2.09-8.58-1.12-9.3-4.25C98.11,75.05,97.97,72.54,98.45,66.85"/>
	<path class="st3" d="M98.45,66.85c0.11-1.37-0.4-5.21,3.53-5.13s8.18,0.16,9.06,0.32c0.88,0.16,2.76-0.1,2.49,4.09
		c-0.24,3.69,0,13.47-5.45,16.04c-4.45,2.09-8.58-1.12-9.3-4.25C98.11,75.05,97.97,72.54,98.45,66.85z"/>
	<path class="st2" d="M62.37,64.36c-0.12-1.37,0.56-5.45-3.37-5.37c-3.93,0.08-8.18,0.16-9.06,0.32c-0.88,0.16-2.76-0.1-2.49,4.09
		c0.24,3.69-1.08,13.65,4.49,15.96c5.61,2.33,9.97-0.46,10.58-3.61C63.09,72.86,62.85,70.05,62.37,64.36"/>
	<path class="st3" d="M62.37,64.36c-0.12-1.37,0.56-5.45-3.37-5.37c-3.93,0.08-8.18,0.16-9.06,0.32c-0.88,0.16-2.76-0.1-2.49,4.09
		c0.24,3.69-1.08,13.65,4.49,15.96c5.61,2.33,9.97-0.46,10.58-3.61C63.09,72.86,62.85,70.05,62.37,64.36z"/>
	<path class="st2" d="M54.19,56.5c0-4.09,0.4-8.34,1.2-11.71c1.01-4.22,3.85-11.63,11.87-11.63c8.02,0,12.59,5.62,13.23,14.11
		c0.56,7.46,0.56,11.95,0.48,12.83c-0.08,0.88-0.48,4.25-3.77,4.73c-3.29,0.48-13.87,0.72-16.84,0.24
		C57.4,64.6,54.19,63.08,54.19,56.5"/>
	<path class="st3" d="M54.19,56.5c0-4.09,0.4-8.34,1.2-11.71c1.01-4.22,3.85-11.63,11.87-11.63c8.02,0,12.59,5.62,13.23,14.11
		c0.56,7.46,0.56,11.95,0.48,12.83c-0.08,0.88-0.48,4.25-3.77,4.73c-3.29,0.48-13.87,0.72-16.84,0.24
		C57.4,64.6,54.19,63.08,54.19,56.5z"/>
	<path class="st2" d="M47.45,68.85c-0.12-1.37,0.32-3.05-1.6-4.81c-2.13-1.95-5.67-5.77-6.79-6.01c-0.88-0.19-4.16,0.75-5.21,4.81
		c-0.64,2.49-1.76,15.88,1.6,19.08c3.56,3.39,6.49-0.65,9.06-2.57C47.35,77.24,47.92,74.22,47.45,68.85"/>
	<path class="st3" d="M47.45,68.85c-0.12-1.37,0.32-3.05-1.6-4.81c-2.13-1.95-5.67-5.77-6.79-6.01c-0.88-0.19-4.16,0.75-5.21,4.81
		c-0.64,2.49-1.76,15.88,1.6,19.08c3.56,3.39,6.49-0.65,9.06-2.57C47.35,77.24,47.92,74.22,47.45,68.85z"/>
</g>
<g id="_x36_" class="st0">
	<path class="st1" d="M3.56,75.9c1.06-3.34,3.89-10.11,5.13-10.95s1.55-0.1,4.94-0.45c13.91-1.44,27.86,1.05,36.82,2.25
		c8.96,1.2,30.69,0.48,34.8,0c4.11-0.48,30.98-1.21,33.22-1.57c2.24-0.36,18.4,3.04,21.55,2.25c3.15-0.8,11.98-3.91,13.47-0.67
		c1.49,3.24,2.58,11.43,2.95,16.23c0.37,4.8-1.39,11.56-7.98,13.83c-6.59,2.28-16.82,5.25-50.51,6.69
		c-33.59,1.44-40.52,0.21-51.85-0.89c-10.79-1.05-19.11-2.07-28.69-4.95C7.83,94.8-0.05,87.29,3.56,75.9"/>
	<path class="st2" d="M62.72,72.61c-0.74-2.23-0.79-7.78-0.86-8.52c-0.07-0.74,0.04-4.18,1.92-4.73c2.05-0.61,5-0.94,8.96-0.76
		c3.97,0.19,6.26,1.02,6.31,2.97c0.11,4.09-0.24,9.71-1.15,12.49c-0.71,2.15-2.95,4.38-5.43,4.8c-2.49,0.42-6.17,0.6-7.51-1.44
		S62.72,72.61,62.72,72.61"/>
	<path class="st4" d="M62.72,72.61c-0.74-2.23-0.79-7.78-0.86-8.52c-0.07-0.74,0.04-4.18,1.92-4.73c2.05-0.61,5-0.94,8.96-0.76
		c3.97,0.19,6.26,1.02,6.31,2.97c0.11,4.09-0.24,9.71-1.15,12.49c-0.71,2.15-2.95,4.38-5.43,4.8c-2.49,0.42-6.17,0.6-7.51-1.44
		S62.72,72.61,62.72,72.61z"/>
	<path class="st2" d="M96.4,69.99c0.43-2.08,0.68-5.56,0.68-7.62c0-1.77-1.37-2.97-3.21-3.28c-2.16-0.36-5.12-0.53-9.09-0.34
		c-3.96,0.19-5.52,0.46-5.58,2.41c-0.14,4.27,0.77,10.26,1.67,12.45c1.1,2.65,3.55,5.01,6.04,5.43c2.49,0.42,5.94-1.2,7.29-3.25
		C95.55,73.76,96.4,69.99,96.4,69.99"/>
	<path class="st4" d="M96.4,69.99c0.43-2.08,0.68-5.56,0.68-7.62c0-1.77-1.37-2.97-3.21-3.28c-2.16-0.36-5.12-0.53-9.09-0.34
		c-3.96,0.19-5.52,0.46-5.58,2.41c-0.14,4.27,0.77,10.26,1.67,12.45c1.1,2.65,3.55,5.01,6.04,5.43c2.49,0.42,5.94-1.2,7.29-3.25
		C95.55,73.76,96.4,69.99,96.4,69.99z"/>
	<path class="st2" d="M11.26,71.78c-0.91,0.57-3.72,2.26-3.55-0.53c0.17-2.79,0.99-8.58,1.26-10.28c0.22-1.41,0.79-2.53,1.97-2.59
		c1.18-0.06,4.47-0.01,4.91,1.31c0.44,1.32-0.38,4.75-0.91,6.55C14.41,68.05,14.08,70,11.26,71.78"/>
	<path class="st4" d="M11.26,71.78c-0.91,0.57-3.72,2.26-3.55-0.53c0.17-2.79,0.99-8.58,1.26-10.28c0.22-1.41,0.79-2.53,1.97-2.59
		c1.18-0.06,4.47-0.01,4.91,1.31c0.44,1.32-0.38,4.75-0.91,6.55C14.41,68.05,14.08,70,11.26,71.78z"/>
	<path class="st2" d="M11.98,74.76c-0.01-1.4,0.49-4.51,0.82-5.82c0.34-1.3,1.47-6.14,1.74-6.75c0.76-1.69,1.34-1.58,3.02-1.35
		c1.69,0.24,4.9,0,5.58,1.04c0.68,1.04-2.76,11.34-3.62,12.43c-0.87,1.09-3.54,3.99-5.85,3.48C11.86,77.39,11.98,74.76,11.98,74.76"
		/>
	<path class="st4" d="M11.98,74.76c-0.01-1.4,0.49-4.51,0.82-5.82c0.34-1.3,1.47-6.14,1.74-6.75c0.76-1.69,1.34-1.58,3.02-1.35
		c1.69,0.24,4.9,0,5.58,1.04c0.68,1.04-2.76,11.34-3.62,12.43c-0.87,1.09-3.54,3.99-5.85,3.48C11.86,77.39,11.98,74.76,11.98,74.76z
		"/>
	<path class="st2" d="M21.16,63.97c0,0,1.28-3.83,1.69-4.63c0.41-0.8,0.86-1.95,3.09-2.12c2.33-0.18,11.05,2.92,11.36,4.04
		c0.31,1.12-1.21,3.77-2.08,7.19c-0.86,3.42-8.54,9.15-10.55,10.39c-2.01,1.24-4.85,0.76-5.46-1.14c-0.61-1.9,0.73-6.97,0.97-8.42
		C20.41,67.84,21.16,63.97,21.16,63.97"/>
	<path class="st4" d="M21.16,63.97c0,0,1.28-3.83,1.69-4.63c0.41-0.8,0.86-1.95,3.09-2.12c2.33-0.18,11.05,2.92,11.36,4.04
		c0.31,1.12-1.21,3.77-2.08,7.19c-0.86,3.42-8.54,9.15-10.55,10.39c-2.01,1.24-4.85,0.76-5.46-1.14c-0.61-1.9,0.73-6.97,0.97-8.42
		C20.41,67.84,21.16,63.97,21.16,63.97z"/>
	<path class="st2" d="M34.41,67.09c0.69-3.09,1.71-6.29,2.07-7.17c0.36-0.88,2.54-3.45,3.55-3.65c1.01-0.21,4.86-0.19,6.49,0.35
		c1.69,0.56,4.85,1.73,4.85,2.25s-0.6,9.82-3.36,12.14c-2.75,2.32-5.38,5.3-6.39,5.92c-1.01,0.62-5.03,0.71-5.59-0.96
		C35.33,73.93,33.72,70.18,34.41,67.09"/>
	<path class="st4" d="M34.41,67.09c0.69-3.09,1.71-6.29,2.07-7.17c0.36-0.88,2.54-3.45,3.55-3.65c1.01-0.21,4.86-0.19,6.49,0.35
		c1.69,0.56,4.85,1.73,4.85,2.25s-0.6,9.82-3.36,12.14c-2.75,2.32-5.38,5.3-6.39,5.92c-1.01,0.62-5.03,0.71-5.59-0.96
		C35.33,73.93,33.72,70.18,34.41,67.09z"/>
	<path class="st2" d="M48.34,70.34C48.2,67.53,48.23,61,48.49,60.3c0.26-0.71,1.79-3.66,4-3.52c2.21,0.15,4.77,1.06,6.55,1.44
		c1.79,0.38,4.47-0.64,5.28,2.72c0.47,2,0.31,8.1-2.08,10.71c-3.1,3.4-5.13,4.58-7.94,4.88C51.57,76.82,48.57,75.12,48.34,70.34"/>
	<path class="st4" d="M48.34,70.34C48.2,67.53,48.23,61,48.49,60.3c0.26-0.71,1.79-3.66,4-3.52c2.21,0.15,4.77,1.06,6.55,1.44
		c1.79,0.38,4.47-0.64,5.28,2.72c0.47,2,0.31,8.1-2.08,10.71c-3.1,3.4-5.13,4.58-7.94,4.88C51.57,76.82,48.57,75.12,48.34,70.34z"/>
	<path class="st2" d="M151.78,73.27c0.81,0.38,1.63,0.65,1.31-5.39c-0.12-2.16-0.23-2.03-0.43-3.72c-0.43-3.7-2.36-5-2.99-5.78
		c-0.64-0.8-3.04-1.44-4.32,1.92c-0.38,1,1.8,7.38,2.18,8.81C147.95,70.64,150.53,72.67,151.78,73.27"/>
	<path class="st4" d="M151.78,73.27c0.81,0.38,1.63,0.65,1.31-5.39c-0.12-2.16-0.23-2.03-0.43-3.72c-0.43-3.7-2.36-5-2.99-5.78
		c-0.64-0.8-3.04-1.44-4.32,1.92c-0.38,1,1.8,7.38,2.18,8.81C147.95,70.64,150.53,72.67,151.78,73.27z"/>
	<path class="st2" d="M147.92,74.05c0.11-1.09-0.39-4.43-0.54-5.46c-0.16-1.04-0.94-5.86-1.06-6.36c-0.51-2.23-2.74-4.26-4.47-4.48
		c-1.96-0.25-3.1,3.7-3.68,4.48c-0.58,0.77,0.02,9.1,1.12,10.55c0.64,0.85,5.12,4.59,6.87,4.32
		C147.55,76.87,147.92,74.05,147.92,74.05"/>
	<path class="st4" d="M147.92,74.05c0.11-1.09-0.39-4.43-0.54-5.46c-0.16-1.04-0.94-5.86-1.06-6.36c-0.51-2.23-2.74-4.26-4.47-4.48
		c-1.96-0.25-3.1,3.7-3.68,4.48c-0.58,0.77,0.02,9.1,1.12,10.55c0.64,0.85,5.12,4.59,6.87,4.32
		C147.55,76.87,147.92,74.05,147.92,74.05z"/>
	<path class="st2" d="M139.19,66.9c0,0,0.1-3.66-0.1-4.3c-0.72-2.26-5.11-2.77-6.83-2.93c-1.72-0.17-4.76-1.08-5.76-0.16
		c-1.22,1.12-1.8,9.04-0.64,12.31c0.91,2.56,3.2,4.64,5.91,5.91c1.75,0.83,5.38,0.17,6.07-0.96c1.28-2.08,1.37-4.58,1.44-5.59
		C139.35,70.16,139.19,66.9,139.19,66.9"/>
	<path class="st4" d="M139.19,66.9c0,0,0.1-3.66-0.1-4.3c-0.72-2.26-5.11-2.77-6.83-2.93c-1.72-0.17-4.76-1.08-5.76-0.16
		c-1.22,1.12-1.8,9.04-0.64,12.31c0.91,2.56,3.2,4.64,5.91,5.91c1.75,0.83,5.38,0.17,6.07-0.96c1.28-2.08,1.37-4.58,1.44-5.59
		C139.35,70.16,139.19,66.9,139.19,66.9z"/>
	<path class="st2" d="M125,70.62c0,0,1.12-3.93,0.06-7.93c-0.79-2.97-2.23-4-2.76-4.69c-1.39-1.79-3.43-1.88-5.55-1.39
		c-1.45,0.34-6.61,0.82-6.71,3.36c-0.03,0.6-0.37,4.28,1.42,8.69c1.33,3.27,4.65,6.45,6.77,7.83c0.93,0.61,4.47,2.1,5.39,0.33
		C125.08,73.97,125,70.62,125,70.62"/>
	<path class="st4" d="M125,70.62c0,0,1.12-3.93,0.06-7.93c-0.79-2.97-2.23-4-2.76-4.69c-1.39-1.79-3.43-1.88-5.55-1.39
		c-1.45,0.34-6.61,0.82-6.71,3.36c-0.03,0.6-0.37,4.28,1.42,8.69c1.33,3.27,4.65,6.45,6.77,7.83c0.93,0.61,4.47,2.1,5.39,0.33
		C125.08,73.97,125,70.62,125,70.62z"/>
	<path class="st2" d="M109.39,72.45c0.38-1.74,1.6-11.09,1.48-11.78c-0.12-0.69,0.4-2.46-2.32-2.58c-1.75-0.08-7.99-0.58-9.43-0.49
		c-1.44,0.09-4.01,0.36-3.61,3.13c0.27,1.89,1.23,7.71,2.42,10.58c1.2,2.89,1.8,4.93,3.96,5.62
		C103.96,77.59,108.27,77.56,109.39,72.45"/>
	<path class="st4" d="M109.39,72.45c0.38-1.74,1.6-11.09,1.48-11.78c-0.12-0.69,0.4-2.46-2.32-2.58c-1.75-0.08-7.99-0.58-9.43-0.49
		c-1.44,0.09-4.01,0.36-3.61,3.13c0.27,1.89,1.23,7.71,2.42,10.58c1.2,2.89,1.8,4.93,3.96,5.62
		C103.96,77.59,108.27,77.56,109.39,72.45z"/>
	<path class="st1" d="M10.26,50.11C7.3,46.97,4.38,39.54,4.88,35.07c0.5-4.48,3.81-9.92,10.78-11.67
		c6.97-1.76,22.46-6.93,49.84-7.41c27.37-0.48,37.99,0.2,52.76,1.8s28.41,4.44,33.22,7.63c4.81,3.2,6.88,5.22,5.39,15.72
		c-2.63,18.47-53.5,17.5-62.09,16.22c-7.4-1.09-60.83,0.96-62.82,0.96C29.95,58.31,15.02,55.15,10.26,50.11"/>
	<path class="st2" d="M8.53,44.99c0,0,0.34-4.33,1.2-3.84c0.86,0.49,3.71,2.03,4.2,2.64c0.49,0.61,0.37,12.06-0.84,13.91
		c-1.8,2.76-3.12,1.52-3.96,0.72C7.96,57.3,7.93,48.59,8.53,44.99"/>
	<path class="st4" d="M8.53,44.99c0,0,0.34-4.33,1.2-3.84c0.86,0.49,3.71,2.03,4.2,2.64c0.49,0.61,0.37,12.06-0.84,13.91
		c-1.8,2.76-3.12,1.52-3.96,0.72C7.96,57.3,7.93,48.59,8.53,44.99z"/>
	<path class="st2" d="M14.04,43.79c0.76-3.48,2.39-4.65,3.36-4.08c0.97,0.58,3.76,5.03,3.92,6.11c0.16,1.08-0.14,4.09-0.4,5.68
		c-0.26,1.59,0.16,9.75-3.2,9.67c-1.85-0.04-3.92-1.36-4.52-4.68C12.62,53.26,12.84,49.31,14.04,43.79"/>
	<path class="st4" d="M14.04,43.79c0.76-3.48,2.39-4.65,3.36-4.08c0.97,0.58,3.76,5.03,3.92,6.11c0.16,1.08-0.14,4.09-0.4,5.68
		c-0.26,1.59,0.16,9.75-3.2,9.67c-1.85-0.04-3.92-1.36-4.52-4.68C12.62,53.26,12.84,49.31,14.04,43.79z"/>
	<path class="st2" d="M20.28,49.31c2.28-7.55,5.18-9.3,6.11-9.35c2.28-0.12,4.8,0.72,8.75,8.75c0.88,1.79-0.64,10.91-0.84,12.95
		c-0.2,2.04-2.7,3-5.04,4.08c-1.23,0.57-2.81,0.56-3.67,0.07c-0.85-0.5-3.06-2.33-4.72-4.87C18.36,57.1,20.28,49.31,20.28,49.31"/>
	<path class="st4" d="M20.28,49.31c2.28-7.55,5.18-9.3,6.11-9.35c2.28-0.12,4.8,0.72,8.75,8.75c0.88,1.79-0.64,10.91-0.84,12.95
		c-0.2,2.04-2.7,3-5.04,4.08c-1.23,0.57-2.81,0.56-3.67,0.07c-0.85-0.5-3.06-2.33-4.72-4.87C18.36,57.1,20.28,49.31,20.28,49.31z"/>
	<path class="st2" d="M36.46,67.05c0,0-2.33-0.61-2.45-3.18c-0.12-2.57-0.15-9.43,0.77-13.12c0.6-2.4,0.6-8.25,7.19-11.75
		c1.42-0.75,4.8,0,7.67,3.36c2.36,2.76,4.2,4.8,4.44,10.91c0.07,1.84-0.24,11.39-3.96,13.55C46.93,68.67,36.46,67.05,36.46,67.05"/>
	<path class="st4" d="M36.46,67.05c0,0-2.33-0.61-2.45-3.18c-0.12-2.57-0.15-9.43,0.77-13.12c0.6-2.4,0.6-8.25,7.19-11.75
		c1.42-0.75,4.8,0,7.67,3.36c2.36,2.76,4.2,4.8,4.44,10.91c0.07,1.84-0.24,11.39-3.96,13.55C46.93,68.67,36.46,67.05,36.46,67.05z"
		/>
	<path class="st2" d="M54.09,65.01c0,0-0.6-2.88-0.36-8.75c0.38-9.2,3.66-13.26,6.36-15.35c2.69-2.08,5.34-2.52,7.79-2.4
		c2.45,0.12,8.87,1.8,11.63,9.11c1.91,5.07,2.29,15.31,1.68,16.91c-0.61,1.59-2.13,3.11-3.36,3.48
		C76.6,68.38,55.16,71.01,54.09,65.01"/>
	<path class="st4" d="M54.09,65.01c0,0-0.6-2.88-0.36-8.75c0.38-9.2,3.66-13.26,6.36-15.35c2.69-2.08,5.34-2.52,7.79-2.4
		c2.45,0.12,8.87,1.8,11.63,9.11c1.91,5.07,2.29,15.31,1.68,16.91c-0.61,1.59-2.13,3.11-3.36,3.48
		C76.6,68.38,55.16,71.01,54.09,65.01z"/>
	<path class="st2" d="M81.42,62.74c0-3.84-0.26-13.12,0.72-16.42c0.98-3.3,2.64-10.07,11.15-9.47c4.78,0.34,10.43,2.4,13.55,9.83
		c1.99,4.74,1.44,12.83,1.44,14.15c0.01,4.92-2.04,5.74-4.24,5.98c-2.2,0.25-12.73,0.52-14.71,0.52
		C86.93,67.31,81.42,68.38,81.42,62.74"/>
	<path class="st4" d="M81.42,62.74c0-3.84-0.26-13.12,0.72-16.42c0.98-3.3,2.64-10.07,11.15-9.47c4.78,0.34,10.43,2.4,13.55,9.83
		c1.99,4.74,1.44,12.83,1.44,14.15c0.01,4.92-2.04,5.74-4.24,5.98c-2.2,0.25-12.73,0.52-14.71,0.52
		C86.93,67.31,81.42,68.38,81.42,62.74z"/>
	<path class="st2" d="M152.87,44.63c0,0,2.33-2.52,3.21-2.98c0.87-0.46,0.47,3.16,0.27,4.78c-0.48,3.96-0.12,6-1.56,8.15
		c-0.88,1.33-3.74,4.74-2.76-0.96C152.3,52.07,152.87,44.63,152.87,44.63"/>
	<path class="st4" d="M152.87,44.63c0,0,2.33-2.52,3.21-2.98c0.87-0.46,0.47,3.16,0.27,4.78c-0.48,3.96-0.12,6-1.56,8.15
		c-0.88,1.33-3.74,4.74-2.76-0.96C152.3,52.07,152.87,44.63,152.87,44.63z"/>
	<path class="st2" d="M146.88,44.75c0.56-1.74,2.93-3.13,3.84-3.48c0.9-0.35,2.18,1.2,2.52,3.24c0.48,2.88-0.36,12.35-2.64,16.31
		c-0.94,1.64-3.08-1.84-3.96-4.2c-0.45-1.21-1.45-4.06-1.68-7.07C144.85,48.09,146.88,44.75,146.88,44.75"/>
	<path class="st4" d="M146.88,44.75c0.56-1.74,2.93-3.13,3.84-3.48c0.9-0.35,2.18,1.2,2.52,3.24c0.48,2.88-0.36,12.35-2.64,16.31
		c-0.94,1.64-3.08-1.84-3.96-4.2c-0.45-1.21-1.45-4.06-1.68-7.07C144.85,48.09,146.88,44.75,146.88,44.75z"/>
	<path class="st2" d="M139.69,46.31c0.32-0.98,1.56-3.24,3.6-5.27c1.02-1.02,2.56-2.33,3.72,0.84c1.15,3.17,0.53,13.63,0.12,15.47
		c-0.41,1.83-0.47,3.58-2.04,3.72c-1.57,0.14-5.82-4.71-6.71-6.83S138.28,50.61,139.69,46.31"/>
	<path class="st4" d="M139.69,46.31c0.32-0.98,1.56-3.24,3.6-5.27c1.02-1.02,2.56-2.33,3.72,0.84c1.15,3.17,0.53,13.63,0.12,15.47
		c-0.41,1.83-0.47,3.58-2.04,3.72c-1.57,0.14-5.82-4.71-6.71-6.83S138.28,50.61,139.69,46.31z"/>
	<path class="st2" d="M125.18,52.31c1.05-3.98,4.44-9.35,6.83-11.15c2.25-1.69,5.01-1.4,6.71,3c1.7,4.4,2.18,10.25,1.76,14.06
		c-0.42,3.81-0.89,4.4-2.96,5.84c-1.86,1.3-4.79,2.73-6.23,1.8C128.15,63.82,123.48,58.71,125.18,52.31"/>
	<path class="st4" d="M125.18,52.31c1.05-3.98,4.44-9.35,6.83-11.15c2.25-1.69,5.01-1.4,6.71,3c1.7,4.4,2.18,10.25,1.76,14.06
		c-0.42,3.81-0.89,4.4-2.96,5.84c-1.86,1.3-4.79,2.73-6.23,1.8C128.15,63.82,123.48,58.71,125.18,52.31z"/>
	<path class="st2" d="M108.89,61.07c-0.72-7.55-0.85-7.56,1.3-11.88c2.52-5.03,7.37-8.89,11.39-7.55c2.52,0.84,3.75,6.74,3.92,10.84
		c0.24,5.63,0.42,7.61-0.18,10.84c-0.17,0.92-0.62,4.05-5.18,4.33c-4.56,0.29-8.16-0.79-9.37-1.74
		C108.56,64.19,108.89,61.07,108.89,61.07"/>
	<path class="st4" d="M108.89,61.07c-0.72-7.55-0.85-7.56,1.3-11.88c2.52-5.03,7.37-8.89,11.39-7.55c2.52,0.84,3.75,6.74,3.92,10.84
		c0.24,5.63,0.42,7.61-0.18,10.84c-0.17,0.92-0.62,4.05-5.18,4.33c-4.56,0.29-8.16-0.79-9.37-1.74
		C108.56,64.19,108.89,61.07,108.89,61.07z"/>
</g>
<g id="_x37_" class="st0">
	<path class="st1" d="M12.37,87.17c0,0,0.96-5.05,2.16-6.74s41.14,2.89,45.95,3.61c4.81,0.72,50.28-0.48,54.85-0.72
		c4.57-0.24,25.02-2.17,26.46-2.17c1.44,0,4.57-0.24,5.53,7.7c0.96,7.94-7.22,11.55-8.9,12.27c-1.68,0.72-15.64,6.01-49.56,6.5
		c-33.92,0.48-58.94-3.13-65.91-5.77C15.98,99.2,12.37,95.11,12.37,87.17"/>
	<path class="st1" d="M10.21,56.62c-2.41-2.41-6.01-5.53-4.09-12.27c1.93-6.74,12.03-22.13,32.96-26.7C60,13.08,78.48,9.78,109.8,15
		c31.75,5.29,42.1,23.09,43.54,26.94c1.44,3.85,1.44,8.9,0,11.55c-1.44,2.65-7.7,7.22-7.7,7.22l-3.66,0.39
		c0,0-6.96-13.98-33.14-17.95c-23.81-3.61-71.45-1.68-79.38,4.33c-7.94,6.01-11.98,13.79-13.47,13.47
		C12.61,60.23,10.21,56.62,10.21,56.62"/>
	<path class="st2" d="M18.63,66.6c-0.84,0.36-1.6,0.59-2.89-2.53c-1.28-3.11-1.2-10.58-1.2-10.58s-0.29-3.81,1.2-3.13
		s3.63,3.23,4.21,4.21c0.58,0.98,2.02,6.34,2.09,7.35C22.11,62.94,20.62,65.75,18.63,66.6"/>
	<path class="st3" d="M18.63,66.6c-0.84,0.36-1.6,0.59-2.89-2.53c-1.28-3.11-1.2-10.58-1.2-10.58s-0.29-3.81,1.2-3.13
		s3.63,3.23,4.21,4.21c0.58,0.98,2.02,6.34,2.09,7.35C22.11,62.94,20.62,65.75,18.63,66.6z"/>
	<path class="st2" d="M24.21,63.05c-0.83,0.52-2.22,1.35-3.28-0.38c-1.06-1.73-3.51-9.41-3.27-12.42c0.18-2.26,1.17-6.35,2.59-6.07
		c1.42,0.28,3.08,3.88,5.47,7.15c2.39,3.27,3.4,6.52,2.53,8.18C27.38,61.17,24.21,63.05,24.21,63.05"/>
	<path class="st3" d="M24.21,63.05c-0.83,0.52-2.22,1.35-3.28-0.38c-1.06-1.73-3.51-9.41-3.27-12.42c0.18-2.26,1.17-6.35,2.59-6.07
		c1.42,0.28,3.08,3.88,5.47,7.15c2.39,3.27,3.4,6.52,2.53,8.18C27.38,61.17,24.21,63.05,24.21,63.05z"/>
	<path class="st2" d="M26.89,61.27c0,0-3.27-4.83-3.69-7.86c-0.64-4.65-0.8-13.07-0.32-14.67c0.48-1.6-0.31-6.28,4.49-3.77
		c3.37,1.76,7.54,4.49,7.86,7.06c0.32,2.57,0.96,3.21,0.16,7.38c-0.22,1.12,0,4.33-2.57,8.34C31.43,59.92,27.77,64.32,26.89,61.27"
		/>
	<path class="st3" d="M26.89,61.27c0,0-3.27-4.83-3.69-7.86c-0.64-4.65-0.8-13.07-0.32-14.67c0.48-1.6-0.31-6.28,4.49-3.77
		c3.37,1.76,7.54,4.49,7.86,7.06c0.32,2.57,0.96,3.21,0.16,7.38c-0.22,1.12,0,4.33-2.57,8.34C31.43,59.92,27.77,64.32,26.89,61.27z"
		/>
	<path class="st2" d="M39.56,55.34c0,0-4.48,1.56-5.53-2.81c-1.37-5.69-1.85-13.55-0.57-16.12c1.28-2.57,3.89-9.3,7.7-7.06
		c2.73,1.6,6.66,4.97,8.18,8.98c1.52,4.01,1.81,11.34,0,13.15C47.58,53.25,44.85,54.37,39.56,55.34"/>
	<path class="st3" d="M39.56,55.34c0,0-4.48,1.56-5.53-2.81c-1.37-5.69-1.85-13.55-0.57-16.12c1.28-2.57,3.89-9.3,7.7-7.06
		c2.73,1.6,6.66,4.97,8.18,8.98c1.52,4.01,1.81,11.34,0,13.15C47.58,53.25,44.85,54.37,39.56,55.34z"/>
	<path class="st2" d="M15.98,82.84c-0.65,0.2-2.47,0.04-1.93-1.52c0.54-1.56,2.33-3.93,3.05-4.97c0.48-0.7,1.1-1.02,1.84-0.88
		c0.75,0.14,1.7,0.95,1.76,1.76s-0.82,2.69-1.43,3.64C18.67,81.82,18.02,82.23,15.98,82.84"/>
	<path class="st3" d="M15.98,82.84c-0.65,0.2-2.47,0.04-1.93-1.52c0.54-1.56,2.33-3.93,3.05-4.97c0.48-0.7,1.1-1.02,1.84-0.88
		c0.75,0.14,1.7,0.95,1.76,1.76s-0.82,2.69-1.43,3.64C18.67,81.82,18.02,82.23,15.98,82.84z"/>
	<path class="st2" d="M18.85,82.38c0.14-0.82,0.73-2.61,1.05-3.34c0.32-0.73,1.16-2.49,1.29-2.86c0.14-0.37,0.9-0.89,1.82-0.57
		c0.91,0.32,2,1.09,2.27,1.78c0.27,0.69-1.59,4.99-2.18,5.54c-0.59,0.55-2.38,1.97-3.61,1.42C18.51,83.91,18.85,82.38,18.85,82.38"
		/>
	<path class="st3" d="M18.85,82.38c0.14-0.82,0.73-2.61,1.05-3.34c0.32-0.73,1.16-2.49,1.29-2.86c0.14-0.37,0.9-0.89,1.82-0.57
		c0.91,0.32,2,1.09,2.27,1.78c0.27,0.69-1.59,4.99-2.18,5.54c-0.59,0.55-2.38,1.97-3.61,1.42C18.51,83.91,18.85,82.38,18.85,82.38z"
		/>
	<path class="st2" d="M26.09,76.27c0.32-0.37,0.88-1.33,1.84-0.64c0.96,0.69,2.49,2.33,2.49,2.97c0,0.64-0.93,2.72-1.84,4.41
		c-0.92,1.69-2.13,3.22-3.32,3.58c-1.19,0.37-1.6,0.09-1.65-1.01c-0.05-1.1-0.06-2.75,0.07-3.54
		C23.93,80.61,25.77,76.63,26.09,76.27"/>
	<path class="st3" d="M26.09,76.27c0.32-0.37,0.88-1.33,1.84-0.64c0.96,0.69,2.49,2.33,2.49,2.97c0,0.64-0.93,2.72-1.84,4.41
		c-0.92,1.69-2.13,3.22-3.32,3.58c-1.19,0.37-1.6,0.09-1.65-1.01c-0.05-1.1-0.06-2.75,0.07-3.54
		C23.93,80.61,25.77,76.63,26.09,76.27z"/>
	<path class="st2" d="M29.53,83.96c0,0,0.41-4.83,0.64-5.61c0.23-0.78,2.57-3.1,3.21-3.29c0.64-0.18,1.38-0.57,2.24,0.16
		c0.87,0.73,2.08,3.31,2.08,3.77c0,0.46,0.7,3.72-1.04,5.77s-4.61,4.17-5.25,4.72c-0.64,0.55-1.65,0.92-1.83-0.59
		C29.41,87.38,29.53,83.96,29.53,83.96"/>
	<path class="st3" d="M29.53,83.96c0,0,0.41-4.83,0.64-5.61c0.23-0.78,2.57-3.1,3.21-3.29c0.64-0.18,1.38-0.57,2.24,0.16
		c0.87,0.73,2.08,3.31,2.08,3.77c0,0.46,0.7,3.72-1.04,5.77s-4.61,4.17-5.25,4.72c-0.64,0.55-1.65,0.92-1.83-0.59
		C29.41,87.38,29.53,83.96,29.53,83.96z"/>
	<path class="st2" d="M37.23,84.6c0.23-3.48,0.41-5.19,0.64-6.01c0.23-0.82,0.82-1.44,1.87-2.54s2.76-2.63,3.58-2.04
		c0.82,0.6,1.91,2.39,2.65,3.53c0.73,1.14,0.63,4.17-1.16,6.75c-1.92,2.76-3.79,5.02-4.29,5.36c-0.59,0.4-3.06,2.23-3.29,0.32
		C36.94,87.62,37.23,84.6,37.23,84.6"/>
	<path class="st3" d="M37.23,84.6c0.23-3.48,0.41-5.19,0.64-6.01c0.23-0.82,0.82-1.44,1.87-2.54s2.76-2.63,3.58-2.04
		c0.82,0.6,1.91,2.39,2.65,3.53c0.73,1.14,0.63,4.17-1.16,6.75c-1.92,2.76-3.79,5.02-4.29,5.36c-0.59,0.4-3.06,2.23-3.29,0.32
		C36.94,87.62,37.23,84.6,37.23,84.6z"/>
	<path class="st2" d="M49.3,86.45c-1.08-3.25-0.84-8-0.72-8.9c0.12-0.9,0.42-3.3,2.05-3.97c2.65-1.08,5.05-1.32,6.49-1.2
		c1.44,0.12,5.59,1.98,5.29,4.45c-0.3,2.47-0.96,5.47-2.65,9.02c-1.68,3.55-2.9,4.99-5.07,5.89C52.61,92.61,51.13,91.94,49.3,86.45"
		/>
	<path class="st3" d="M49.3,86.45c-1.08-3.25-0.84-8-0.72-8.9c0.12-0.9,0.42-3.3,2.05-3.97c2.65-1.08,5.05-1.32,6.49-1.2
		c1.44,0.12,5.59,1.98,5.29,4.45c-0.3,2.47-0.96,5.47-2.65,9.02c-1.68,3.55-2.9,4.99-5.07,5.89C52.61,92.61,51.13,91.94,49.3,86.45z
		"/>
	<path class="st2" d="M66.93,85.55c-0.63-2.52-1.78-8.54-1.83-9.38c-0.06-0.84-0.46-3.72,1.15-4.35c1.74-0.68,5.61-1.52,8.99-1.31
		c3.38,0.21,4.7,0.52,4.75,2.73c0.11,4.82-0.77,12.8-1.32,14.73c-0.69,2.41-2.46,4.87-4.58,5.35c-2.12,0.47-4.35-0.42-5.5-2.73
		C67.45,88.27,66.93,85.55,66.93,85.55"/>
	<path class="st3" d="M66.93,85.55c-0.63-2.52-1.78-8.54-1.83-9.38c-0.06-0.84-0.46-3.72,1.15-4.35c1.74-0.68,5.61-1.52,8.99-1.31
		c3.38,0.21,4.7,0.52,4.75,2.73c0.11,4.82-0.77,12.8-1.32,14.73c-0.69,2.41-2.46,4.87-4.58,5.35c-2.12,0.47-4.35-0.42-5.5-2.73
		C67.45,88.27,66.93,85.55,66.93,85.55z"/>
	<path class="st2" d="M141.99,82.65c0.75,0.11,1.83-0.11,1.83-1.03c0-1.3-0.62-2.45-0.92-3.09c-0.31-0.67-2.17-3.08-3.04-3.15
		c-0.87-0.07-2.11,0.9-2.75,1.2c-0.71,0.34,0.95,2.97,1.49,3.84C139.15,81.29,140.45,82.42,141.99,82.65"/>
	<path class="st3" d="M141.99,82.65c0.75,0.11,1.83-0.11,1.83-1.03c0-1.3-0.62-2.45-0.92-3.09c-0.31-0.67-2.17-3.08-3.04-3.15
		c-0.87-0.07-2.11,0.9-2.75,1.2c-0.71,0.34,0.95,2.97,1.49,3.84C139.15,81.29,140.45,82.42,141.99,82.65z"/>
	<path class="st2" d="M139.1,82.56c-0.02-0.66-0.36-2.05-0.49-2.72c-0.23-1.26-0.88-2.38-0.97-2.69c-0.1-0.31-1.38-2.14-2.58-1.6
		c-0.87,0.38-2.69,1.55-2.42,2.69c0.14,0.61,0.75,3.33,1.86,4.24c0.64,0.53,2.34,2.2,3.83,2.07C139.5,84.44,139.1,82.56,139.1,82.56
		"/>
	<path class="st3" d="M139.1,82.56c-0.02-0.66-0.36-2.05-0.49-2.72c-0.23-1.26-0.88-2.38-0.97-2.69c-0.1-0.31-1.38-2.14-2.58-1.6
		c-0.87,0.38-2.69,1.55-2.42,2.69c0.14,0.61,0.75,3.33,1.86,4.24c0.64,0.53,2.34,2.2,3.83,2.07C139.5,84.44,139.1,82.56,139.1,82.56
		z"/>
	<path class="st2" d="M133.1,79.5c0,0-1.23-2.97-1.54-3.32c-0.97-1.15-1.38-0.63-2.35,0.11c-0.98,0.75-1.32,1.72-1.72,2.52
		c-0.49,0.97,0.09,2.15,0.86,3.67c0.77,1.51,2.22,3.71,3.51,4.27c1.29,0.56,1.57,0.38,1.83-0.45c0.38-1.24,0.37-2.74,0.32-3.42
		C133.95,81.96,133.1,79.5,133.1,79.5"/>
	<path class="st3" d="M133.1,79.5c0,0-1.23-2.97-1.54-3.32c-0.97-1.15-1.38-0.63-2.35,0.11c-0.98,0.75-1.32,1.72-1.72,2.52
		c-0.49,0.97,0.09,2.15,0.86,3.67c0.77,1.51,2.22,3.71,3.51,4.27c1.29,0.56,1.57,0.38,1.83-0.45c0.38-1.24,0.37-2.74,0.32-3.42
		C133.95,81.96,133.1,79.5,133.1,79.5z"/>
	<path class="st2" d="M128.89,86.66c0,0,0.7-3.11,0.38-5.13c-0.32-2.04-0.95-3.61-1.53-4.1c-0.58-0.48-2.94-2.97-4.1-2.96
		c-1.16,0.01-2.1,1.71-2.38,3.24c-0.07,0.36-1.17,3.27,0.29,6.48c1.08,2.38,1.54,2.5,2.67,3.62c0.95,0.95,2.67,2.74,3.43,1.81
		C128.41,88.7,128.89,86.66,128.89,86.66"/>
	<path class="st3" d="M128.89,86.66c0,0,0.7-3.11,0.38-5.13c-0.32-2.04-0.95-3.61-1.53-4.1c-0.58-0.48-2.94-2.97-4.1-2.96
		c-1.16,0.01-2.1,1.71-2.38,3.24c-0.07,0.36-1.17,3.27,0.29,6.48c1.08,2.38,1.54,2.5,2.67,3.62c0.95,0.95,2.67,2.74,3.43,1.81
		C128.41,88.7,128.89,86.66,128.89,86.66z"/>
	<path class="st2" d="M121.84,85.15c-0.1-3.43,0.16-4.89-0.57-6.67c-0.67-1.62-1.56-2.18-2.19-2.77c-1.24-1.14-2.29-2.29-4.39-2
		c-1.17,0.16-2.71,2.83-3.15,4.39c-0.48,1.72,0.11,2.79,1.14,5.15c1.27,2.91,3.43,4.86,5.82,6.96c0.58,0.51,2.1,1.91,2.67-0.29
		C121.59,88.33,121.84,85.15,121.84,85.15"/>
	<path class="st3" d="M121.84,85.15c-0.1-3.43,0.16-4.89-0.57-6.67c-0.67-1.62-1.56-2.18-2.19-2.77c-1.24-1.14-2.29-2.29-4.39-2
		c-1.17,0.16-2.71,2.83-3.15,4.39c-0.48,1.72,0.11,2.79,1.14,5.15c1.27,2.91,3.43,4.86,5.82,6.96c0.58,0.51,2.1,1.91,2.67-0.29
		C121.59,88.33,121.84,85.15,121.84,85.15z"/>
	<path class="st2" d="M109.76,86.07c0.51-1.94,1.11-10.67,0.99-11.46c-0.11-0.79,0.38-2.79-2.21-2.94
		c-1.67-0.09-7.64-0.66-9.01-0.56s-3.97,0.42-3.59,3.56c0.26,2.15,1.31,8.76,2.44,12.02c1.15,3.28,2.6,5.01,4.66,5.8
		C105.03,93.26,108,92.78,109.76,86.07"/>
	<path class="st3" d="M109.76,86.07c0.51-1.94,1.11-10.67,0.99-11.46c-0.11-0.79,0.38-2.79-2.21-2.94
		c-1.67-0.09-7.64-0.66-9.01-0.56s-3.97,0.42-3.59,3.56c0.26,2.15,1.31,8.76,2.44,12.02c1.15,3.28,2.6,5.01,4.66,5.8
		C105.03,93.26,108,92.78,109.76,86.07z"/>
	<path class="st2" d="M93.92,83.44c0.37-2.35,0.99-5.74,1.2-8.06c0.08-0.84-0.11-3.36-1.71-3.99c-1.74-0.68-4.13-1.1-7.51-0.89
		c-3.38,0.21-4.7,0.52-4.75,2.73c-0.11,4.82,0.77,12.8,1.32,14.73c0.69,2.41,1.95,4.77,4.07,5.24c2.12,0.47,4.31-0.47,5.45-2.78
		C93.15,88.11,93.92,83.44,93.92,83.44"/>
	<path class="st3" d="M93.92,83.44c0.37-2.35,0.99-5.74,1.2-8.06c0.08-0.84-0.11-3.36-1.71-3.99c-1.74-0.68-4.13-1.1-7.51-0.89
		c-3.38,0.21-4.7,0.52-4.75,2.73c-0.11,4.82,0.77,12.8,1.32,14.73c0.69,2.41,1.95,4.77,4.07,5.24c2.12,0.47,4.31-0.47,5.45-2.78
		C93.15,88.11,93.92,83.44,93.92,83.44z"/>
	<path class="st2" d="M140.78,54.91c0,0-0.1-2.89,0.3-4.69c0.14-0.61,0.39-2.42,1.27-1.14c0.89,1.28,2.73,5.93,3.37,8.82
		c0.64,2.89,0.54,8.05-0.64,7.46c-1.18-0.59-2.81-2.89-3.1-4.26C141.68,59.72,140.78,54.91,140.78,54.91"/>
	<path class="st3" d="M140.78,54.91c0,0-0.1-2.89,0.3-4.69c0.14-0.61,0.39-2.42,1.27-1.14c0.89,1.28,2.73,5.93,3.37,8.82
		c0.64,2.89,0.54,8.05-0.64,7.46c-1.18-0.59-2.81-2.89-3.1-4.26C141.68,59.72,140.78,54.91,140.78,54.91z"/>
	<path class="st2" d="M137.48,49.48c0,0,2.29-4.13,3.27-4.72c0.98-0.59,1.9-1.6,2.89,0.96c0.98,2.56,0.51,6.7,0,11.39
		c-0.42,3.91-0.95,7.62-2.62,6.64c-1.67-0.98-2.96-5.65-3.16-7.12C137.67,55.14,137.48,49.48,137.48,49.48"/>
	<path class="st3" d="M137.48,49.48c0,0,2.29-4.13,3.27-4.72c0.98-0.59,1.9-1.6,2.89,0.96c0.98,2.56,0.51,6.7,0,11.39
		c-0.42,3.91-0.95,7.62-2.62,6.64c-1.67-0.98-2.96-5.65-3.16-7.12C137.67,55.14,137.48,49.48,137.48,49.48z"/>
	<path class="st2" d="M126.16,44.27c0,0,2.57-3.69,4.97-8.02c1.72-3.1,5.94-5.37,7.22-1.92c1.28,3.44,2.08,7.06,1.92,13.95
		c-0.15,6.22-0.8,12.35-3.21,11.71c-3.71-0.99-8.5-5.3-9.78-6.58c-1.28-1.28-2.07-3.37-2.57-4.65
		C124.22,47.48,125.08,49.09,126.16,44.27"/>
	<path class="st3" d="M126.16,44.27c0,0,2.57-3.69,4.97-8.02c1.72-3.1,5.94-5.37,7.22-1.92c1.28,3.44,2.08,7.06,1.92,13.95
		c-0.15,6.22-0.8,12.35-3.21,11.71c-3.71-0.99-8.5-5.3-9.78-6.58c-1.28-1.28-2.07-3.37-2.57-4.65
		C124.22,47.48,125.08,49.09,126.16,44.27z"/>
	<path class="st2" d="M110.6,41.54c0,0,4.01-10.22,4.8-11.2c0.79-0.98,4.71-2.37,7.07,0.78s4.7,9.22,5.29,11.39
		c0.59,2.16,2.43,8.06,1.44,10.42c-0.98,2.36-1.69,2.73-5.13,2.73c-3.44,0-8.56-0.42-10.23-1.21c-1.67-0.79-2.78-1.23-3.25-3.15
		C109.32,46.03,110.6,41.54,110.6,41.54"/>
	<path class="st3" d="M110.6,41.54c0,0,4.01-10.22,4.8-11.2c0.79-0.98,4.71-2.37,7.07,0.78s4.7,9.22,5.29,11.39
		c0.59,2.16,2.43,8.06,1.44,10.42c-0.98,2.36-1.69,2.73-5.13,2.73c-3.44,0-8.56-0.42-10.23-1.21c-1.67-0.79-2.78-1.23-3.25-3.15
		C109.32,46.03,110.6,41.54,110.6,41.54z"/>
	<path class="st2" d="M86,58.15c-1.62-0.42-4.7-2.02-4.89-5.46c-0.2-3.44,0.58-10.66,0.68-12.63c0.1-1.97,1.7-10.85,6.71-14
		c5.02-3.15,12-0.8,13.88,0.8c3.13,2.65,3.7,6.34,4.55,13.31c0.93,7.6,1.37,13.77,0.68,15.48c-0.9,2.24-3.19,2.73-5.69,3.07
		C97.66,59.31,89.99,59.18,86,58.15"/>
	<path class="st3" d="M86,58.15c-1.62-0.42-4.7-2.02-4.89-5.46c-0.2-3.44,0.58-10.66,0.68-12.63c0.1-1.97,1.7-10.85,6.71-14
		c5.02-3.15,12-0.8,13.88,0.8c3.13,2.65,3.7,6.34,4.55,13.31c0.93,7.6,1.37,13.77,0.68,15.48c-0.9,2.24-3.19,2.73-5.69,3.07
		C97.66,59.31,89.99,59.18,86,58.15z"/>
	<path class="st2" d="M57.37,58.15c-1.62-0.42-4.7-2.02-4.89-5.46c-0.2-3.44,0.58-10.66,0.68-12.63c0.1-1.97,1.7-10.85,6.71-14
		c5.02-3.15,12-0.8,13.88,0.8c3.13,2.65,4.08,6.27,4.93,13.24c0.93,7.61,0.52,12.89-0.16,14.59c-0.9,2.24-2.31,3.03-4.81,3.37
		C69.45,58.65,61.36,59.18,57.37,58.15"/>
	<path class="st3" d="M57.37,58.15c-1.62-0.42-4.7-2.02-4.89-5.46c-0.2-3.44,0.58-10.66,0.68-12.63c0.1-1.97,1.7-10.85,6.71-14
		c5.02-3.15,12-0.8,13.88,0.8c3.13,2.65,4.08,6.27,4.93,13.24c0.93,7.61,0.52,12.89-0.16,14.59c-0.9,2.24-2.31,3.03-4.81,3.37
		C69.45,58.65,61.36,59.18,57.37,58.15z"/>
</g>
<g id="_x38_">
	<path class="st5" d="M17.02,90.04c0-2.76,1.36-9.98,3.86-10.43c2.49-0.45,57.61,2.95,67.59,1.59c9.98-1.36,52.17-4.54,53.98-5.22
		c1.81-0.68,3.86,2.04,4.54,7.26c0.68,5.22,2.04,10.43-2.95,16.1c-4.99,5.67-22.68,13.61-52.17,13.16
		c-29.49-0.45-58.29-1.36-66.23-7.26C17.7,99.34,17.02,95.26,17.02,90.04"/>
	<path class="st6" d="M67.16,84.93c-0.31-3.12-0.01-6.98,0.54-9c0.57-2.1,2.17-2.49,4.44-2.71c2.28-0.22,6.4,0.32,7.7,0.65
		c1.3,0.33,3.14,0.76,3.04,4.23c-0.11,3.47-0.36,10.13-1.52,13.01c-0.94,2.34-3.04,5.75-6.94,5.64c-3.9-0.11-5.76-3.77-6.25-5.9
		C67.52,88.02,67.16,84.93,67.16,84.93"/>
	<path class="st7" d="M67.16,84.93c-0.31-3.12-0.01-6.98,0.54-9c0.57-2.1,2.17-2.49,4.44-2.71c2.28-0.22,6.4,0.32,7.7,0.65
		c1.3,0.33,3.14,0.76,3.04,4.23c-0.11,3.47-0.36,10.13-1.52,13.01c-0.94,2.34-3.04,5.75-6.94,5.64c-3.9-0.11-5.76-3.77-6.25-5.9
		C67.52,88.02,67.16,84.93,67.16,84.93z"/>
	<path class="st6" d="M83.93,91.25c-0.53-2.21-1.06-6.88-0.98-10.66c0.08-3.78,0.72-6.87,3.25-7.33c2.04-0.38,6.58-0.23,7.79-0.15
		c1.21,0.07,3.18,0.6,3.18,4.61c0,4.01-0.23,10.43-1.82,13.76c-1.89,3.97-3.93,4.69-6.12,4.61C87.03,96.02,84.69,94.43,83.93,91.25"
		/>
	<path class="st7" d="M83.93,91.25c-0.53-2.21-1.06-6.88-0.98-10.66c0.08-3.78,0.72-6.87,3.25-7.33c2.04-0.38,6.58-0.23,7.79-0.15
		c1.21,0.07,3.18,0.6,3.18,4.61c0,4.01-0.23,10.43-1.82,13.76c-1.89,3.97-3.93,4.69-6.12,4.61C87.03,96.02,84.69,94.43,83.93,91.25z
		"/>
	<path class="st6" d="M139.58,71.52c0,0,3.02-3.25,4.69-3.55c1.66-0.3,3.48,0.68,3.78,2.57c0.3,1.89,0.23,5.6-0.83,9.45
		c-1.06,3.86-2.72,5.52-3.71,6.5c-1.28,1.27-2.57,1.51-3.63,1.06c-1.06-0.45-2.72-2.42-2.72-3.78
		C137.16,82.41,138.75,73.26,139.58,71.52"/>
	<path class="st7" d="M139.58,71.52c0,0,3.02-3.25,4.69-3.55c1.66-0.3,3.48,0.68,3.78,2.57c0.3,1.89,0.23,5.6-0.83,9.45
		c-1.06,3.86-2.72,5.52-3.71,6.5c-1.28,1.27-2.57,1.51-3.63,1.06c-1.06-0.45-2.72-2.42-2.72-3.78
		C137.16,82.41,138.75,73.26,139.58,71.52z"/>
	<path class="st6" d="M133.61,69.93c1.54-1.01,4.16-1.66,5.44-0.83c1.28,0.83,1.74,3.55,0.98,8.47c-0.69,4.52-1.81,9.45-3.02,10.81
		c-1.21,1.36-2.27,2.95-5.14,2.19c-2.87-0.76-4.76-1.59-4.54-3.1c0.23-1.51,1.66-13.53,2.04-14.21
		C129.75,72.58,131.41,71.37,133.61,69.93"/>
	<path class="st7" d="M133.61,69.93c1.54-1.01,4.16-1.66,5.44-0.83c1.28,0.83,1.74,3.55,0.98,8.47c-0.69,4.52-1.81,9.45-3.02,10.81
		c-1.21,1.36-2.27,2.95-5.14,2.19c-2.87-0.76-4.76-1.59-4.54-3.1c0.23-1.51,1.66-13.53,2.04-14.21
		C129.75,72.58,131.41,71.37,133.61,69.93z"/>
	<path class="st6" d="M125.89,70.69c0.98-0.13,2.65,0,4.01,0.23s1.74,1.59,1.59,4.61s-1.06,8.17-2.12,10.89
		c-1.06,2.72-2.57,5.75-4.01,5.97c-1.44,0.23-2.65-0.6-3.55-1.06c-0.91-0.45-2.72-2.19-3.02-3.48c-0.3-1.29,0.23-11.34,0.45-12.85
		C119.47,73.49,120.22,71.45,125.89,70.69"/>
	<path class="st7" d="M125.89,70.69c0.98-0.13,2.65,0,4.01,0.23s1.74,1.59,1.59,4.61s-1.06,8.17-2.12,10.89
		c-1.06,2.72-2.57,5.75-4.01,5.97c-1.44,0.23-2.65-0.6-3.55-1.06c-0.91-0.45-2.72-2.19-3.02-3.48c-0.3-1.29,0.23-11.34,0.45-12.85
		C119.47,73.49,120.22,71.45,125.89,70.69z"/>
	<path class="st6" d="M112.29,89.54c-0.83-3.25-1.36-8.47-1.51-10.58c-0.15-2.12-1.51-6.05,1.29-7.33c2.8-1.29,7.48-1.97,9.3,1.13
		c1.35,2.31,1.74,5.52,1.28,9.3c-0.45,3.78-1.74,7.33-4.23,9.22C116.87,92.44,113.73,95.19,112.29,89.54"/>
	<path class="st7" d="M112.29,89.54c-0.83-3.25-1.36-8.47-1.51-10.58c-0.15-2.12-1.51-6.05,1.29-7.33c2.8-1.29,7.48-1.97,9.3,1.13
		c1.35,2.31,1.74,5.52,1.28,9.3c-0.45,3.78-1.74,7.33-4.23,9.22C116.87,92.44,113.73,95.19,112.29,89.54z"/>
	<path class="st6" d="M99.66,88.84c-0.47-1.49-2.5-8.92-2.5-11.11s0.98-3.86,3.55-4.31c2.57-0.45,6.35-0.83,7.56-0.83
		c1.21,0,3.25-0.15,3.25,3.33c0,3.48-0.32,10.23-3.1,16.86c-1.36,3.25-3.24,4.44-5.37,2.65C101.63,94.2,100.49,91.48,99.66,88.84"/>
	<path class="st7" d="M99.66,88.84c-0.47-1.49-2.5-8.92-2.5-11.11s0.98-3.86,3.55-4.31c2.57-0.45,6.35-0.83,7.56-0.83
		c1.21,0,3.25-0.15,3.25,3.33c0,3.48-0.32,10.23-3.1,16.86c-1.36,3.25-3.24,4.44-5.37,2.65C101.63,94.2,100.49,91.48,99.66,88.84z"
		/>
	<path class="st6" d="M24.25,71.52c0,0-3.02-3.25-4.69-3.55c-1.66-0.3-3.48,0.68-3.78,2.57c-0.3,1.89-0.23,5.6,0.83,9.45
		c1.06,3.86,2.72,5.52,3.71,6.5c1.28,1.27,2.57,1.51,3.63,1.06c1.06-0.45,2.72-2.42,2.72-3.78C26.67,82.41,25.08,73.26,24.25,71.52"
		/>
	<path class="st7" d="M24.25,71.52c0,0-3.02-3.25-4.69-3.55c-1.66-0.3-3.48,0.68-3.78,2.57c-0.3,1.89-0.23,5.6,0.83,9.45
		c1.06,3.86,2.72,5.52,3.71,6.5c1.28,1.27,2.57,1.51,3.63,1.06c1.06-0.45,2.72-2.42,2.72-3.78C26.67,82.41,25.08,73.26,24.25,71.52z
		"/>
	<path class="st6" d="M30.22,69.93c-1.54-1.01-4.16-1.66-5.44-0.83c-1.28,0.83-1.74,3.55-0.98,8.47c0.69,4.52,1.81,9.45,3.02,10.81
		c1.21,1.36,2.27,2.95,5.14,2.19c2.87-0.76,4.76-1.59,4.54-3.1c-0.23-1.51-1.66-13.53-2.04-14.21
		C34.08,72.58,32.41,71.37,30.22,69.93"/>
	<path class="st7" d="M30.22,69.93c-1.54-1.01-4.16-1.66-5.44-0.83c-1.28,0.83-1.74,3.55-0.98,8.47c0.69,4.52,1.81,9.45,3.02,10.81
		c1.21,1.36,2.27,2.95,5.14,2.19c2.87-0.76,4.76-1.59,4.54-3.1c-0.23-1.51-1.66-13.53-2.04-14.21
		C34.08,72.58,32.41,71.37,30.22,69.93z"/>
	<path class="st6" d="M38.95,73.07c-0.98-0.13-2.65,0-4.01,0.23s-1.74,1.59-1.59,4.61c0.15,3.02,1.06,8.17,2.12,10.89
		c1.06,2.72,2.57,5.75,4.01,5.97c1.44,0.23,2.65-0.6,3.55-1.06c0.91-0.45,2.72-2.19,3.02-3.48c0.3-1.28-0.23-11.34-0.45-12.85
		C45.38,75.87,44.62,73.83,38.95,73.07"/>
	<path class="st7" d="M38.95,73.07c-0.98-0.13-2.65,0-4.01,0.23s-1.74,1.59-1.59,4.61c0.15,3.02,1.06,8.17,2.12,10.89
		c1.06,2.72,2.57,5.75,4.01,5.97c1.44,0.23,2.65-0.6,3.55-1.06c0.91-0.45,2.72-2.19,3.02-3.48c0.3-1.28-0.23-11.34-0.45-12.85
		C45.38,75.87,44.62,73.83,38.95,73.07z"/>
	<path class="st6" d="M52.56,91.52c0.83-3.25,1.36-8.47,1.51-10.58c0.15-2.12,1.51-6.05-1.29-7.33c-2.8-1.28-7.48-1.96-9.3,1.13
		c-1.35,2.31-1.74,5.52-1.28,9.3c0.45,3.78,1.74,7.33,4.23,9.22C47.98,94.42,51.12,97.17,52.56,91.52"/>
	<path class="st7" d="M52.56,91.52c0.83-3.25,1.36-8.47,1.51-10.58c0.15-2.12,1.51-6.05-1.29-7.33c-2.8-1.28-7.48-1.96-9.3,1.13
		c-1.35,2.31-1.74,5.52-1.28,9.3c0.45,3.78,1.74,7.33,4.23,9.22C47.98,94.42,51.12,97.17,52.56,91.52z"/>
	<path class="st6" d="M64.96,88.84c0.47-1.49,2.49-8.92,2.49-11.11s-0.98-3.86-3.55-4.31c-2.57-0.45-6.35-0.83-7.56-0.83
		c-1.21,0-3.25-0.15-3.25,3.33c0,3.48,0.32,10.23,3.1,16.86c1.36,3.25,3.24,4.44,5.37,2.65C62.99,94.2,64.13,91.48,64.96,88.84"/>
	<path class="st7" d="M64.96,88.84c0.47-1.49,2.49-8.92,2.49-11.11s-0.98-3.86-3.55-4.31c-2.57-0.45-6.35-0.83-7.56-0.83
		c-1.21,0-3.25-0.15-3.25,3.33c0,3.48,0.32,10.23,3.1,16.86c1.36,3.25,3.24,4.44,5.37,2.65C62.99,94.2,64.13,91.48,64.96,88.84z"/>
	<path class="st5" d="M12.49,26.13c0,2.76-1.36,18.6,1.13,19.05c2.49,0.45,59.43,6.12,69.41,7.48c9.98,1.36,61.69-6.12,63.51-5.44
		c1.81,0.68,2.95-6.58,2.72-12.48c-0.2-5.26-1.81-16.1-6.8-21.77c-4.99-5.67-21.09-5.3-50.58-4.85
		c-29.49,0.45-63.05-3.09-70.99,2.81C12.94,16.83,12.49,20.92,12.49,26.13"/>
	<path class="st6" d="M138.82,41.67c0.57-2.27,1.02-3.86,2.83-5.1c1.81-1.25,4.54-0.79,6.01,2.5c1.47,3.29,3.18,7.03,1.47,11.79
		c-1.3,3.63-2.49,4.42-3.97,5.22c-1.47,0.79-6.35,1.47-7.03-1.25C137.46,52.1,138.82,41.67,138.82,41.67"/>
	<path class="st7" d="M138.82,41.67c0.57-2.27,1.02-3.86,2.83-5.1c1.81-1.25,4.54-0.79,6.01,2.5c1.47,3.29,3.18,7.03,1.47,11.79
		c-1.3,3.63-2.49,4.42-3.97,5.22c-1.47,0.79-6.35,1.47-7.03-1.25C137.46,52.1,138.82,41.67,138.82,41.67z"/>
	<path class="st6" d="M131.11,43.48c0.66-2.55,1.93-4.31,3.4-4.88c1.47-0.57,4.54-1.13,5.44,1.81c0.91,2.95,1.93,8.17,0.79,13.27
		c-1.14,5.1-3.86,5.9-5.33,5.9c-1.47,0-5.56-0.34-5.9-3.4C129.18,53.12,130.32,46.54,131.11,43.48"/>
	<path class="st7" d="M131.11,43.48c0.66-2.55,1.93-4.31,3.4-4.88c1.47-0.57,4.54-1.13,5.44,1.81c0.91,2.95,1.93,8.17,0.79,13.27
		c-1.14,5.1-3.86,5.9-5.33,5.9c-1.47,0-5.56-0.34-5.9-3.4C129.18,53.12,130.32,46.54,131.11,43.48z"/>
	<path class="st6" d="M115.69,48.47c-0.37-3.27,0.91-6.8,3.74-8.96c2.83-2.15,6.46-3.06,9.19-2.83c2.72,0.23,4.76,2.27,4.65,6.24
		c-0.11,3.97-0.34,12.36-2.15,15.54c-1.81,3.18-6.12,5.56-9.53,1.25C118.18,55.39,116.25,53.46,115.69,48.47"/>
	<path class="st7" d="M115.69,48.47c-0.37-3.27,0.91-6.8,3.74-8.96c2.83-2.15,6.46-3.06,9.19-2.83c2.72,0.23,4.76,2.27,4.65,6.24
		c-0.11,3.97-0.34,12.36-2.15,15.54c-1.81,3.18-6.12,5.56-9.53,1.25C118.18,55.39,116.25,53.46,115.69,48.47z"/>
	<path class="st6" d="M98.34,49.72c0.32-2.04,0.79-4.88,3.18-6.46c2.38-1.59,5.1-3.4,5.78-4.2c0.68-0.79,2.49-2.04,4.76-1.25
		c2.27,0.79,3.63,3.29,4.31,8.17c0.68,4.88,1.47,11.79-1.7,14.86c-3.18,3.06-5.22,3.4-7.94,3.63c-1.81,0.15-4.42,0-6.12-1.36
		C99.48,62.21,96.75,59.93,98.34,49.72"/>
	<path class="st7" d="M98.34,49.72c0.32-2.04,0.79-4.88,3.18-6.46c2.38-1.59,5.1-3.4,5.78-4.2c0.68-0.79,2.49-2.04,4.76-1.25
		c2.27,0.79,3.63,3.29,4.31,8.17c0.68,4.88,1.47,11.79-1.7,14.86c-3.18,3.06-5.22,3.4-7.94,3.63c-1.81,0.15-4.42,0-6.12-1.36
		C99.48,62.21,96.75,59.93,98.34,49.72z"/>
	<path class="st6" d="M21.91,41.67c-0.57-2.27-1.02-3.86-2.84-5.1c-1.81-1.25-4.54-0.79-6.01,2.5c-1.47,3.29-3.18,7.03-1.47,11.79
		c1.3,3.63,2.49,4.42,3.97,5.22c1.47,0.79,6.35,1.47,7.03-1.25C23.27,52.1,21.91,41.67,21.91,41.67"/>
	<path class="st7" d="M21.91,41.67c-0.57-2.27-1.02-3.86-2.84-5.1c-1.81-1.25-4.54-0.79-6.01,2.5c-1.47,3.29-3.18,7.03-1.47,11.79
		c1.3,3.63,2.49,4.42,3.97,5.22c1.47,0.79,6.35,1.47,7.03-1.25C23.27,52.1,21.91,41.67,21.91,41.67z"/>
	<path class="st6" d="M29.63,43.48c-0.66-2.55-1.93-4.31-3.4-4.88c-1.47-0.57-4.54-1.13-5.44,1.81c-0.91,2.95-1.93,8.17-0.79,13.27
		c1.14,5.1,3.86,5.9,5.33,5.9c1.47,0,5.56-0.34,5.9-3.4C31.55,53.12,30.42,46.54,29.63,43.48"/>
	<path class="st7" d="M29.63,43.48c-0.66-2.55-1.93-4.31-3.4-4.88c-1.47-0.57-4.54-1.13-5.44,1.81c-0.91,2.95-1.93,8.17-0.79,13.27
		c1.14,5.1,3.86,5.9,5.33,5.9c1.47,0,5.56-0.34,5.9-3.4C31.55,53.12,30.42,46.54,29.63,43.48z"/>
	<path class="st6" d="M45.05,48.47c0.37-3.27-0.91-6.8-3.74-8.96c-2.83-2.15-6.46-3.06-9.19-2.83c-2.72,0.23-4.76,2.27-4.65,6.24
		c0.11,3.97,0.34,12.36,2.15,15.54c1.81,3.18,6.12,5.56,9.53,1.25C42.55,55.39,44.48,53.46,45.05,48.47"/>
	<path class="st7" d="M45.05,48.47c0.37-3.27-0.91-6.8-3.74-8.96c-2.83-2.15-6.46-3.06-9.19-2.83c-2.72,0.23-4.76,2.27-4.65,6.24
		c0.11,3.97,0.34,12.36,2.15,15.54c1.81,3.18,6.12,5.56,9.53,1.25C42.55,55.39,44.48,53.46,45.05,48.47z"/>
	<path class="st6" d="M62.4,48.92c-0.32-2.04-0.79-4.88-3.18-6.46c-2.38-1.59-5.1-3.4-5.78-4.2c-0.68-0.79-2.49-2.04-4.76-1.25
		c-2.27,0.79-3.63,3.29-4.31,8.17c-0.68,4.88-1.47,11.79,1.7,14.86c3.18,3.06,5.22,3.4,7.94,3.63c1.81,0.15,4.42,0,6.12-1.36
		C61.25,61.4,63.99,59.12,62.4,48.92"/>
	<path class="st7" d="M62.4,48.92c-0.32-2.04-0.79-4.88-3.18-6.46c-2.38-1.59-5.1-3.4-5.78-4.2c-0.68-0.79-2.49-2.04-4.76-1.25
		c-2.27,0.79-3.63,3.29-4.31,8.17c-0.68,4.88-1.47,11.79,1.7,14.86c3.18,3.06,5.22,3.4,7.94,3.63c1.81,0.15,4.42,0,6.12-1.36
		C61.25,61.4,63.99,59.12,62.4,48.92z"/>
	<path class="st6" d="M80.42,53.92c0.17-1.85,0.43-6.97,1.36-10.09c0.93-3.13,4.67-5,9.19-4.65c4.52,0.35,7.35,0.92,8.39,5.67
		c1.04,4.75,0.72,12.15,0.57,13.38c-0.23,1.81-1.13,4.42-4.65,5.1c-2.06,0.4-8.95,0.31-10.66-0.45
		C81.55,61.51,79.85,60.04,80.42,53.92"/>
	<path class="st7" d="M80.42,53.92c0.17-1.85,0.43-6.97,1.36-10.09c0.93-3.13,4.67-5,9.19-4.65c4.52,0.35,7.35,0.92,8.39,5.67
		c1.04,4.75,0.72,12.15,0.57,13.38c-0.23,1.81-1.13,4.42-4.65,5.1c-2.06,0.4-8.95,0.31-10.66-0.45
		C81.55,61.51,79.85,60.04,80.42,53.92z"/>
	<path class="st6" d="M80.71,53.92c0.11-2.49,0.75-7.08-0.18-10.21c-0.93-3.13-4.56-5.11-9.07-4.76s-8.05,1.25-9.07,5.56
		c-1.12,4.73-1.63,12.14-1.47,13.38c0.23,1.81,1.42,4.76,4.94,5.44c2.06,0.4,8.32,0.42,10.03-0.34
		C78.94,61.63,80.42,60.49,80.71,53.92"/>
	<path class="st7" d="M80.71,53.92c0.11-2.49,0.75-7.08-0.18-10.21c-0.93-3.13-4.56-5.11-9.07-4.76s-8.05,1.25-9.07,5.56
		c-1.12,4.73-1.63,12.14-1.47,13.38c0.23,1.81,1.42,4.76,4.94,5.44c2.06,0.4,8.32,0.42,10.03-0.34
		C78.94,61.63,80.42,60.49,80.71,53.92z"/>
	<g class="st8">
		<g>
			<defs>
				<rect id="SVGID_1_" x="7.71" y="35.2" width="144.58" height="32.58"/>
			</defs>
			<clipPath id="SVGID_00000033368718626525898470000009262791476078645126_">
				<use xlink:href="#SVGID_1_"  style="overflow:visible;"/>
			</clipPath>
			<g style="clip-path:url(#SVGID_00000033368718626525898470000009262791476078645126_);">
				<defs>
					<rect id="SVGID_00000076575157359308280120000001871390529910249887_" x="7.71" y="35.19" width="144.57" height="32.58"/>
				</defs>
				<clipPath id="SVGID_00000065764295766681624510000014924567706631587204_">
					<use xlink:href="#SVGID_00000076575157359308280120000001871390529910249887_"  style="overflow:visible;"/>
				</clipPath>
				<path style="clip-path:url(#SVGID_00000065764295766681624510000014924567706631587204_);fill:#00ADEE;" d="M9.57,36.11
					c0,0-1.71,3.16-1.84,8.56c-0.13,5.4,0.92,10.93,3.82,13.3c2.9,2.37,5.66,3.03,8.69,1.58c0,0,3.16,4.34,9.74,2.63
					c0,0,4.87,5.13,13.16-2.11c0,0,5.27,12.37,19.75,4.34c0,0,8.4,5.79,17.43-0.13c0,0,10.66,7.77,19.78,0.13
					c0,0,10.96,5.79,17.81-3.16c0,0,5.65,5.92,13.62,0.92c0,0,7.84,2.37,10.34-3.03c0,0,8.16-0.2,9.48-5.17
					c1.32-4.97,2.02-11.81-3.14-18.79c0,0-44.86,5.41-66.47,5.18C60.12,40.15,13.45,37.3,9.57,36.11"/>
			</g>
		</g>
	</g>
	<path class="st11" d="M9.57,36.11c0,0-1.71,3.16-1.84,8.56c-0.13,5.4,0.92,10.93,3.82,13.3c2.9,2.37,5.66,3.03,8.69,1.58
		c0,0,3.16,4.34,9.74,2.63c0,0,4.87,5.13,13.16-2.11c0,0,5.27,12.37,19.75,4.34c0,0,8.4,5.79,17.43-0.13c0,0,10.66,7.77,19.78,0.13
		c0,0,10.96,5.79,17.81-3.16c0,0,5.65,5.92,13.62,0.92c0,0,7.84,2.37,10.34-3.03c0,0,8.16-0.2,9.48-5.17
		c1.32-4.97,2.02-11.81-3.14-18.79"/>
</g>
<g id="_x35_" class="st0">
	<path class="st1" d="M18,67.55c3.42,0,15.13-0.49,22.44,0.49c7.32,0.98,22.93,1.71,25.13,2.2c2.2,0.49,26.59,3.42,29.52,3.66
		s29.03,0.24,31.47,1.22c2.44,0.98,10,3.42,10,10.73c0,7.32-4.39,14.15-8.29,15.86c-3.9,1.71-21.71,7.56-45.14,5.37
		c-23.42-2.2-45.38-8.78-59.53-16.35C9.46,83.17,6.78,75.6,6.05,71.46c-0.73-4.15-0.24-8.05,3.17-6.59
		C12.64,66.33,18,67.55,18,67.55"/>
	<path class="st2" d="M25.8,65.78c-0.4-2-0.77-5.62,1.84-6.03c2.6-0.41,6.38,0.09,8.09,0.42c1.71,0.33,3.25,0.89,6.34,0.57
		c3.09-0.32,5.86-1.3,7.4,0.16c1.55,1.46,3.17,3.42,1.63,7.24c-1.55,3.82-3.49,7.79-10.08,8.28c-6.59,0.49-10.08-0.81-12.85-3.9
		C26.92,71.13,26.29,68.23,25.8,65.78"/>
	<path class="st12" d="M25.8,65.78c-0.4-2-0.77-5.62,1.84-6.03c2.6-0.41,6.38,0.09,8.09,0.42c1.71,0.33,3.25,0.89,6.34,0.57
		c3.09-0.32,5.86-1.3,7.4,0.16c1.55,1.46,3.17,3.42,1.63,7.24c-1.55,3.82-3.49,7.79-10.08,8.28c-6.59,0.49-10.08-0.81-12.85-3.9
		C26.92,71.13,26.29,68.23,25.8,65.78z"/>
	<path class="st2" d="M52.57,72.66c-1.05-1.86-1.87-3.74-1.95-4.99c-0.09-1.25-0.12-3.68,0.85-4.55c2.12-1.91,3.82-1.91,5.77-1.91
		s5.56,2.69,6.92,3.13c1.36,0.44,2.63,0.96,4.5,0.37c2.46-0.77,7.01-2.24,8.96-2.02c1.95,0.22,3.31,1.69,2.8,5.88
		c-0.52,4.24-2.38,7.27-5.78,10.28c-1.34,1.19-6.66,3-10.87,2.46C57.9,80.54,55.37,77.66,52.57,72.66"/>
	<path class="st12" d="M52.57,72.66c-1.05-1.86-1.87-3.74-1.95-4.99c-0.09-1.25-0.12-3.68,0.85-4.55c2.12-1.91,3.82-1.91,5.77-1.91
		s5.56,2.69,6.92,3.13c1.36,0.44,2.63,0.96,4.5,0.37c2.46-0.77,7.01-2.24,8.96-2.02c1.95,0.22,3.31,1.69,2.8,5.88
		c-0.52,4.24-2.38,7.27-5.78,10.28c-1.34,1.19-6.66,3-10.87,2.46C57.9,80.54,55.37,77.66,52.57,72.66z"/>
	<path class="st2" d="M80.95,72.06c-0.27-1.77-0.33-3.85-0.41-5.21c-0.08-1.35,0.16-2.92,2.6-3.42c2.44-0.5,6.99-1.35,9.19-0.86
		c2.2,0.5,4.07,1.64,4.8,2.14c0.73,0.5,2.36,1,2.6,3.42c0.24,2.43,0.73,6.21-0.24,8.13c-0.98,1.93-3.82,5.92-5.21,7.35
		c-1.38,1.43-2.77,2.21-4.96,0.57c-2.2-1.64-5.45-5.42-6.59-6.92C81.6,75.77,81.35,74.7,80.95,72.06"/>
	<path class="st12" d="M80.95,72.06c-0.27-1.77-0.33-3.85-0.41-5.21c-0.08-1.35,0.16-2.92,2.6-3.42c2.44-0.5,6.99-1.35,9.19-0.86
		c2.2,0.5,4.07,1.64,4.8,2.14c0.73,0.5,2.36,1,2.6,3.42c0.24,2.43,0.73,6.21-0.24,8.13c-0.98,1.93-3.82,5.92-5.21,7.35
		c-1.38,1.43-2.77,2.21-4.96,0.57c-2.2-1.64-5.45-5.42-6.59-6.92C81.6,75.77,81.35,74.7,80.95,72.06z"/>
	<path class="st2" d="M101.82,79.45c-0.9-2.27-1.37-4.41-1.6-6.79c-0.23-2.38-1.14-6.22,1.6-6.22c2.74,0,6.47-0.29,9.05,0.07
		c2.59,0.36,5.93,0.43,6.24,3.54c0.19,1.95-0.84,8.82-2.89,12.79c-2.05,3.98-3.73,5.2-4.94,5.28
		C108.05,88.2,104.48,86.17,101.82,79.45"/>
	<path class="st12" d="M101.82,79.45c-0.9-2.27-1.37-4.41-1.6-6.79c-0.23-2.38-1.14-6.22,1.6-6.22c2.74,0,6.47-0.29,9.05,0.07
		c2.59,0.36,5.93,0.43,6.24,3.54c0.19,1.95-0.84,8.82-2.89,12.79c-2.05,3.98-3.73,5.2-4.94,5.28
		C108.05,88.2,104.48,86.17,101.82,79.45z"/>
	<path class="st2" d="M136.66,66.28c0,0,2.28-0.61,2.76,1c0.49,1.61-0.41,6.36-1.22,9.96c-0.49,2.19-1.63,6.44-2.28,7.12
		c-0.65,0.69-1.63,1.07-1.95-0.08c-0.32-1.15,1.63-16.78,1.63-16.78L136.66,66.28z"/>
	<path class="st12" d="M136.66,66.28c0,0,2.28-0.61,2.76,1c0.49,1.61-0.41,6.36-1.22,9.96c-0.49,2.19-1.63,6.44-2.28,7.12
		c-0.65,0.69-1.63,1.07-1.95-0.08c-0.32-1.15,1.63-16.78,1.63-16.78L136.66,66.28z"/>
	<path class="st2" d="M133.32,65.44c1.04-0.18,3.25-0.23,3.42,1.46c0.16,1.69-1.38,10.72-1.87,13.56c-0.49,2.83-0.49,4.83-2.52,4.83
		s-2.6-2.38-2.52-4.21c0.08-1.84,0.65-13.41,0.65-13.41S130.72,65.9,133.32,65.44"/>
	<path class="st12" d="M133.32,65.44c1.04-0.18,3.25-0.23,3.42,1.46c0.16,1.69-1.38,10.72-1.87,13.56
		c-0.49,2.83-0.49,4.83-2.52,4.83s-2.6-2.38-2.52-4.21c0.08-1.84,0.65-13.41,0.65-13.41S130.72,65.9,133.32,65.44z"/>
	<path class="st2" d="M121.24,88c-1.62-1.76-4.88-6.29-5.26-9.51c-0.39-3.22-0.23-11.58,3.41-13.42c3.64-1.84,7.04-2.61,9.52-1.46
		c2.48,1.15,2.71,1.46,2.63,3.83c-0.08,2.38-1.24,17.17-1.78,19.24C129.21,88.76,127.66,94.97,121.24,88"/>
	<path class="st12" d="M121.24,88c-1.62-1.76-4.88-6.29-5.26-9.51c-0.39-3.22-0.23-11.58,3.41-13.42c3.64-1.84,7.04-2.61,9.52-1.46
		c2.48,1.15,2.71,1.46,2.63,3.83c-0.08,2.38-1.24,17.17-1.78,19.24C129.21,88.76,127.66,94.97,121.24,88z"/>
	<path class="st1" d="M34.76,49.42c-9.91,0.73-17.4,1.22-20.3-3.17c-2.9-4.39-4.35-15.86-4.11-20.74c0.24-4.88,1.45-7.08,5.32-7.81
		c3.87-0.73,65.25-6.83,89.9-4.88c24.65,1.95,38.67,5.37,40.6,10.49c1.93,5.12-1.45,19.27-2.66,22.2c-1.21,2.93-5.07,8.29-11.6,9.76
		c-6.53,1.46-55.34-0.73-63.08-1.22C61.1,53.56,44.67,48.68,34.76,49.42"/>
	<path class="st2" d="M142.53,47.38c-0.07-1.71,0.32-5.36,1.21-5.34c0.9,0.02,3.25,2.13,6.29,7.75c3.5,6.48,3.83,12.16,3.99,13.29
		c0.16,1.13,0.67,4.35-0.82,5.81c-1.45,1.41-5.16,2.56-5.74,0.16C146.9,66.64,142.75,52.83,142.53,47.38"/>
	<path class="st12" d="M142.53,47.38c-0.07-1.71,0.32-5.36,1.21-5.34c0.9,0.02,3.25,2.13,6.29,7.75c3.5,6.48,3.83,12.16,3.99,13.29
		c0.16,1.13,0.67,4.35-0.82,5.81c-1.45,1.41-5.16,2.56-5.74,0.16C146.9,66.64,142.75,52.83,142.53,47.38z"/>
	<path class="st2" d="M31.09,53.5c0.49-3.42,1.54-8.17,6.1-10.12c3.99-1.71,11.88-0.22,14.52,1.83c2.2,1.71,2.86,1.96,3.54,5.49
		c0.61,3.17,0.24,5.86-0.37,8.05c-0.25,0.89-0.89,3.82-2.93,4.64c-1.34,0.53-4.02,1.5-6.22,0.12c-2.19-1.38-1.95-2.07-3.9-1.83
		c-0.95,0.12-3.82,1.75-6.01,1.26C33.62,62.45,30,61.16,31.09,53.5"/>
	<path class="st12" d="M31.09,53.5c0.49-3.42,1.54-8.17,6.1-10.12c3.99-1.71,11.88-0.22,14.52,1.83c2.2,1.71,2.86,1.96,3.54,5.49
		c0.61,3.17,0.24,5.86-0.37,8.05c-0.25,0.89-0.89,3.82-2.93,4.64c-1.34,0.53-4.02,1.5-6.22,0.12c-2.19-1.38-1.95-2.07-3.9-1.83
		c-0.95,0.12-3.82,1.75-6.01,1.26C33.62,62.45,30,61.16,31.09,53.5z"/>
	<path class="st2" d="M55.82,54.88c0.22-4.23,2.11-8.86,5.85-10.57c3.95-1.8,13.14-1.01,15.7,1.14c1.54,1.3,3.66,3.9,3.98,7.48
		c0.33,3.58,0.24,5.77-0.49,8.54c-0.24,0.9-0.66,2.81-2.69,3.62c-1.34,0.54-3.78,1.26-5.98-0.12c-2.2-1.38-2.03-1.54-3.98-1.3
		c-0.95,0.12-4.34,1.46-6.54,0.98C59.48,64.16,55.41,62.61,55.82,54.88"/>
	<path class="st12" d="M55.82,54.88c0.22-4.23,2.11-8.86,5.85-10.57c3.95-1.8,13.14-1.01,15.7,1.14c1.54,1.3,3.66,3.9,3.98,7.48
		c0.33,3.58,0.24,5.77-0.49,8.54c-0.24,0.9-0.66,2.81-2.69,3.62c-1.34,0.54-3.78,1.26-5.98-0.12c-2.2-1.38-2.03-1.54-3.98-1.3
		c-0.95,0.12-4.34,1.46-6.54,0.98C59.48,64.16,55.41,62.61,55.82,54.88z"/>
	<path class="st2" d="M84.28,49.76c1.33-2.21,4.88-6.18,7.16-6.34c2.28-0.16,3.9,0.65,4.88,2.68c0.98,2.03,1.74,5.33,2.11,9.6
		c0.3,3.53,0.73,7.56-0.73,8.66c-0.99,0.74-5.61,6.1-9.88,3.17c-3.78-2.59-7.11-4.59-6.54-7.93C81.84,56.27,81.68,54.07,84.28,49.76
		"/>
	<path class="st12" d="M84.28,49.76c1.33-2.21,4.88-6.18,7.16-6.34c2.28-0.16,3.9,0.65,4.88,2.68c0.98,2.03,1.74,5.33,2.11,9.6
		c0.3,3.53,0.73,7.56-0.73,8.66c-0.99,0.74-5.61,6.1-9.88,3.17c-3.78-2.59-7.11-4.59-6.54-7.93C81.84,56.27,81.68,54.07,84.28,49.76
		z"/>
	<path class="st2" d="M132.61,48.24c-0.06-0.77,2.77-4.35,3.95-5.25c1.05-0.8,1.4-1.68,3.29-0.08c1.89,1.6,4.09,6,4.91,8.25
		c1.47,4.06,2.87,12.9,2.49,16.59c-0.14,1.34-2.89,2.62-5.09,2.64c-1.35,0.01-2.4-1.28-3.95-2.57c-1.55-1.29-2.53-3.27-2.97-4.58
		C134.84,62.04,133.58,60.04,132.61,48.24"/>
	<path class="st12" d="M132.61,48.24c-0.06-0.77,2.77-4.35,3.95-5.25c1.05-0.8,1.4-1.68,3.29-0.08c1.89,1.6,4.09,6,4.91,8.25
		c1.47,4.06,2.87,12.9,2.49,16.59c-0.14,1.34-2.89,2.62-5.09,2.64c-1.35,0.01-2.4-1.28-3.95-2.57c-1.55-1.29-2.53-3.27-2.97-4.58
		C134.84,62.04,133.58,60.04,132.61,48.24z"/>
	<path class="st2" d="M100.49,51.68c0.94-1.01,2.35-3.3,3.08-5.01c0.73-1.71,2.21-4.14,4.24-4.87c2.03-0.73,4.07-1.18,5.37,0.85
		c1.3,2.03,1.59,4.88,2.32,9.03c0.66,3.74,1.14,9.92,0.85,12.2c-0.24,1.95-3.37,5.52-6.1,5.98c-1.95,0.33-6.31-2.42-8.99-3.72
		c-2.68-1.3-3.08-3.47-3.08-7.5C98.18,55.28,97.56,54.85,100.49,51.68"/>
	<path class="st12" d="M100.49,51.68c0.94-1.01,2.35-3.3,3.08-5.01c0.73-1.71,2.21-4.14,4.24-4.87c2.03-0.73,4.07-1.18,5.37,0.85
		c1.3,2.03,1.59,4.88,2.32,9.03c0.66,3.74,1.14,9.92,0.85,12.2c-0.24,1.95-3.37,5.52-6.1,5.98c-1.95,0.33-6.31-2.42-8.99-3.72
		c-2.68-1.3-3.08-3.47-3.08-7.5C98.18,55.28,97.56,54.85,100.49,51.68z"/>
	<path class="st2" d="M118.94,47.22c2.41-3.32,4.03-6.42,5.11-7.38c1.09-0.96,2.57-2.02,4.42,0.32c1.85,2.34,3.63,5.13,5.86,10.62
		c1.94,4.78,2.84,6.8,3.03,12.17c0.13,3.85-2.57,7.03-4.84,7.25c-2.27,0.21-10.82-1.21-12.66-3.42c-1.7-2.05-2.28-2.39-3.01-5.57
		c-0.68-2.95-1.23-7.87-0.65-9.13C116.77,50.8,118.3,48.09,118.94,47.22"/>
	<path class="st12" d="M118.94,47.22c2.41-3.32,4.03-6.42,5.11-7.38c1.09-0.96,2.57-2.02,4.42,0.32c1.85,2.34,3.63,5.13,5.86,10.62
		c1.94,4.78,2.84,6.8,3.03,12.17c0.13,3.85-2.57,7.03-4.84,7.25c-2.27,0.21-10.82-1.21-12.66-3.42c-1.7-2.05-2.28-2.39-3.01-5.57
		c-0.68-2.95-1.23-7.87-0.65-9.13C116.77,50.8,118.3,48.09,118.94,47.22z"/>
</g>
<g id="_x33_" class="st0">
	<path class="st1" d="M6.01,80.72c1.02-3.35,4.93-10.46,6.13-11.31s5.31,4.32,8.43,5.41c3.13,1.08,22.84-0.23,31.5,0.97
		c8.66,1.2,28.27-0.12,32.23-0.6c3.97-0.48,30.79-0.24,32.96-0.6c2.17-0.36,23.5-4.77,26.54-5.57c3.05-0.8,7.02-1.04,8.46,2.2
		c1.44,3.25,4.33,8.9,4.69,13.71c0.36,4.81,0.36,9.14-6.01,11.43c-6.38,2.29-19.85,7.58-52.44,7.94c-32.6,0.36-38.01,0-48.47-0.6
		c-10.46-0.6-24.06-2.77-33.32-5.65C7.46,95.15,2.53,92.15,6.01,80.72"/>
	<path class="st1" d="M6.54,43.12c-2.86-3.15-3.16-6.09-2.68-10.58c0.48-4.49,4.69-8.6,11.42-10.36c6.74-1.76,22.29-5.93,48.75-6.42
		c26.46-0.48,37.69-0.16,51.96,1.44c14.27,1.6,29.19,4.49,33.84,7.7c4.65,3.21,7.38,8.82,3.37,18.6
		c-4.01,9.78-52.44,3.05-59.66,2.56c-7.22-0.48-60.62,0.32-62.55,0.32C29.07,46.4,11.13,48.18,6.54,43.12"/>
	<path class="st2" d="M3.06,50.91c0.51-2.76,2.13-7.53,3.03-9.25s3.11-5.57,4.1-6.31c0.98-0.74,3.6-1.96,6.31-0.08
		c2.7,1.88,7.37,4.34,6.96,7.21c-0.09,0.66-1.72,10.16-9.67,14.42C4.65,61.79,2.24,55.33,3.06,50.91"/>
	<path class="st3" d="M3.06,50.91c0.51-2.76,2.13-7.53,3.03-9.25s3.11-5.57,4.1-6.31c0.98-0.74,3.6-1.96,6.31-0.08
		c2.7,1.88,7.37,4.34,6.96,7.21c-0.09,0.66-1.72,10.16-9.67,14.42C4.65,61.79,2.24,55.33,3.06,50.91z"/>
	<path class="st2" d="M3.55,80.42c-0.2-2.8,0.62-6.3,1.52-8.02c0.9-1.72,2.07-4.04,3.05-4.78c0.98-0.74,3.07-1.83,5.77,0.05
		c2.7,1.88,4.57,3.37,5.61,8.82c0.12,0.65,2.01,8.58-2.89,11.55C7.76,93.41,3.87,84.99,3.55,80.42"/>
	<path class="st3" d="M3.55,80.42c-0.2-2.8,0.62-6.3,1.52-8.02c0.9-1.72,2.07-4.04,3.05-4.78c0.98-0.74,3.07-1.83,5.77,0.05
		c2.7,1.88,4.57,3.37,5.61,8.82c0.12,0.65,2.01,8.58-2.89,11.55C7.76,93.41,3.87,84.99,3.55,80.42z"/>
	<path class="st2" d="M13.25,83.06c-0.2-2.8,2.32-9.58,4.17-10.18c3.69-1.2,3.99-3.83,4.97-4.57c0.98-0.74,3.07-1.8,5.77,0.08
		c2.7,1.88,4.25,3,3.05,8.42c-0.48,2.17-0.81,9.58-6.01,11.95C16.38,92.77,13.57,87.63,13.25,83.06"/>
	<path class="st3" d="M13.25,83.06c-0.2-2.8,2.32-9.58,4.17-10.18c3.69-1.2,3.99-3.83,4.97-4.57c0.98-0.74,3.07-1.8,5.77,0.08
		c2.7,1.88,4.25,3,3.05,8.42c-0.48,2.17-0.81,9.58-6.01,11.95C16.38,92.77,13.57,87.63,13.25,83.06z"/>
	<path class="st2" d="M57.76,83.63c-0.74-3.3,0.08-11.15,1.6-13.87c1.84-3.29,3.21-3.37,4.41-3.61c1.6-0.32,5.17-0.2,7.54,2.08
		c2.17,2.08,1.65,13.82,1.2,17.96c-0.24,2.25-1.36,5.3-4.97,5.21C60.64,91.24,58.76,88.1,57.76,83.63"/>
	<path class="st3" d="M57.76,83.63c-0.74-3.3,0.08-11.15,1.6-13.87c1.84-3.29,3.21-3.37,4.41-3.61c1.6-0.32,5.17-0.2,7.54,2.08
		c2.17,2.08,1.65,13.82,1.2,17.96c-0.24,2.25-1.36,5.3-4.97,5.21C60.64,91.24,58.76,88.1,57.76,83.63z"/>
	<path class="st2" d="M73.88,83.63c-0.35-2.78,1.28-11.31,2.81-14.03c1.84-3.29,5.85-3.61,7.06-3.85c1.6-0.32,6.08,0.33,8.34,2.73
		c4.01,4.25-0.4,11.87-2.16,16.52c-1.91,5.03-6.66,6.5-8.58,6.42C74.44,91.12,74.28,86.83,73.88,83.63"/>
	<path class="st3" d="M73.88,83.63c-0.35-2.78,1.28-11.31,2.81-14.03c1.84-3.29,5.85-3.61,7.06-3.85c1.6-0.32,6.08,0.33,8.34,2.73
		c4.01,4.25-0.4,11.87-2.16,16.52c-1.91,5.03-6.66,6.5-8.58,6.42C74.44,91.12,74.28,86.83,73.88,83.63z"/>
	<path class="st2" d="M93.36,82.98c0.72-4.97,1.76-9.46,6.74-14.83c2.56-2.76,3.93-2.97,5.13-3.21c1.6-0.32,5.74,0.59,7.38,3.45
		c2.81,4.89-0.08,11.47-3.13,15.16c-3.43,4.15-8.58,7.78-11.55,7.7C92.08,91.09,92.9,86.16,93.36,82.98"/>
	<path class="st3" d="M93.36,82.98c0.72-4.97,1.76-9.46,6.74-14.83c2.56-2.76,3.93-2.97,5.13-3.21c1.6-0.32,5.74,0.59,7.38,3.45
		c2.81,4.89-0.08,11.47-3.13,15.16c-3.43,4.15-8.58,7.78-11.55,7.7C92.08,91.09,92.9,86.16,93.36,82.98z"/>
	<path class="st2" d="M139.55,71.52c0.23-2.56,0.63-4.65,1.68-6.65c1.52-2.89,2.3-1.88,3.53-1.92c2.41-0.08,5.62-2.57,9.06,1.44
		c2.41,2.81,1.84,9.78,0.56,14.52c-0.96,3.54-3.77,5.29-5.85,5.37C142.68,84.49,138.99,77.77,139.55,71.52"/>
	<path class="st3" d="M139.55,71.52c0.23-2.56,0.63-4.65,1.68-6.65c1.52-2.89,2.3-1.88,3.53-1.92c2.41-0.08,5.62-2.57,9.06,1.44
		c2.41,2.81,1.84,9.78,0.56,14.52c-0.96,3.54-3.77,5.29-5.85,5.37C142.68,84.49,138.99,77.77,139.55,71.52z"/>
	<path class="st2" d="M42.2,83.79c-0.74-3.3-3.37-10.02-1.84-12.75c1.84-3.29,5.29-2.89,6.49-3.13c1.6-0.32,6.46-1.16,8.98,0.96
		c1.52,1.28,1.84,6.66-0.4,15.96c-0.28,1.16-2.17,8.82-4.97,10.98C46.79,98.64,43.2,88.26,42.2,83.79"/>
	<path class="st3" d="M42.2,83.79c-0.74-3.3-3.37-10.02-1.84-12.75c1.84-3.29,5.29-2.89,6.49-3.13c1.6-0.32,6.46-1.16,8.98,0.96
		c1.52,1.28,1.84,6.66-0.4,15.96c-0.28,1.16-2.17,8.82-4.97,10.98C46.79,98.64,43.2,88.26,42.2,83.79z"/>
	<path class="st2" d="M96.84,57.13c-1.4-3.43-1.26-8.9-0.74-11.22c0.74-3.28,1.89-5.08,2.87-6.22c1.47-1.72,2.97-3.02,6.14-2.13
		c2.62,0.74,6.7,10.29,8.03,14.82c0.98,3.36,1.96,7.21-3.77,10.08C102.16,66.06,99.54,63.77,96.84,57.13"/>
	<path class="st3" d="M96.84,57.13c-1.4-3.43-1.26-8.9-0.74-11.22c0.74-3.28,1.89-5.08,2.87-6.22c1.47-1.72,2.97-3.02,6.14-2.13
		c2.62,0.74,6.7,10.29,8.03,14.82c0.98,3.36,1.96,7.21-3.77,10.08C102.16,66.06,99.54,63.77,96.84,57.13z"/>
	<path class="st2" d="M136.32,53.37c-2.28-1.77-2.85-1.98-1.56-4.83c0.41-0.9,2.38-3.85,3.77-5.49c3.15-3.71,6-4.07,8.68-3.6
		c2.37,0.41,2.62,4.26,2.62,6.72c0,2.54,0,5.73-1.31,8.35C146.72,58.12,141.07,57.05,136.32,53.37"/>
	<path class="st3" d="M136.32,53.37c-2.28-1.77-2.85-1.98-1.56-4.83c0.41-0.9,2.38-3.85,3.77-5.49c3.15-3.71,6-4.07,8.68-3.6
		c2.37,0.41,2.62,4.26,2.62,6.72c0,2.54,0,5.73-1.31,8.35C146.72,58.12,141.07,57.05,136.32,53.37z"/>
	<path class="st2" d="M11.66,43.13c0.51-2.76,1.38-5.66,2.13-7.45c0.82-1.97,2.95-4.83,3.93-5.57c0.98-0.74,2.23-1.44,5.41-0.57
		c3.6,0.98,8.2,2.49,7.62,5.33c-0.57,2.79-5.16,15.07-16.05,18.67C12.38,54.3,10.84,47.55,11.66,43.13"/>
	<path class="st3" d="M11.66,43.13c0.51-2.76,1.38-5.66,2.13-7.45c0.82-1.97,2.95-4.83,3.93-5.57c0.98-0.74,2.23-1.44,5.41-0.57
		c3.6,0.98,8.2,2.49,7.62,5.33c-0.57,2.79-5.16,15.07-16.05,18.67C12.38,54.3,10.84,47.55,11.66,43.13z"/>
	<path class="st2" d="M24.52,41.49c0.51-2.76,1.81-6.78,2.95-8.93c1.56-2.95,4.05-7.05,5.73-8.44c1.88-1.56,2.88-2.34,6.06-1.48
		c3.6,0.98,7.29,3.61,7.95,12.78c0.14,1.91-2.13,5.65-12.12,15.97c-3.18,3.28-3.67,8.28-7.37,8.93
		C23.04,61.15,23.7,45.91,24.52,41.49"/>
	<path class="st3" d="M24.52,41.49c0.51-2.76,1.81-6.78,2.95-8.93c1.56-2.95,4.05-7.05,5.73-8.44c1.88-1.56,2.88-2.34,6.06-1.48
		c3.6,0.98,7.29,3.61,7.95,12.78c0.14,1.91-2.13,5.65-12.12,15.97c-3.18,3.28-3.67,8.28-7.37,8.93
		C23.04,61.15,23.7,45.91,24.52,41.49z"/>
	<path class="st2" d="M125.51,51.65c-1.64-2.38-3.1-4.03-1.8-6.88c0.41-0.9,3.67-5.18,4.75-6.22c2.46-2.38,3.68-4.18,6.31-3.44
		c3.88,1.09,4.91,2.29,5.08,5.32c0.19,3.49-0.83,9.86-3.44,15.07C134.6,59.1,129.82,57.9,125.51,51.65"/>
	<path class="st3" d="M125.51,51.65c-1.64-2.38-3.1-4.03-1.8-6.88c0.41-0.9,3.67-5.18,4.75-6.22c2.46-2.38,3.68-4.18,6.31-3.44
		c3.88,1.09,4.91,2.29,5.08,5.32c0.19,3.49-0.83,9.86-3.44,15.07C134.6,59.1,129.82,57.9,125.51,51.65z"/>
	<path class="st2" d="M115.51,52.55c-1.88-3.2-10.16-14.22-9.5-17.28c0.74-3.44,5.37-8.56,6.47-9.58c2.38-2.21,5.46-3.9,8.52-2.54
		c3.69,1.64,5.59,8.52,6.47,14.74c0.49,3.46,2.05,14.17-1.64,19.66C122.55,62.43,119.36,59.1,115.51,52.55"/>
	<path class="st3" d="M115.51,52.55c-1.88-3.2-10.16-14.22-9.5-17.28c0.74-3.44,5.37-8.56,6.47-9.58c2.38-2.21,5.46-3.9,8.52-2.54
		c3.69,1.64,5.59,8.52,6.47,14.74c0.49,3.46,2.05,14.17-1.64,19.66C122.55,62.43,119.36,59.1,115.51,52.55z"/>
	<path class="st2" d="M37.46,55.58c-0.25-4.34,2.38-8.27,3.28-9.99c0.9-1.72,6.31-9.58,7.29-10.32s2.63-1.88,5.65-0.57
		c2.46,1.07,6.04,3.99,6.14,6.88c0.13,3.73,0.88,18.84-5.82,21.21C47.78,65,37.75,60.77,37.46,55.58"/>
	<path class="st3" d="M37.46,55.58c-0.25-4.34,2.38-8.27,3.28-9.99c0.9-1.72,6.31-9.58,7.29-10.32s2.63-1.88,5.65-0.57
		c2.46,1.07,6.04,3.99,6.14,6.88c0.13,3.73,0.88,18.84-5.82,21.21C47.78,65,37.75,60.77,37.46,55.58z"/>
	<path class="st2" d="M77.35,55.25c-0.41-3.69,0-9.25,0.16-11.63c0.16-2.38,1.06-4.67,2.13-5.73c1.76-1.76,5.27-2.53,8.44-1.64
		c2.62,0.74,4.08,2.51,5.41,7.04c0.98,3.36,5.16,14.82-1.39,16.71C83.28,62.53,78.01,61.19,77.35,55.25"/>
	<path class="st3" d="M77.35,55.25c-0.41-3.69,0-9.25,0.16-11.63c0.16-2.38,1.06-4.67,2.13-5.73c1.76-1.76,5.27-2.53,8.44-1.64
		c2.62,0.74,4.08,2.51,5.41,7.04c0.98,3.36,5.16,14.82-1.39,16.71C83.28,62.53,78.01,61.19,77.35,55.25z"/>
	<path class="st2" d="M58.1,55.9c-0.36-4.33,0.25-8.27,0.82-10.81c0.53-2.32,1.98-6.44,2.87-7.29c1.8-1.72,5.51-2.94,8.68-2.05
		c2.62,0.74,4.91,1.96,6.06,6.55c0.91,3.62,2.05,16.63-4.26,18.76C66.01,63.18,58.59,61.88,58.1,55.9"/>
	<path class="st3" d="M58.1,55.9c-0.36-4.33,0.25-8.27,0.82-10.81c0.53-2.32,1.98-6.44,2.87-7.29c1.8-1.72,5.51-2.94,8.68-2.05
		c2.62,0.74,4.91,1.96,6.06,6.55c0.91,3.62,2.05,16.63-4.26,18.76C66.01,63.18,58.59,61.88,58.1,55.9z"/>
	<path class="st2" d="M25.68,88.2c-0.74-3.3-0.64-10.74,0.88-13.47c1.84-3.29,4.01-3.37,5.21-3.61c1.6-0.32,5.64,0.13,7.86,2.56
		c4.81,5.29,3.4,6.88,0.96,11.87c-1.76,3.61-0.48,8.66-4.33,11.39C32.48,99.62,26.68,92.67,25.68,88.2"/>
	<path class="st3" d="M25.68,88.2c-0.74-3.3-0.64-10.74,0.88-13.47c1.84-3.29,4.01-3.37,5.21-3.61c1.6-0.32,5.64,0.13,7.86,2.56
		c4.81,5.29,3.4,6.88,0.96,11.87c-1.76,3.61-0.48,8.66-4.33,11.39C32.48,99.62,26.68,92.67,25.68,88.2z"/>
	<path class="st2" d="M126.64,75.29c0.23-2.55,0.55-4.73,1.6-6.73c1.52-2.89,4.79-1.24,6.01-1.28c2.41-0.08,8.17-1.89,9.3,1.2
		c2,5.45,0.72,11.06-0.56,15.8c-0.96,3.54-3.05,3.85-5.13,3.93C132.02,88.42,126.08,81.54,126.64,75.29"/>
	<path class="st3" d="M126.64,75.29c0.23-2.55,0.55-4.73,1.6-6.73c1.52-2.89,4.79-1.24,6.01-1.28c2.41-0.08,8.17-1.89,9.3,1.2
		c2,5.45,0.72,11.06-0.56,15.8c-0.96,3.54-3.05,3.85-5.13,3.93C132.02,88.42,126.08,81.54,126.64,75.29z"/>
	<path class="st2" d="M111.56,84.27c1.08-4.91-2.01-6.25,1.36-10.42c2.37-2.93,5.99-3.09,7.22-3.13c2.41-0.08,7.23,1.19,9.06,3.93
		c2.57,3.85-1.68,13.23-4.73,16.92c-3.43,4.15-7.22,5.05-9.3,5.13C109.32,96.92,109.96,91.56,111.56,84.27"/>
	<path class="st3" d="M111.56,84.27c1.08-4.91-2.01-6.25,1.36-10.42c2.37-2.93,5.99-3.09,7.22-3.13c2.41-0.08,7.23,1.19,9.06,3.93
		c2.57,3.85-1.68,13.23-4.73,16.92c-3.43,4.15-7.22,5.05-9.3,5.13C109.32,96.92,109.96,91.56,111.56,84.27z"/>
</g>
<g id="_x32_" class="st0">
	<path class="st1" d="M3.94,74.41c1.02-3.35,2.43-8.23,3.63-9.07c1.2-0.84,9.78,7.62,12.91,8.71c3.13,1.08,22.84-0.23,31.5,0.97
		c8.66,1.2,28.27-0.12,32.24-0.6c3.97-0.48,30.79-0.24,32.96-0.6c2.17-0.36,23.5-4.77,26.54-5.57c3.05-0.8,7.47-5.73,8.92-2.48
		c1.44,3.25,3.87,13.59,4.23,18.4c0.36,4.81,0.36,9.14-6.02,11.43c-6.38,2.28-21.08,7.71-53.65,9.16
		c-32.48,1.44-36.32-0.72-47.27-1.82c-10.43-1.05-24.06-2.77-33.32-5.65C7.35,94.37,0.45,85.83,3.94,74.41"/>
	<path class="st1" d="M6.73,47.88c-2.86-3.15-3.69-11.01-3.21-15.5C4,27.89,8.43,23.17,15.17,21.4c6.74-1.76,22.29-5.93,48.75-6.42
		c26.46-0.48,37.69-0.16,51.96,1.44c14.27,1.6,29.19,4.49,33.84,7.7c4.65,3.21,8.59,11.32,4.58,21.1
		c-4.01,9.78-52.53-3.76-59.75-4.24c-7.22-0.48-61.74,4.63-63.67,4.63C28.96,45.62,11.33,52.94,6.73,47.88"/>
	<path class="st2" d="M7.31,58.23c-0.83-0.43-2.57-1.28-2.57-4.65s1.28-7.54,1.28-7.54s0.48-1.76,1.6-0.56
		c1.12,1.2,2.17,3.45,2.33,4.57c0.16,1.12,0.24,6.66-0.08,7.62C9.55,58.63,9.15,59.19,7.31,58.23"/>
	<path class="st3" d="M7.31,58.23c-0.83-0.43-2.57-1.28-2.57-4.65s1.28-7.54,1.28-7.54s0.48-1.76,1.6-0.56
		c1.12,1.2,2.17,3.45,2.33,4.57c0.16,1.12,0.24,6.66-0.08,7.62C9.55,58.63,9.15,59.19,7.31,58.23z"/>
	<path class="st2" d="M11.8,59.11c-0.96,0.16-2.57,0.4-2.89-1.6c-0.32-2-0.16-8.58,0.72-10.67c0.88-2.08,1.52-3.77,2.73-2.97
		c1.2,0.8,2.73,1.52,3.69,5.45c0.96,3.93,1.36,6.9-0.08,8.1C14.52,58.63,11.8,59.11,11.8,59.11"/>
	<path class="st3" d="M11.8,59.11c-0.96,0.16-2.57,0.4-2.89-1.6c-0.32-2-0.16-8.58,0.72-10.67c0.88-2.08,1.52-3.77,2.73-2.97
		c1.2,0.8,2.73,1.52,3.69,5.45c0.96,3.93,1.36,6.9-0.08,8.1C14.52,58.63,11.8,59.11,11.8,59.11z"/>
	<path class="st2" d="M17.65,59.27c0,0-1.12,0.88-1.93-0.4c-0.8-1.28-2-5.85-1.68-8.58c0.32-2.73,2.09-8.58,3.05-8.82
		c0.96-0.24,4.17,2.89,5.21,5.21c1.04,2.33,1.36,6.9,0.64,8.02C22.22,55.82,17.65,59.27,17.65,59.27"/>
	<path class="st3" d="M17.65,59.27c0,0-1.12,0.88-1.93-0.4c-0.8-1.28-2-5.85-1.68-8.58c0.32-2.73,2.09-8.58,3.05-8.82
		c0.96-0.24,4.17,2.89,5.21,5.21c1.04,2.33,1.36,6.9,0.64,8.02C22.22,55.82,17.65,59.27,17.65,59.27z"/>
	<path class="st2" d="M21.26,57.51c0,0-0.64-4.01-0.48-7.06c0.16-3.05,1.84-13.79,2.33-15.4c0.48-1.6,1.28-7.06,4.65-2.81
		c3.37,4.25,6.66,8.34,6.98,10.91c0.32,2.57-0.48,10.67-1.2,11.55c-0.72,0.88-3.61,2.33-6.09,3.05
		C24.95,58.47,22.14,60.55,21.26,57.51"/>
	<path class="st3" d="M21.26,57.51c0,0-0.64-4.01-0.48-7.06c0.16-3.05,1.84-13.79,2.33-15.4c0.48-1.6,1.28-7.06,4.65-2.81
		c3.37,4.25,6.66,8.34,6.98,10.91c0.32,2.57-0.48,10.67-1.2,11.55c-0.72,0.88-3.61,2.33-6.09,3.05
		C24.95,58.47,22.14,60.55,21.26,57.51z"/>
	<path class="st2" d="M37.62,54.38c0,0-4.65,0.64-4.65-3.85c0-4.49,2.33-13.31,3.61-15.88c1.28-2.57,4.65-6.58,7.78-3.45
		c3.13,3.13,5.53,5.77,7.06,9.78c1.52,4.01,3.05,9.62,0.88,10.99C50.13,53.34,46.52,54.06,37.62,54.38"/>
	<path class="st3" d="M37.62,54.38c0,0-4.65,0.64-4.65-3.85c0-4.49,2.33-13.31,3.61-15.88c1.28-2.57,4.65-6.58,7.78-3.45
		c3.13,3.13,5.53,5.77,7.06,9.78c1.52,4.01,3.05,9.62,0.88,10.99C50.13,53.34,46.52,54.06,37.62,54.38z"/>
	<path class="st2" d="M53.9,51.25c-2.73-0.32-5.3-0.06-5.21-4.73c0.08-4.49,2.97-11.95,6.9-16.52c3.93-4.57,9.22-6.02,13.63-4.25
		c4.41,1.77,7.38,5.69,8.02,12.99c0.64,7.3,0.81,13.28-1.37,14.2c-1.93,0.82-6.57,0.39-10.42-0.01S53.9,51.25,53.9,51.25"/>
	<path class="st3" d="M53.9,51.25c-2.73-0.32-5.3-0.06-5.21-4.73c0.08-4.49,2.97-11.95,6.9-16.52c3.93-4.57,9.22-6.02,13.63-4.25
		c4.41,1.77,7.38,5.69,8.02,12.99c0.64,7.3,0.81,13.28-1.37,14.2c-1.93,0.82-6.57,0.39-10.42-0.01S53.9,51.25,53.9,51.25z"/>
	<path class="st2" d="M147.29,46.35c0,0,3.15-2.85,3.54-3.15c0.39-0.29,1.77-1.48,2.26,1.18c0.49,2.66,0.69,6.2,0.79,8.26
		c0.1,2.07,0,3.84-1.28,4.62c-1.28,0.79-2.85,1.28-3.64,1.18c-0.79-0.1-1.67-0.39-1.87-1.18C146.89,56.49,147.29,46.35,147.29,46.35
		"/>
	<path class="st3" d="M147.29,46.35c0,0,3.15-2.85,3.54-3.15c0.39-0.29,1.77-1.48,2.26,1.18c0.49,2.66,0.69,6.2,0.79,8.26
		c0.1,2.07,0,3.84-1.28,4.62c-1.28,0.79-2.85,1.28-3.64,1.18c-0.79-0.1-1.67-0.39-1.87-1.18C146.89,56.49,147.29,46.35,147.29,46.35
		z"/>
	<path class="st2" d="M8.67,68.89c-0.86,0.26-3.54,0.67-2.83-1.38c0.71-2.05,2.35-5.41,2.92-6.63c0.47-1.01,0.45-1.43,1.43-1.25
		c0.98,0.18,3.21,0.27,3.3,1.34c0.09,1.07-0.18,4.01-0.98,5.26S11.35,68.09,8.67,68.89"/>
	<path class="st3" d="M8.67,68.89c-0.86,0.26-3.54,0.67-2.83-1.38c0.71-2.05,2.35-5.41,2.92-6.63c0.47-1.01,0.45-1.43,1.43-1.25
		c0.98,0.18,3.21,0.27,3.3,1.34c0.09,1.07-0.18,4.01-0.98,5.26S11.35,68.09,8.67,68.89z"/>
	<path class="st2" d="M10.78,69.37c0.18-1.08,0.96-3.43,1.38-4.39c0.42-0.96,1.93-3.31,2.1-3.79c0.18-0.48,0.78-1.14,1.98-0.72
		s3.31,0.54,3.67,1.44c0.36,0.9-2.77,7.46-3.55,8.18c-0.78,0.72-3.13,2.59-4.75,1.87C10.33,71.39,10.78,69.37,10.78,69.37"/>
	<path class="st3" d="M10.78,69.37c0.18-1.08,0.96-3.43,1.38-4.39c0.42-0.96,1.93-3.31,2.1-3.79c0.18-0.48,0.78-1.14,1.98-0.72
		s3.31,0.54,3.67,1.44c0.36,0.9-2.77,7.46-3.55,8.18c-0.78,0.72-3.13,2.59-4.75,1.87C10.33,71.39,10.78,69.37,10.78,69.37z"/>
	<path class="st2" d="M17.51,67.21c0,0,2.59-4.87,3.01-5.35c0.42-0.48,0.6-1.2,1.86-0.3c1.26,0.9,3.91,2.77,3.91,3.61
		c0,0.84-1.86,4.99-3.07,7.22c-1.2,2.22-2.89,4.15-4.45,4.63c-1.56,0.48-2.1,0.12-2.17-1.32c-0.06-1.44-0.42-6.01,0-6.98
		S17.51,67.21,17.51,67.21"/>
	<path class="st3" d="M17.51,67.21c0,0,2.59-4.87,3.01-5.35c0.42-0.48,0.6-1.2,1.86-0.3c1.26,0.9,3.91,2.77,3.91,3.61
		c0,0.84-1.86,4.99-3.07,7.22c-1.2,2.22-2.89,4.15-4.45,4.63c-1.56,0.48-2.1,0.12-2.17-1.32c-0.06-1.44-0.42-6.01,0-6.98
		S17.51,67.21,17.51,67.21z"/>
	<path class="st2" d="M23.35,76.53c0,0,1.14-8.18,1.44-9.2c0.3-1.02,1.86-2.89,2.71-3.13c0.84-0.24,4.27-1.02,5.41-0.06
		c1.14,0.96,3.55,4.33,3.55,4.93c0,0.6-1.44,3.37-3.73,6.07c-2.29,2.71-6.38,6.86-7.22,7.58c-0.84,0.72-2.16,1.2-2.41-0.78
		C22.86,79.96,23.35,76.53,23.35,76.53"/>
	<path class="st3" d="M23.35,76.53c0,0,1.14-8.18,1.44-9.2c0.3-1.02,1.86-2.89,2.71-3.13c0.84-0.24,4.27-1.02,5.41-0.06
		c1.14,0.96,3.55,4.33,3.55,4.93c0,0.6-1.44,3.37-3.73,6.07c-2.29,2.71-6.38,6.86-7.22,7.58c-0.84,0.72-2.16,1.2-2.41-0.78
		C22.86,79.96,23.35,76.53,23.35,76.53z"/>
	<path class="st2" d="M32.73,82.06c0.3-4.57,1.08-9.14,1.38-10.22c0.3-1.08,1.93-3.37,3.31-4.81c1.38-1.44,2.89-3.25,3.97-2.47
		c1.08,0.78,3.85,3.25,4.81,4.75c0.96,1.5,1.44,4.09-0.96,7.46c-2.41,3.37-9.68,11.73-10.4,12.33c-0.72,0.6-2.35,1.68-2.41-0.84
		C32.37,85.73,32.73,82.06,32.73,82.06"/>
	<path class="st3" d="M32.73,82.06c0.3-4.57,1.08-9.14,1.38-10.22c0.3-1.08,1.93-3.37,3.31-4.81c1.38-1.44,2.89-3.25,3.97-2.47
		c1.08,0.78,3.85,3.25,4.81,4.75c0.96,1.5,1.44,4.09-0.96,7.46c-2.41,3.37-9.68,11.73-10.4,12.33c-0.72,0.6-2.35,1.68-2.41-0.84
		C32.37,85.73,32.73,82.06,32.73,82.06z"/>
	<path class="st2" d="M47.16,82.91c-0.14-2.28-0.18-13.17-0.06-14.07c0.12-0.9-0.24-2.89,1.5-3.13c1.74-0.24,7.1,0.18,8.54,0.3
		c1.44,0.12,3.91,0.36,3.61,2.83s-1.56,9.02-3.25,12.57c-1.68,3.55-3.79,6.07-5.95,6.98C49.46,89.25,47.52,88.68,47.16,82.91"/>
	<path class="st3" d="M47.16,82.91c-0.14-2.28-0.18-13.17-0.06-14.07c0.12-0.9-0.24-2.89,1.5-3.13c1.74-0.24,7.1,0.18,8.54,0.3
		c1.44,0.12,3.91,0.36,3.61,2.83s-1.56,9.02-3.25,12.57c-1.68,3.55-3.79,6.07-5.95,6.98C49.46,89.25,47.52,88.68,47.16,82.91z"/>
	<path class="st2" d="M62.8,81.04c-0.66-2.89-1.86-9.8-1.93-10.77c-0.06-0.96-0.48-4.27,1.2-4.99c1.83-0.78,5.89-1.74,9.44-1.5
		c3.55,0.24,4.94,0.6,4.99,3.13c0.12,5.53-0.8,14.68-1.38,16.9c-0.72,2.77-2.59,5.59-4.81,6.13c-2.22,0.54-4.57-0.48-5.77-3.13
		C63.34,84.17,62.8,81.04,62.8,81.04"/>
	<path class="st3" d="M62.8,81.04c-0.66-2.89-1.86-9.8-1.93-10.77c-0.06-0.96-0.48-4.27,1.2-4.99c1.83-0.78,5.89-1.74,9.44-1.5
		c3.55,0.24,4.94,0.6,4.99,3.13c0.12,5.53-0.8,14.68-1.38,16.9c-0.72,2.77-2.59,5.59-4.81,6.13c-2.22,0.54-4.57-0.48-5.77-3.13
		C63.34,84.17,62.8,81.04,62.8,81.04z"/>
	<path class="st2" d="M151.32,68.41c0.83,0.34,1.36,0.16,1.12-2.4c-0.2-2.16-0.72-3.85-1.2-4.81c-0.5-1-0.94-1.3-1.92-1.12
		c-0.98,0.18-2.08,0.8-2.73,1.52c-0.71,0.8,0.56,2.12,1.36,3.37C148.76,66.21,149.96,67.85,151.32,68.41"/>
	<path class="st3" d="M151.32,68.41c0.83,0.34,1.36,0.16,1.12-2.4c-0.2-2.16-0.72-3.85-1.2-4.81c-0.5-1-0.94-1.3-1.92-1.12
		c-0.98,0.18-2.08,0.8-2.73,1.52c-0.71,0.8,0.56,2.12,1.36,3.37C148.76,66.21,149.96,67.85,151.32,68.41z"/>
	<path class="st2" d="M149.08,69.21c-0.18-1.08-1.18-3.21-1.6-4.17c-0.42-0.96-1.34-3.05-1.52-3.53c-0.18-0.48-1.6-2-2.81-0.72
		c-0.87,0.93-1.88,2.63-2.24,3.53c-0.36,0.9,1.6,5.21,3.05,6.33c0.84,0.65,3.11,2.81,4.73,2.08
		C149.97,72.17,149.08,69.21,149.08,69.21"/>
	<path class="st3" d="M149.08,69.21c-0.18-1.08-1.18-3.21-1.6-4.17c-0.42-0.96-1.34-3.05-1.52-3.53c-0.18-0.48-1.6-2-2.81-0.72
		c-0.87,0.93-1.88,2.63-2.24,3.53c-0.36,0.9,1.6,5.21,3.05,6.33c0.84,0.65,3.11,2.81,4.73,2.08
		C149.97,72.17,149.08,69.21,149.08,69.21z"/>
	<path class="st2" d="M140.66,65.77c0,0-1.91-4.49-2.33-4.97c-0.42-0.48-1.22-0.26-2.49,0.64c-1.26,0.9-2.62,2.48-2.89,3.93
		c-0.32,1.76,1.76,5.47,2.97,7.7c1.2,2.22,3.73,4.17,5.29,4.65c1.56,0.48,1.86,0.08,1.92-1.36c0.06-1.44-0.54-5.29-0.96-6.26
		C141.76,69.13,140.66,65.77,140.66,65.77"/>
	<path class="st3" d="M140.66,65.77c0,0-1.91-4.49-2.33-4.97c-0.42-0.48-1.22-0.26-2.49,0.64c-1.26,0.9-2.62,2.48-2.89,3.93
		c-0.32,1.76,1.76,5.47,2.97,7.7c1.2,2.22,3.73,4.17,5.29,4.65c1.56,0.48,1.86,0.08,1.92-1.36c0.06-1.44-0.54-5.29-0.96-6.26
		C141.76,69.13,140.66,65.77,140.66,65.77z"/>
	<path class="st2" d="M136.33,77.63c0,0-1.05-5.87-2.49-8.58c-1.44-2.73-3.81-5.29-4.65-5.53c-0.84-0.24-2.79,0-3.93,0.96
		c-1.14,0.96-4.01,3.05-3.45,5.53c0.13,0.59,1.2,3.61,4.41,7.14c2.38,2.62,5.61,5.13,7.3,6.09c0.96,0.55,2.97,1.66,3.21-0.32
		C136.97,80.94,136.33,77.63,136.33,77.63"/>
	<path class="st3" d="M136.33,77.63c0,0-1.05-5.87-2.49-8.58c-1.44-2.73-3.81-5.29-4.65-5.53c-0.84-0.24-2.79,0-3.93,0.96
		c-1.14,0.96-4.01,3.05-3.45,5.53c0.13,0.59,1.2,3.61,4.41,7.14c2.38,2.62,5.61,5.13,7.3,6.09c0.96,0.55,2.97,1.66,3.21-0.32
		C136.97,80.94,136.33,77.63,136.33,77.63z"/>
	<path class="st2" d="M123.58,82.77c-0.3-4.57-1.38-9.34-1.68-10.42c-0.3-1.08-1.04-4.57-1.76-5.53c-1.2-1.6-1.76-1.6-4.65-1.52
		c-1.33,0.04-3.93-0.48-5.45,1.04c-1.26,1.26-0.85,6.13,0.32,10.1c1.44,4.89,7.36,12.51,10.42,14.11c0.83,0.44,2.24,1.6,2.73-1.52
		C123.91,86.33,123.58,82.77,123.58,82.77"/>
	<path class="st3" d="M123.58,82.77c-0.3-4.57-1.38-9.34-1.68-10.42c-0.3-1.08-1.04-4.57-1.76-5.53c-1.2-1.6-1.76-1.6-4.65-1.52
		c-1.33,0.04-3.93-0.48-5.45,1.04c-1.26,1.26-0.85,6.13,0.32,10.1c1.44,4.89,7.36,12.51,10.42,14.11c0.83,0.44,2.24,1.6,2.73-1.52
		C123.91,86.33,123.58,82.77,123.58,82.77z"/>
	<path class="st2" d="M107.14,81.64c0.53-2.22,1.16-12.25,1.04-13.15c-0.12-0.9,0.4-3.21-2.33-3.37c-1.76-0.1-8.02-0.76-9.46-0.64
		c-1.44,0.12-4.17,0.48-3.77,4.09c0.27,2.47,1.37,10.05,2.57,13.79c1.2,3.77,2.73,5.75,4.89,6.66
		C102.17,89.89,105.3,89.34,107.14,81.64"/>
	<path class="st3" d="M107.14,81.64c0.53-2.22,1.16-12.25,1.04-13.15c-0.12-0.9,0.4-3.21-2.33-3.37c-1.76-0.1-8.02-0.76-9.46-0.64
		c-1.44,0.12-4.17,0.48-3.77,4.09c0.27,2.47,1.37,10.05,2.57,13.79c1.2,3.77,2.73,5.75,4.89,6.66
		C102.17,89.89,105.3,89.34,107.14,81.64z"/>
	<path class="st2" d="M90.06,79.08c0.39-2.7,1.06-7.36,1.28-10.02c0.08-0.96,0.32-3.53-1.36-4.25c-1.83-0.79-4.33-1.26-7.88-1.02
		c-3.55,0.24-4.94,0.6-4.99,3.13c-0.12,5.53,0.81,14.68,1.38,16.9c0.72,2.77,2.05,5.47,4.27,6.01c2.23,0.54,4.09-0.64,5.29-3.29
		C89.26,83.89,90.06,79.08,90.06,79.08"/>
	<path class="st3" d="M90.06,79.08c0.39-2.7,1.06-7.36,1.28-10.02c0.08-0.96,0.32-3.53-1.36-4.25c-1.83-0.79-4.33-1.26-7.88-1.02
		c-3.55,0.24-4.94,0.6-4.99,3.13c-0.12,5.53,0.81,14.68,1.38,16.9c0.72,2.77,2.05,5.47,4.27,6.01c2.23,0.54,4.09-0.64,5.29-3.29
		C89.26,83.89,90.06,79.08,90.06,79.08z"/>
	<path class="st2" d="M140.89,44.29c0,0,2.36-2.56,2.85-2.95c0.49-0.39,1.08-0.39,1.97,0.89c0.89,1.28,2.95,4.62,2.75,7.58
		c-0.2,2.95-0.2,7.48-0.69,8.26c-0.49,0.79-0.98,1.57-2.16,0.98c-1.18-0.59-4.82-2.85-5.12-4.23
		C140.2,53.44,140.89,44.29,140.89,44.29"/>
	<path class="st3" d="M140.89,44.29c0,0,2.36-2.56,2.85-2.95c0.49-0.39,1.08-0.39,1.97,0.89c0.89,1.28,2.95,4.62,2.75,7.58
		c-0.2,2.95-0.2,7.48-0.69,8.26c-0.49,0.79-0.98,1.57-2.16,0.98c-1.18-0.59-4.82-2.85-5.12-4.23
		C140.2,53.44,140.89,44.29,140.89,44.29z"/>
	<path class="st2" d="M135.78,42.02c0,0,0.69-2.26,1.67-2.85c0.98-0.59,2.07-1.18,3.05,1.38c0.98,2.56,1.67,6,1.57,9.94
		c-0.1,3.93-1.08,6.79-2.75,5.8c-1.67-0.98-3.05-2.16-3.25-3.64C135.87,51.17,135.78,42.02,135.78,42.02"/>
	<path class="st3" d="M135.78,42.02c0,0,0.69-2.26,1.67-2.85c0.98-0.59,2.07-1.18,3.05,1.38c0.98,2.56,1.67,6,1.57,9.94
		c-0.1,3.93-1.08,6.79-2.75,5.8c-1.67-0.98-3.05-2.16-3.25-3.64C135.87,51.17,135.78,42.02,135.78,42.02z"/>
	<path class="st2" d="M122.1,37.99c0,0,1.57-4.03,4.13-6.49c2.56-2.46,5.71-5.31,6.98-1.87c1.28,3.44,3.44,8.66,4.03,14.85
		c0.59,6.2,0.98,11.31-2.85,11.41c-3.84,0.1-7.28-2.66-8.56-3.93c-1.28-1.28-3.05-5.02-3.54-6.3
		C121.81,44.39,121.02,42.81,122.1,37.99"/>
	<path class="st3" d="M122.1,37.99c0,0,1.57-4.03,4.13-6.49c2.56-2.46,5.71-5.31,6.98-1.87c1.28,3.44,3.44,8.66,4.03,14.85
		c0.59,6.2,0.98,11.31-2.85,11.41c-3.84,0.1-7.28-2.66-8.56-3.93c-1.28-1.28-3.05-5.02-3.54-6.3
		C121.81,44.39,121.02,42.81,122.1,37.99z"/>
	<path class="st2" d="M103.41,35.34c0,0,6.2-8.95,6.98-9.94c0.79-0.98,2.46-2.85,4.82,0.3c2.36,3.15,7.67,11.71,8.26,13.87
		c0.59,2.17,1.47,6.1,0.49,8.46c-0.98,2.36-2.06,3.34-5.51,3.34c-3.44,0-8.66,0.1-10.33-0.69c-1.67-0.79-3.05-1.18-3.25-3.15
		C104.69,45.57,103.41,35.34,103.41,35.34"/>
	<path class="st3" d="M103.41,35.34c0,0,6.2-8.95,6.98-9.94c0.79-0.98,2.46-2.85,4.82,0.3c2.36,3.15,7.67,11.71,8.26,13.87
		c0.59,2.17,1.47,6.1,0.49,8.46c-0.98,2.36-2.06,3.34-5.51,3.34c-3.44,0-8.66,0.1-10.33-0.69c-1.67-0.79-3.05-1.18-3.25-3.15
		C104.69,45.57,103.41,35.34,103.41,35.34z"/>
	<path class="st2" d="M82.46,53.44c-1.67-0.04-4.53,0.2-4.72-3.25c-0.2-3.44-0.39-12.59-0.3-14.56s1.08-8.26,6.1-11.41
		c5.02-3.15,11.22-1.38,13.38-0.2c2.16,1.18,6.1,4.52,7.48,11.41c1.38,6.89,1.48,12.1,1.28,12.69c-0.2,0.59-0.69,1.67-3.44,2.46
		C99.48,51.37,93.57,53.73,82.46,53.44"/>
	<path class="st3" d="M82.46,53.44c-1.67-0.04-4.53,0.2-4.72-3.25c-0.2-3.44-0.39-12.59-0.3-14.56s1.08-8.26,6.1-11.41
		c5.02-3.15,11.22-1.38,13.38-0.2c2.16,1.18,6.1,4.52,7.48,11.41c1.38,6.89,1.48,12.1,1.28,12.69c-0.2,0.59-0.69,1.67-3.44,2.46
		C99.48,51.37,93.57,53.73,82.46,53.44z"/>
</g>
<g id="_x31_" class="st0">
	<path class="st1" d="M30.99,49.36c-9.86,0.72-17.32,1.2-20.21-3.13C7.9,41.91,6.45,30.6,6.69,25.79c0.24-4.81,1.44-6.98,5.29-7.7
		c3.85-0.72,64.95-6.74,89.49-4.81c24.54,1.93,38.49,5.29,40.41,10.35c1.93,5.05-1.44,19-2.65,21.89c-1.2,2.89-5.05,8.18-11.55,9.62
		c-6.5,1.44-55.09-0.72-62.79-1.2C57.21,53.45,40.85,48.64,30.99,49.36"/>
	<path class="st2" d="M136.6,43.75c0.05-1.69,0.72-4.33,1.6-4.25c0.88,0.08,2.73,2.09,4.33,8.18s2.81,13.31,2.89,14.43
		c0.08,1.12,0.16,3.61-0.96,3.53c-1.12-0.08-4.65-1.28-5.05-3.69C139,59.55,136.44,49.12,136.6,43.75"/>
	<path class="st3" d="M136.6,43.75c0.05-1.69,0.72-4.33,1.6-4.25c0.88,0.08,2.73,2.09,4.33,8.18s2.81,13.31,2.89,14.43
		c0.08,1.12,0.16,3.61-0.96,3.53c-1.12-0.08-4.65-1.28-5.05-3.69C139,59.55,136.44,49.12,136.6,43.75z"/>
	<path class="st1" d="M34.6,67.65c3.37,0,14.91-0.48,22.13,0.48c7.22,0.96,22.61,1.68,24.78,2.17c2.17,0.48,26.22,3.37,29.11,3.61
		c2.89,0.24,28.63,0.24,31.03,1.2c2.41,0.96,9.86,3.37,9.86,10.59c0,7.22-4.33,13.95-8.18,15.64c-3.85,1.68-21.41,7.46-44.5,5.29
		s-44.74-8.66-58.7-16.12c-13.95-7.46-16.6-14.92-17.32-19c-0.72-4.09-0.24-7.94,3.13-6.5C29.31,66.44,34.6,67.65,34.6,67.65"/>
	<path class="st2" d="M25.62,50.65c0.22-4.17,0.88-8.34,5.37-10.26c3.93-1.68,13.12-0.98,15.72,1.04c2.16,1.68,3.45,3.13,3.77,6.66
		c0.32,3.53-0.24,7.78-0.48,8.66c-0.24,0.88-1.2,2.89-3.21,3.69c-1.32,0.53-3.77,1.36-5.93,0c-2.17-1.36-2.73-2.25-4.65-2
		c-0.93,0.12-3.05,1.92-5.21,1.44C28.83,59.39,25.22,58.27,25.62,50.65"/>
	<path class="st3" d="M25.62,50.65c0.22-4.17,0.88-8.34,5.37-10.26c3.93-1.68,13.12-0.98,15.72,1.04c2.16,1.68,3.45,3.13,3.77,6.66
		c0.32,3.53-0.24,7.78-0.48,8.66c-0.24,0.88-1.2,2.89-3.21,3.69c-1.32,0.53-3.77,1.36-5.93,0c-2.17-1.36-2.73-2.25-4.65-2
		c-0.93,0.12-3.05,1.92-5.21,1.44C28.83,59.39,25.22,58.27,25.62,50.65z"/>
	<path class="st2" d="M50.72,51.93c0.22-4.17,2.08-8.18,5.77-9.86c3.89-1.78,12.96-1,15.48,1.12c1.52,1.28,3.61,3.29,3.93,6.81
		c0.32,3.53,0.24,5.69-0.48,8.42c-0.23,0.88-1.12,2.89-3.13,3.69c-1.32,0.53-3.77,1.36-5.93,0c-2.17-1.36-2.73-2.25-4.65-2
		c-0.93,0.12-3.05,1.92-5.21,1.44C54.33,61.07,50.32,59.55,50.72,51.93"/>
	<path class="st3" d="M50.72,51.93c0.22-4.17,2.08-8.18,5.77-9.86c3.89-1.78,12.96-1,15.48,1.12c1.52,1.28,3.61,3.29,3.93,6.81
		c0.32,3.53,0.24,5.69-0.48,8.42c-0.23,0.88-1.12,2.89-3.13,3.69c-1.32,0.53-3.77,1.36-5.93,0c-2.17-1.36-2.73-2.25-4.65-2
		c-0.93,0.12-3.05,1.92-5.21,1.44C54.33,61.07,50.32,59.55,50.72,51.93z"/>
	<path class="st2" d="M78.54,48.8c1.32-2.18,4.81-6.09,7.06-6.25c2.24-0.16,3.85,0.64,4.81,2.65c0.96,2,1.68,6.42,1.52,10.02
		c-0.16,3.61-0.24,6.98-1.84,8.66c-0.84,0.89-5.37,1.68-9.7,0.4c-4.33-1.28-5.37-2.49-4.81-5.77C76.14,55.22,75.98,53.05,78.54,48.8
		"/>
	<path class="st3" d="M78.54,48.8c1.32-2.18,4.81-6.09,7.06-6.25c2.24-0.16,3.85,0.64,4.81,2.65c0.96,2,1.68,6.42,1.52,10.02
		c-0.16,3.61-0.24,6.98-1.84,8.66c-0.84,0.89-5.37,1.68-9.7,0.4c-4.33-1.28-5.37-2.49-4.81-5.77C76.14,55.22,75.98,53.05,78.54,48.8
		z"/>
	<path class="st2" d="M94.66,49.6c1.02-0.9,3.21-3.77,3.93-5.45c0.72-1.68,1.84-3.77,3.85-4.49c2.01-0.72,2.01-1.04,3.29,0.96
		c1.28,2,3.29,4.73,3.69,7.86c0.4,3.13,0.8,8.18,0.48,10.42c-0.32,2.25-1.08,4.76-3.77,5.21c-1.92,0.32-8.74,0.16-11.39-1.12
		s-3.05-2.57-2.81-5.85C92.17,53.85,91.93,52.01,94.66,49.6"/>
	<path class="st3" d="M94.66,49.6c1.02-0.9,3.21-3.77,3.93-5.45c0.72-1.68,1.84-3.77,3.85-4.49c2.01-0.72,2.01-1.04,3.29,0.96
		c1.28,2,3.29,4.73,3.69,7.86c0.4,3.13,0.8,8.18,0.48,10.42c-0.32,2.25-1.08,4.76-3.77,5.21c-1.92,0.32-8.74,0.16-11.39-1.12
		s-3.05-2.57-2.81-5.85C92.17,53.85,91.93,52.01,94.66,49.6z"/>
	<path class="st2" d="M112.54,44.63c2.57-3.13,4.33-6.09,5.45-6.98c1.12-0.88,2.65-1.84,4.33,0.56c1.68,2.4,3.93,5.21,5.21,10.9
		c1.28,5.69,1,10.8,0.8,11.87c-0.24,1.28-1.04,4.01-3.29,4.09s-9.94,0.4-12.03-1.2c-2.08-1.6-2.82-2.64-3.36-5.81
		c-0.5-2.94-0.64-7.95,0-9.16C110.3,47.71,111.86,45.46,112.54,44.63"/>
	<path class="st3" d="M112.54,44.63c2.57-3.13,4.33-6.09,5.45-6.98c1.12-0.88,2.65-1.84,4.33,0.56c1.68,2.4,3.93,5.21,5.21,10.9
		c1.28,5.69,1,10.8,0.8,11.87c-0.24,1.28-1.04,4.01-3.29,4.09s-9.94,0.4-12.03-1.2c-2.08-1.6-2.82-2.64-3.36-5.81
		c-0.5-2.94-0.64-7.95,0-9.16C110.3,47.71,111.86,45.46,112.54,44.63z"/>
	<path class="st2" d="M127.62,43.99c0.24-0.72,0.96-2,1.36-2.48c0.4-0.48,0.88-1.61,2.65,0.08c1.76,1.68,4.41,4.65,5.13,6.89
		c0.72,2.25,2.47,11.94,2.57,13.15c0.16,2-2.24,2.89-3.45,3.45c-1.2,0.56-4.33,0.48-5.77-0.88c-1.44-1.36-1.81-3.33-2.17-4.65
		C127.62,58.35,125.39,50.68,127.62,43.99"/>
	<path class="st3" d="M127.62,43.99c0.24-0.72,0.96-2,1.36-2.48c0.4-0.48,0.88-1.61,2.65,0.08c1.76,1.68,4.41,4.65,5.13,6.89
		c0.72,2.25,2.47,11.94,2.57,13.15c0.16,2-2.24,2.89-3.45,3.45c-1.2,0.56-4.33,0.48-5.77-0.88c-1.44-1.36-1.81-3.33-2.17-4.65
		C127.62,58.35,125.39,50.68,127.62,43.99z"/>
	<path class="st2" d="M41.33,63.96c-0.09-2-0.24-5.53,2.33-5.93c2.57-0.4,5.77,0.08,7.46,0.4c1.68,0.32,3.21,0.88,6.25,0.56
		c3.05-0.32,5.77-1.28,7.3,0.16c1.52,1.44,3.13,3.37,1.6,7.14c-1.52,3.77-3.77,8.58-10.26,9.06c-6.49,0.48-11.08-1.4-12.83-4.57
		C42.3,69.17,41.49,67.73,41.33,63.96"/>
	<path class="st3" d="M41.33,63.96c-0.09-2-0.24-5.53,2.33-5.93c2.57-0.4,5.77,0.08,7.46,0.4c1.68,0.32,3.21,0.88,6.25,0.56
		c3.05-0.32,5.77-1.28,7.3,0.16c1.52,1.44,3.13,3.37,1.6,7.14c-1.52,3.77-3.77,8.58-10.26,9.06c-6.49,0.48-11.08-1.4-12.83-4.57
		C42.3,69.17,41.49,67.73,41.33,63.96z"/>
	<path class="st2" d="M68.6,72.22c-0.99-2.04-1.76-4.09-1.84-5.45c-0.08-1.36-0.12-4.02,0.8-4.97c2-2.08,3.61-2.08,5.45-2.08
		c1.84,0,5.45,1.28,6.74,1.77c1.28,0.48,2.49,1.04,4.25,0.4c2.32-0.84,6.41-0.8,8.26-0.56c1.85,0.24,3.13,1.84,2.65,6.42
		c-0.49,4.63-2.24,7.94-5.45,11.23c-1.27,1.3-5.69,2.97-9.62,2.08C75.9,80.16,71.24,77.67,68.6,72.22"/>
	<path class="st3" d="M68.6,72.22c-0.99-2.04-1.76-4.09-1.84-5.45c-0.08-1.36-0.12-4.02,0.8-4.97c2-2.08,3.61-2.08,5.45-2.08
		c1.84,0,5.45,1.28,6.74,1.77c1.28,0.48,2.49,1.04,4.25,0.4c2.32-0.84,6.41-0.8,8.26-0.56c1.85,0.24,3.13,1.84,2.65,6.42
		c-0.49,4.63-2.24,7.94-5.45,11.23c-1.27,1.3-5.69,2.97-9.62,2.08C75.9,80.16,71.24,77.67,68.6,72.22z"/>
	<path class="st2" d="M95.38,71.02c-0.27-1.99-0.32-4.33-0.4-5.85c-0.08-1.52,0.16-3.29,2.57-3.85c2.4-0.56,6.9-1.52,9.06-0.96
		c2.17,0.56,4.01,1.84,4.73,2.4c0.72,0.56,2.33,1.12,2.57,3.85c0.24,2.72,0.72,6.98-0.24,9.14c-0.96,2.17-3.77,6.66-5.13,8.26
		c-1.36,1.6-2.73,2.49-4.89,0.64c-2.16-1.85-5.37-6.1-6.49-7.78C96.02,75.19,95.78,73.98,95.38,71.02"/>
	<path class="st3" d="M95.38,71.02c-0.27-1.99-0.32-4.33-0.4-5.85c-0.08-1.52,0.16-3.29,2.57-3.85c2.4-0.56,6.9-1.52,9.06-0.96
		c2.17,0.56,4.01,1.84,4.73,2.4c0.72,0.56,2.33,1.12,2.57,3.85c0.24,2.72,0.72,6.98-0.24,9.14c-0.96,2.17-3.77,6.66-5.13,8.26
		c-1.36,1.6-2.73,2.49-4.89,0.64c-2.16-1.85-5.37-6.1-6.49-7.78C96.02,75.19,95.78,73.98,95.38,71.02z"/>
	<path class="st2" d="M115.75,77.75c-0.95-2.52-1.44-4.89-1.68-7.54c-0.24-2.65-1.2-6.9,1.68-6.9c2.89,0,6.82-0.32,9.54,0.08
		c2.73,0.4,6.26,0.48,6.58,3.93c0.2,2.16-0.88,9.78-3.05,14.19c-2.17,4.41-3.93,5.77-5.21,5.85
		C122.32,87.45,118.55,85.21,115.75,77.75"/>
	<path class="st3" d="M115.75,77.75c-0.95-2.52-1.44-4.89-1.68-7.54c-0.24-2.65-1.2-6.9,1.68-6.9c2.89,0,6.82-0.32,9.54,0.08
		c2.73,0.4,6.26,0.48,6.58,3.93c0.2,2.16-0.88,9.78-3.05,14.19c-2.17,4.41-3.93,5.77-5.21,5.85
		C122.32,87.45,118.55,85.21,115.75,77.75z"/>
	<path class="st2" d="M150.47,65.16c0,0,2.24-0.64,2.73,1.04c0.48,1.68-0.4,6.65-1.2,10.42c-0.49,2.29-1.6,6.73-2.24,7.46
		c-0.64,0.72-1.6,1.12-1.92-0.08c-0.32-1.2,1.6-17.56,1.6-17.56L150.47,65.16z"/>
	<path class="st3" d="M150.47,65.16c0,0,2.24-0.64,2.73,1.04c0.48,1.68-0.4,6.65-1.2,10.42c-0.49,2.29-1.6,6.73-2.24,7.46
		c-0.64,0.72-1.6,1.12-1.92-0.08c-0.32-1.2,1.6-17.56,1.6-17.56L150.47,65.16z"/>
	<path class="st2" d="M147.18,64.28c1.03-0.19,3.21-0.24,3.37,1.52c0.16,1.76-1.36,11.23-1.84,14.19c-0.48,2.97-0.48,5.05-2.48,5.05
		c-2.01,0-2.57-2.49-2.49-4.41c0.08-1.92,0.64-14.03,0.64-14.03S144.62,64.76,147.18,64.28"/>
	<path class="st3" d="M147.18,64.28c1.03-0.19,3.21-0.24,3.37,1.52c0.16,1.76-1.36,11.23-1.84,14.19c-0.48,2.97-0.48,5.05-2.48,5.05
		c-2.01,0-2.57-2.49-2.49-4.41c0.08-1.92,0.64-14.03,0.64-14.03S144.62,64.76,147.18,64.28z"/>
	<path class="st2" d="M134.43,88.18c-1.68-1.84-5.05-6.57-5.45-9.94c-0.4-3.37-0.24-12.11,3.53-14.03c3.77-1.92,7.3-2.72,9.86-1.52
		c2.57,1.2,2.81,1.52,2.73,4.01c-0.08,2.48-1.28,17.96-1.84,20.13C142.69,88.98,141.09,95.47,134.43,88.18"/>
	<path class="st3" d="M134.43,88.18c-1.68-1.84-5.05-6.57-5.45-9.94c-0.4-3.37-0.24-12.11,3.53-14.03c3.77-1.92,7.3-2.72,9.86-1.52
		c2.57,1.2,2.81,1.52,2.73,4.01c-0.08,2.48-1.28,17.96-1.84,20.13C142.69,88.98,141.09,95.47,134.43,88.18z"/>
</g>
</svg>
